<?xml version="1.0" encoding="UTF-8" standalone="no"?>
<!-- Created with Inkscape (http://www.inkscape.org/) -->

<svg
   xmlns:dc="http://purl.org/dc/elements/1.1/"
   xmlns:cc="http://creativecommons.org/ns#"
   xmlns:rdf="http://www.w3.org/1999/02/22-rdf-syntax-ns#"
   xmlns:svg="http://www.w3.org/2000/svg"
   xmlns="http://www.w3.org/2000/svg"
   xmlns:sodipodi="http://sodipodi.sourceforge.net/DTD/sodipodi-0.dtd"
   xmlns:inkscape="http://www.inkscape.org/namespaces/inkscape"
   id="svg24740"
   version="1.1"
   inkscape:version="0.91 r13725"
   width="511.875"
   height="585.9375"
   viewBox="0 0 511.875 585.9375"
   sodipodi:docname="PlantainLeavedButtercup.svg">
  <metadata
     id="metadata24746">
    <rdf:RDF>
      <cc:Work
         rdf:about="">
        <dc:format>image/svg+xml</dc:format>
        <dc:type
           rdf:resource="http://purl.org/dc/dcmitype/StillImage" />
        <dc:title></dc:title>
      </cc:Work>
    </rdf:RDF>
  </metadata>
  <defs
     id="defs24744" />
  <sodipodi:namedview
     pagecolor="#ffffff"
     bordercolor="#666666"
     borderopacity="1"
     objecttolerance="10"
     gridtolerance="10"
     guidetolerance="10"
     inkscape:pageopacity="0"
     inkscape:pageshadow="2"
     inkscape:window-width="1600"
     inkscape:window-height="837"
     id="namedview24742"
     showgrid="false"
     inkscape:zoom="1.1434667"
     inkscape:cx="255.9375"
     inkscape:cy="292.96875"
     inkscape:window-x="-8"
     inkscape:window-y="-8"
     inkscape:window-maximized="1"
     inkscape:current-layer="svg24740" />
  <path
     style="fill:#000000"
     d="m 259.3317,584.29687 c -0.51698,-1.75916 -2.10734,-13.64778 -2.85309,-21.32812 -0.25034,-2.57813 -0.89393,-7.21875 -1.43021,-10.3125 -0.53627,-3.09375 -0.96992,-9 -0.96365,-13.125 0.0114,-7.53215 2.07092,-23.74121 3.30171,-25.98592 0.36236,-0.66087 -1.21626,0.69686 -3.50805,3.01717 -4.79646,4.85617 -17.62841,21.32062 -17.62841,22.61873 0,0.47967 -1.5048,4.12964 -3.344,8.11107 -4.34162,9.39853 -4.69678,10.28557 -5.90144,14.73895 -1.50864,5.57713 -7.40986,14.53125 -9.57682,14.53125 -1.4001,0 -1.80274,-0.66477 -1.80274,-2.97639 0,-6.14011 9.77213,-30.16978 17.33512,-42.62705 2.32506,-3.82969 4.22738,-7.18219 4.22738,-7.45 0,-0.93087 7.75466,-12.11005 9.20825,-13.27469 0.80444,-0.64453 0.99209,-1.17187 0.41699,-1.17187 -1.19427,0 -19.44314,6.08677 -22.28149,7.43182 -4.17745,1.97964 -29.24419,9.4456 -31.70936,9.44444 -3.28146,-0.002 -3.13853,-2.27248 0.30311,-4.81581 2.79785,-2.06759 22.15221,-10.64303 28.125,-12.4615 2.32031,-0.70645 6.15518,-2.12691 8.5219,-3.15659 2.36674,-1.02969 6.66304,-2.36207 9.54733,-2.96084 2.8843,-0.59879 7.69787,-2.04544 10.69684,-3.2148 l 5.45268,-2.1261 -0.30694,-7.89843 c -0.16881,-4.34414 -0.90709,-12.00895 -1.64062,-17.0329 -0.73353,-5.02395 -1.33539,-12.6177 -1.33746,-16.875 -0.005,-9.35139 -2.37456,-24.75077 -4.24963,-27.61249 -4.64347,-7.08684 -21.38398,-16.77669 -33.64628,-19.47536 -7.03975,-1.5493 -17.48962,-1.66964 -18.94114,-0.21812 -0.34666,0.34665 1.33196,2.72809 3.73026,5.29207 2.39831,2.56398 4.36056,5.31839 4.36056,6.12092 0,0.80252 0.39968,2.19169 0.88819,3.08704 2.42511,4.44482 4.92076,15.57077 4.32804,19.29505 -1.90215,11.95204 -14.85996,36.6945 -24.63038,47.03082 -4.15954,4.40046 -13.06311,11.56081 -18.93172,15.2251 -2.26991,1.41732 -7.17896,4.96965 -10.90899,7.8941 -3.73003,2.92445 -8.62283,6.24485 -10.87288,7.37867 -2.25006,1.13382 -5.82934,3.47066 -7.95398,5.19298 -5.08415,4.12143 -17.38161,10.47256 -23.55891,12.1672 -2.70703,0.74263 -7.34765,2.00406 -10.3125,2.80319 -7.081045,1.90858 -32.609244,10.50976 -36.79687,12.39791 -1.804688,0.81371 -6.445313,3.65958 -10.3125,6.32415 -10.721992,7.38767 -16.343218,10.16171 -19.159193,9.45495 -2.158327,-0.54171 -2.403307,-1.05807 -2.403307,-5.06565 0,-4.36799 3.323765,-36.33008 4.163075,-40.03307 0.233739,-1.03125 0.686159,-3.98438 1.005377,-6.5625 0.319216,-2.57813 0.756989,-5.32031 0.972825,-6.09375 0.215838,-0.77344 0.827357,-5.61323 1.358933,-10.75508 0.531575,-5.14185 1.377949,-10.62623 1.880831,-12.1875 0.502883,-1.56127 1.556655,-5.58086 2.341719,-8.93242 0.785063,-3.35156 2.030222,-7.35938 2.76702,-8.90625 0.736797,-1.54688 3.083618,-7.03125 5.215158,-12.1875 4.358124,-10.54241 10.455316,-21.57167 16.357541,-29.58927 4.606334,-6.25726 19.361593,-20.50409 23.468771,-22.6601 5.8173,-3.05371 23.30813,-9.32852 29.74283,-10.67018 3.67521,-0.76632 7.00135,-1.59053 7.39142,-1.83161 1.13676,-0.70255 9.2647,-2.36797 15.36575,-3.14845 6.28573,-0.8041 19.15312,0.84291 24.13684,3.08949 1.67786,0.75634 5.16003,2.27512 7.73816,3.37505 2.57812,1.09992 6.02489,3.29397 7.65948,4.87566 3.3199,3.21245 3.50177,3.21589 16.71409,0.31566 12.13825,-2.66447 30.28406,-0.59294 37.05801,4.23054 1.43432,1.02133 2.81888,1.85696 3.07678,1.85696 0.63746,0 -5.41062,-15.39016 -8.10528,-20.625 -7.78185,-15.11757 -11.99876,-21.52367 -18.60622,-28.26548 -4.91191,-5.0118 -7.4861,-5.99969 -13.23174,-5.07786 -11.70585,1.87806 -19.76583,2.42346 -36.74321,2.48628 -23.85807,0.0883 -33.43161,-1.27362 -50.37357,-7.16608 -5.01279,-1.74346 -10.91904,-4.32944 -13.125,-5.74663 -2.205965,-1.41718 -5.909277,-3.5871 -8.22959,-4.82203 -2.320313,-1.23493 -5.484375,-3.38164 -7.03125,-4.77048 -1.546875,-1.38882 -5.34375,-4.39968 -8.4375,-6.6908 -7.084053,-5.2462 -6.494929,-4.73186 -14.926164,-13.03113 -3.905889,-3.84475 -7.338101,-7.64163 -7.627138,-8.4375 -0.289036,-0.79587 -3.518238,-3.97829 -7.176005,-7.07204 -3.657767,-3.09375 -7.381526,-6.31493 -8.27502,-7.15818 C 35.371138,286.75294 17.68465,276.00206 11.71875,273.70862 -0.28552748,269.09387 -0.22517818,269.12654 0.37344802,267.56654 0.68367661,266.75811 0.9375,265.70928 0.9375,265.23582 c 0,-0.47344 0.4389577,-0.86082 0.9754617,-0.86082 0.536504,0 2.1185352,-0.78762 3.515625,-1.75027 1.3970898,-0.96264 4.6495383,-3.06091 7.2276633,-4.66284 2.578125,-1.60192 5.132401,-3.24008 5.67617,-3.64036 1.119901,-0.82438 1.094423,-0.80862 14.48008,-8.95608 17.985838,-10.94745 22.827494,-13.36811 31.40625,-15.70205 1.546875,-0.42086 6.609375,-1.80394 11.25,-3.07355 13.31422,-3.64255 20.114297,-4.4752 36.37571,-4.45408 14.87557,0.0193 25.09907,1.03115 27.23831,2.69579 0.59041,0.45942 3.17225,1.34805 5.73741,1.97471 2.56517,0.62666 9.31517,3.35547 15,6.06402 13.70949,6.53189 23.28645,15.30325 31.25262,28.62365 6.96146,11.6404 10.66329,21.37525 16.42501,43.19356 0.74891,2.83594 2.28518,8.32031 3.41393,12.1875 2.67584,9.16762 7.43474,25.95401 8.37203,29.53125 0.64408,2.45818 2.48084,5.55696 9.16893,15.46875 0.8698,1.28906 2.69627,3.60937 4.05881,5.15625 1.36254,1.54687 3.79704,4.92187 5.40999,7.5 1.61296,2.57812 4.53343,6.33077 6.48994,8.33921 l 3.55731,3.65171 0.64661,-13.02671 c 0.35564,-7.16469 0.84657,-14.71421 1.09097,-16.77671 2.47117,-20.85491 3.36713,-38.00055 3.62522,-69.375 l 0.13111,-15.9375 -4.81068,-14.0625 c -2.64588,-7.73438 -5.81716,-16.17188 -7.04729,-18.75 -1.23013,-2.57813 -3.67645,-9.28298 -5.43627,-14.89967 -3.19801,-10.20688 -3.20282,-10.21478 -9.29342,-15.28221 -10.4785,-8.71818 -23.85718,-24.06816 -28.12197,-32.26563 -2.11637,-4.06793 -3.40319,-7.39624 -2.85959,-7.39624 1.2261,0 6.15762,2.62646 9.89174,5.26821 1.54472,1.09281 4.65482,2.92154 6.91135,4.06382 2.25653,1.14229 5.15818,3.20129 6.44813,4.57556 2.30136,2.4518 2.33253,2.45728 1.66251,0.29193 -0.37555,-1.21371 -1.02349,-4.37777 -1.43985,-7.03125 -0.41636,-2.65349 -2.02743,-11.9964 -3.58014,-20.76202 -1.55271,-8.76563 -3.10288,-19.19351 -3.44482,-23.17308 l -0.6217,-7.23558 -5.54143,4.61162 c -6.06362,5.0462 -10.07686,6.56509 -17.36746,6.57306 -11.48445,0.0126 -17.71316,-5.3648 -18.66088,-16.11028 -0.63857,-7.24017 1.39482,-13.1989 6.76204,-19.8158 1.18227,-1.457521 2.14957,-2.981793 2.14957,-3.387262 0,-0.405478 -2.69423,-0.953484 -5.98718,-1.217812 -7.3111,-0.586866 -13.82368,-3.891197 -20.80775,-10.557366 -7.30435,-6.971857 -8.76852,-14.044239 -4.65814,-22.5 4.63217,-9.52913 9.58218,-12.593033 20.86689,-12.91596 5.90396,-0.168949 8.14755,0.191058 11.69849,1.877138 2.41646,1.147398 4.87032,2.834898 5.45303,3.75 0.86145,1.352831 0.9542,1.05051 0.49619,-1.617428 -1.33124,-7.754808 -1.62263,-20.420909 -0.58428,-25.397293 2.56323,-12.284449 14.84985,-16.210316 24.89246,-7.95373 3.33718,2.743682 5.39806,6.054059 11.01875,17.699354 0.44919,0.930644 1.0695,4.399258 1.37847,7.708031 l 0.56178,6.01595 2.76472,-4.426781 c 9.23444,-14.785924 27.34163,-25.807573 35.40241,-21.549061 3.79724,2.006082 6.99156,8.786522 6.96229,14.77853 -0.0268,5.484237 -3.52088,14.034499 -7.39852,18.104641 -4.89983,5.143067 -17.44365,14.707859 -19.28874,14.707859 -0.49273,0 -0.89587,0.421875 -0.89587,0.9375 0,0.515625 0.73828,0.949867 1.64062,0.964981 3.36482,0.05636 11.71123,9.524191 15.22197,17.267181 1.77903,3.923682 2.04131,5.81551 1.70214,12.277488 -0.39163,7.46156 -0.50509,7.77163 -4.88204,13.34278 -7.28511,9.27279 -13.47243,10.82041 -23.52644,5.88463 -7.63769,-3.74955 -10.69031,-6.76011 -11.9724,-11.80738 -0.86512,-3.40584 -0.69162,5.46143 0.21939,11.21228 0.49679,3.13598 1.99531,13.35801 3.33005,22.71562 2.47168,17.32858 6.17866,35.56139 7.83006,38.51227 0.78845,1.4089 1.00188,1.24795 1.54396,-1.16435 0.79471,-3.53658 6.77867,-22.797 7.86013,-25.29925 2.50269,-5.7906 5.54959,-11.24685 7.75233,-13.88247 3.92771,-4.6996 4.93578,-2.69389 5.3246,10.59398 0.2766,9.45306 0.027,12.01432 -1.64031,16.83217 -1.08161,3.1254 -1.96745,6.2082 -1.96855,6.85068 -0.003,1.63847 -7.22087,15.55333 -9.935,19.15246 -1.23779,1.64138 -2.24487,3.53982 -2.23797,4.21875 0.0128,1.26063 4.83415,15.58965 5.79187,17.21343 0.29065,0.4928 1.24181,3.42725 2.11369,6.521 0.87187,3.09375 2.35434,7.3125 3.29437,9.375 0.94004,2.0625 2.4932,5.60511 3.45147,7.87245 0.95827,2.26735 3.06834,6.90798 4.68903,10.3125 l 2.94673,6.19005 -0.34241,-7.96875 c -1.31116,-30.51417 -1.30375,-33.23737 0.11682,-42.95718 0.80477,-5.50636 1.83313,-11.2772 2.28527,-12.82407 0.45213,-1.54688 1.95517,-6.60938 3.34008,-11.25 3.33427,-11.17259 7.18755,-25.95624 9.77417,-37.5 2.41611,-10.78281 5.95521,-21.43072 8.5306,-25.66562 1.81207,-2.97968 5.3774,-3.90615 8.18316,-2.12642 0.68467,0.4343 1.82258,4.8439 2.59698,10.06376 0.7581,5.10993 1.5039,9.69287 1.65734,10.18433 0.31615,1.01257 5.00959,-13.50978 5.71461,-17.68202 0.25335,-1.49928 0.71682,-4.66334 1.02995,-7.03125 0.54815,-4.14527 3.24145,-17.812255 5.1465,-26.115609 0.50448,-2.198806 0.90797,-5.784744 0.89664,-7.96875 l -0.0206,-3.970921 -1.78353,3.928415 c -2.87934,6.342094 -8.72574,11.898424 -16.51722,15.697716 -11.33047,5.524979 -19.72611,5.661559 -26.32493,0.428269 -4.6957,-3.724002 -5.88442,-5.98147 -5.92492,-11.251923 -0.041,-5.331594 4.42973,-12.512992 11.31622,-18.177477 2.50744,-2.0625 5.16821,-4.277344 5.91281,-4.921875 0.7446,-0.644531 1.72145,-1.171875 2.17078,-1.171875 0.44933,0 1.33368,-0.516722 1.96523,-1.148271 0.63155,-0.631547 4.19639,-2.053514 7.92188,-3.159923 l 6.77364,-2.011654 -4.01051,-1.215053 c -4.92107,-1.490919 -13.21124,-9.989684 -16.17342,-16.580378 -4.61054,-10.258158 0.83716,-26.686934 10.528,-31.7496676 4.31905,-2.2563808 10.63491,-1.6602425 16.70879,1.5771042 6.91096,3.6835054 8.94066,5.8823314 11.70246,12.6776114 1.82372,4.487158 2.3553,5.146923 2.9214,3.62587 2.5255,-6.785788 10.91293,-16.951995 16.14285,-19.5663842 9.64147,-4.8196664 16.39604,-3.91351944 22.93461,3.0767518 7.51202,8.0309594 8.05959,16.8492694 1.64414,26.4782854 l -3.52155,5.285541 5.37441,0.608046 c 6.79473,0.768736 12.86081,4.63931 16.70482,10.658815 5.4906,8.597959 5.10561,13.906882 -1.52234,20.992694 -5.18804,5.546434 -9.1629,7.4013 -16.34328,7.626592 -5.19673,0.163052 -5.33145,0.233683 -4.7903,2.51152 0.30624,1.289062 1.14733,3.51566 1.86907,4.947993 1.40779,2.793815 1.03201,6.704675 -1.27985,13.319973 -2.72956,7.810494 -10.07622,12.713684 -19.36353,12.923314 -6.83594,0.1543 -10.61958,-1.43962 -16.28608,-6.86079 l -3.94781,-3.77688 -1.32292,4.95757 c -0.7276,2.72667 -3.08589,12.12945 -5.24062,20.89507 -6.39491,26.01501 -6.58139,26.70652 -7.91304,29.34336 -0.76513,1.51504 -1.51321,7.4256 -1.86294,14.71914 -0.99414,20.73191 -5.41898,43.50168 -9.65075,49.66173 -0.6987,1.01706 -1.27036,2.49863 -1.27036,3.29236 0,1.76249 -12.60112,26.70916 -15.08903,29.87202 -0.98508,1.25233 -1.80063,3.79032 -1.81868,5.6597 -0.018,1.86406 -0.65571,6.76419 -1.41715,10.88919 -0.76145,4.125 -1.79424,16.99219 -2.29508,28.59375 -1.85023,42.85875 -2.16328,47.02923 -4.31496,57.48317 -2.72323,13.23084 -1.54519,25.0989 4.42697,44.59915 1.48249,4.8406 2.73315,9.48122 2.77926,10.3125 0.0461,0.83129 0.62879,-0.38701 1.29486,-2.70732 1.37642,-4.79492 5.73504,-16.51394 9.24007,-24.84375 1.3018,-3.09375 3.43148,-8.38551 4.73263,-11.75947 2.22152,-5.76048 4.5587,-11.10865 10.22453,-23.39678 9.92255,-21.52015 11.72894,-29.32822 12.43111,-53.73287 0.66962,-23.27332 1.43013,-26.84369 9.46066,-44.41491 1.22327,-2.67659 2.59563,-5.84065 3.04968,-7.03125 2.628,-6.89109 16.72292,-22.27023 28.44805,-31.04 6.61231,-4.94566 17.1965,-10.96847 19.27546,-10.96847 0.46533,0 2.07102,-0.60788 3.56821,-1.35084 4.39521,-2.18109 16.014,-4.41925 27.09716,-5.21981 14.41842,-1.04148 47.44685,2.34363 63.75,6.53379 4.125,1.06018 12.98437,2.38611 19.6875,2.9465 16.67083,1.39372 18.68416,1.85359 19.04468,4.35008 0.17477,1.21023 -1.25577,4.32369 -3.51562,7.65147 -2.09567,3.08602 -3.81031,6.18625 -3.81031,6.88943 0,0.70319 -0.6194,2.09743 -1.37644,3.09832 -0.75703,1.00089 -1.39245,2.45262 -1.41202,3.22606 -0.0196,0.77344 -0.71845,2.67187 -1.55305,4.21875 -0.83461,1.54687 -3.1085,5.97656 -5.05311,9.84375 -1.94462,3.86719 -6.50348,11.03906 -10.13081,15.9375 -7.41875,10.01849 -6.9995,9.50953 -14.67962,17.82097 -9.88078,10.69299 -19.68088,21.69432 -20.32274,22.81378 -0.45399,0.79176 1.38231,1.00144 6.81138,0.77778 14.48299,-0.59666 29.65542,4.56308 58.49766,19.8935 1.54687,0.82221 4.18359,1.49752 5.85937,1.50069 5.64369,0.0107 3.3602,4.40825 -5.39062,10.38131 -4.21803,2.8791 -5.72161,4.60701 -10.95822,12.59322 -7.2073,10.99162 -23.24808,34.7932 -27.96197,41.4904 -0.81892,1.16348 -4.10393,4.22906 -7.3,6.81238 -3.19608,2.58334 -6.44387,5.28467 -7.21731,6.00298 -1.55743,1.44639 -23.78107,9.86609 -31.875,12.07622 -11.6637,3.18491 -19.22667,3.81736 -30.55272,2.55499 -5.89994,-0.6576 -10.95628,-1.56634 -11.2363,-2.01943 -0.28003,-0.45308 -1.12478,-0.82379 -1.87724,-0.82379 -1.91731,0 -10.52487,-3.90983 -28.08531,-12.75726 -18.11807,-9.12837 -23.62517,-11.11136 -28.38055,-10.21924 -4.09385,0.76801 -13.92991,6.62731 -15.72538,9.36755 -0.69403,1.05923 -4.20408,4.37668 -7.80008,7.37213 -4.73656,3.9455 -6.71221,6.2656 -7.16965,8.41967 -0.3473,1.63536 -1.30439,3.73565 -2.12686,4.66729 -1.25216,1.41834 -1.50733,4.62102 -1.56864,19.6875 -0.0403,9.89649 -0.35395,18.4465 -0.69707,19.00004 -0.82847,1.33653 -2.38375,14.47016 -3.13541,26.47728 -0.5503,8.79061 -0.43743,9.85767 1.23966,11.71875 1.0148,1.12615 2.60848,3.38268 3.54152,5.01453 1.96516,3.43702 4.11514,4.59312 10.25361,5.51364 2.95422,0.44301 5.72002,1.71484 8.32529,3.82832 2.14576,1.74071 8.22988,5.27743 13.52028,7.85938 10.34342,5.04808 13.34985,7.36248 13.34985,10.27698 0,1.58383 -0.44057,1.76705 -3.04688,1.2671 -1.67578,-0.32145 -4.16669,-1.36559 -5.53534,-2.32031 C 320.04912,525.78113 318.66043,525 318.33181,525 c -1.46913,0 -13.45302,-6.10721 -17.65302,-8.9963 -4.48147,-3.08271 -8.17879,-4.12831 -8.17879,-2.31296 0,0.48304 1.93214,3.70043 4.29365,7.14976 2.36151,3.44934 4.54408,6.95647 4.85016,7.79363 0.30609,0.83717 2.80571,5.443 5.55473,10.23519 5.87698,10.24495 7.80146,14.59924 7.80146,17.65142 0,3.16121 -2.42766,2.8277 -5.45115,-0.74888 -2.93651,-3.47368 -9.54756,-13.98891 -9.54833,-15.18714 -9.3e-4,-1.97835 -6.11213,-12.58159 -9.75414,-16.92485 -2.19237,-2.61449 -4.9369,-6.33565 -6.09896,-8.26925 -1.16207,-1.93359 -2.83781,-3.51562 -3.72388,-3.51562 -0.88607,0 -2.16846,-0.52734 -2.84975,-1.17188 -1.0217,-0.96657 -1.0981,-0.5149 -0.4361,2.57813 0.44143,2.0625 0.80902,15.5625 0.81684,30 0.008,14.4375 0.39287,29.94141 0.85565,34.45312 0.72051,7.02429 0.64035,8.20313 -0.55783,8.20313 -1.46658,0 -4.50235,-2.85277 -4.50235,-4.23096 0,-0.44113 -0.85902,-2.57655 -1.90893,-4.74538 -2.4614,-5.08458 -3.43592,-16.49929 -2.59522,-30.39866 1.21264,-20.04913 1.01169,-32.03358 -0.6013,-35.85938 -0.81522,-1.93359 -1.79567,-3.51562 -2.17878,-3.51562 -0.81578,0 -3.82623,17.62157 -4.59219,26.88024 -0.32877,3.97416 0.0539,10.05349 1.00928,16.0347 2.27325,14.23146 2.97395,29.44515 1.51806,32.95998 -1.31459,3.17369 -4.28661,3.89744 -5.06922,1.23446 z m 3.26591,-18.88032 c -0.63869,-5.47129 -1.757,-12.37376 -2.48514,-15.33882 -1.41886,-5.77782 -1.13339,-17.16013 0.6564,-26.17205 0.5461,-2.74968 1.16815,-7.95255 1.38234,-11.56193 0.51908,-8.74705 -0.8643,-6.37071 -3.30574,5.67858 -2.48253,12.25215 -3.39893,25.16743 -2.12483,29.94642 0.54987,2.0625 1.26324,6.91406 1.58528,10.78125 0.32202,3.86719 0.9813,8.32064 1.46507,9.89656 0.48377,1.57593 0.92409,5.16187 0.9785,7.96875 0.13065,6.74043 1.03733,7.96031 2.12847,2.86374 0.59141,-2.76241 0.49928,-7.38403 -0.28035,-14.0625 z m 13.8199,9.57968 c -0.90536,-3.96993 -1.17744,-12.13322 -0.9946,-29.83998 0.23415,-22.67482 -0.43835,-31.46785 -2.50463,-32.74799 -0.316,-0.19577 -0.59093,3.92838 -0.61096,9.16477 -0.0201,5.2364 -0.16512,16.69259 -0.32241,25.45822 -0.28188,15.70979 1.10203,27.60134 3.79855,32.63984 1.6346,3.05427 1.91881,0.95878 0.63405,-4.67486 z m -56.08053,-5.08713 c 0.56884,-2.1125 2.21112,-6.01619 3.64952,-8.67488 1.4384,-2.65868 2.93165,-5.8873 3.31834,-7.17472 1.15796,-3.85523 10.71823,-22.48022 13.41358,-26.13188 1.3788,-1.868 3.99606,-4.87293 5.81612,-6.67762 3.73254,-3.701 12.21546,-14.84154 12.21546,-16.04243 0,-1.53603 -5.21112,1.20665 -8.7664,4.61387 -3.61864,3.46795 -12.7961,16.23666 -12.7961,17.80337 0,0.45897 -1.6875,3.44539 -3.75,6.63648 -2.0625,3.19108 -3.75,6.13066 -3.75,6.53239 0,0.40173 -1.1103,3.0242 -2.46734,5.82774 -4.3977,9.08528 -10.21909,27.12858 -8.75262,27.12858 0.45935,0 1.3006,-1.7284 1.86944,-3.8409 z M 43.021093,562.55301 c 1.964268,-1.0021 5.520001,-3.3094 7.901628,-5.12733 3.797946,-2.89904 14.398966,-8.72381 19.858529,-10.91134 1.03125,-0.4132 8.835937,-2.94533 17.34375,-5.62696 24.75694,-7.80327 29.30821,-9.39807 33.28125,-11.662 2.0625,-1.17526 6.28125,-3.49274 9.375,-5.14995 3.09375,-1.65721 6.89062,-3.95116 8.4375,-5.09766 1.54687,-1.1465 3.44693,-2.31681 4.22236,-2.60068 0.77541,-0.28387 3.72854,-2.40379 6.5625,-4.71092 2.83395,-2.30714 8.10576,-6.12364 11.71514,-8.48112 3.60937,-2.35748 8.27199,-5.90183 10.36138,-7.87631 2.08938,-1.9745 5.25344,-4.86027 7.03125,-6.41283 9.37976,-8.19138 20.64624,-27.46354 23.56059,-40.30216 0.46818,-2.0625 1.20092,-5.35248 1.62831,-7.31107 0.90885,-4.16496 -0.86399,-14.83723 -3.25126,-19.57215 -2.0305,-4.02731 -6.85702,-9.15883 -9.63286,-10.24159 -3.46344,-1.35097 -2.04228,-3.6424 3.45786,-5.57529 3.72542,-1.30921 7.13001,-1.70834 13.125,-1.53867 7.45547,0.211 8.80715,0.56952 17.11593,4.53977 11.30159,5.40034 19.18771,10.72152 24.0119,16.2021 3.65112,4.14789 3.77518,4.51968 4.94259,14.81329 0.6586,5.80724 1.59919,11.6133 2.09018,12.90236 0.76811,2.01659 1.90104,24.05068 2.06892,40.23814 l 0.0527,5.08188 -4.21877,2.11084 c -2.32032,1.16096 -6.75001,2.74743 -9.84375,3.52547 -13.07569,3.28841 -48.21643,16.97596 -49.68539,19.35279 -0.59733,0.9665 13.85632,-3.65257 29.99791,-9.58667 16.11583,-5.92464 19.97306,-7.26651 21.76789,-7.5727 2.11385,-0.36061 7.7626,-3.32757 9.34165,-4.90662 1.46818,-1.46817 4.98421,-0.70281 4.98421,1.08496 0,0.84348 1.0869,1.29691 3.10875,1.29691 2.41033,0 3.81265,0.78983 6.2419,3.51562 3.0632,3.43714 3.11874,3.45711 2.48757,0.89439 -0.9964,-4.04563 0.093,-4.53844 3.38521,-1.53143 3.73389,3.41039 5.9837,3.73836 4.36992,0.63704 -0.60369,-1.16015 -1.88415,-2.86409 -2.84548,-3.78652 -2.01455,-1.93303 -2.27263,-3.48548 -0.57599,-3.46486 1.62046,0.0197 7.93698,8.82735 8.64612,12.056 0.31941,1.45429 2.70946,5.13421 5.3112,8.17759 2.60175,3.04338 6.21611,8.69748 8.03193,12.56467 6.313,13.44493 8.24855,16.99176 10.35007,18.96603 2.49397,2.34296 2.74702,0.94512 0.5991,-3.30946 -3.56703,-7.06555 -11.35666,-20.19501 -14.27895,-24.06724 -1.73996,-2.30555 -4.16001,-6.31336 -5.37787,-8.90625 -4.31663,-9.19022 -7.94044,-15.06231 -11.00908,-17.83933 l -3.10784,-2.8125 0.68834,-7.96875 c 1.65149,-19.11898 2.90729,-30.72937 3.70113,-34.21875 0.46922,-2.0625 0.81451,-5.64844 0.7673,-7.96875 -0.094,-4.61817 -0.1337,-4.49534 -1.74399,5.39062 -0.60892,3.73829 -1.53987,6.79688 -2.06877,6.79688 -0.5557,0 -0.73245,-1.08833 -0.41868,-2.57813 0.29863,-1.41796 1.00275,-6.375 1.56473,-11.01562 0.56197,-4.64063 1.4215,-10.47359 1.91007,-12.96215 0.48857,-2.48855 0.9015,-5.86355 0.91763,-7.5 0.0533,-5.41186 7.15279,-17.32776 12.60833,-21.16208 1.5571,-1.09439 4.94048,-3.90407 7.5186,-6.24374 7.88132,-7.15237 12.27613,-9.32503 18.26514,-9.02971 7.44468,0.3671 17.9443,3.43774 22.6774,6.63206 2.2462,1.51595 8.71865,5.08386 14.38323,7.92868 25.08017,12.59563 44.81162,13.2972 74.51798,2.64956 13.07013,-4.68473 21.54326,-9.5762 27.87821,-16.09387 4.9674,-5.11068 16.50844,-20.94384 20.47332,-28.08735 2.60275,-4.6894 4.64209,-7.92773 9.46997,-15.03765 0.87531,-1.28906 2.64202,-3.49951 3.92602,-4.9121 1.284,-1.41258 2.13657,-2.76632 1.8946,-3.00828 -0.24196,-0.24195 -2.74245,0.63472 -5.55664,1.94817 -7.35055,3.43068 -26.691,11.08525 -33.00735,13.06367 -2.96485,0.92865 -5.39159,1.92781 -5.39277,2.22037 -9.3e-4,0.29256 -1.23302,0.57513 -2.73744,0.62795 -1.50442,0.0528 -7.93704,1.80014 -14.29474,3.88294 -14.87153,4.87199 -21.45164,6.27951 -50.93443,10.89521 -24.82935,3.88717 -25.43698,4.00098 -37.5,7.02327 -7.75444,1.94282 -14.08039,4.05793 -15.05676,5.03432 -0.30829,0.30829 1.05492,0.1856 3.02937,-0.27264 5.43258,-1.2608 7.95013,-0.96166 4.05864,0.48227 l -3.28125,1.21751 3.28125,0.53622 c 1.80469,0.29492 6.02344,0.77059 9.375,1.05705 3.35156,0.28646 9.04688,0.92794 12.65625,1.42553 3.60938,0.49758 11.41406,0.98036 17.34375,1.07285 l 10.78125,0.16816 -7.03125,0.69589 c -3.86719,0.38274 -8.71875,0.51406 -10.78125,0.29185 -2.0625,-0.22222 -6.28125,-0.57824 -9.375,-0.79116 -3.09375,-0.21291 -10.05469,-0.77154 -15.46875,-1.2414 -10.1498,-0.88083 -13.23031,-0.74158 -6.89267,0.31157 1.98628,0.33007 4.66611,0.98861 5.95517,1.46343 4.78107,1.76108 28.97327,7.4405 36.15993,8.48898 4.08861,0.59649 14.26566,1.13012 22.61569,1.18583 10.12146,0.0675 14.86927,0.41378 14.24405,1.03879 -1.46494,1.46448 -28.18799,0.82057 -38.33414,-0.92368 -10.14398,-1.74388 -29.67597,-6.5006 -34.93888,-8.50883 -1.94401,-0.7418 -4.8194,-1.34874 -6.38974,-1.34874 -1.57034,0 -3.64609,-0.4233 -4.61279,-0.94066 -0.9667,-0.51736 -4.10302,-0.99472 -6.96962,-1.06081 -3.72669,-0.0859 -5.21198,-0.48576 -5.21198,-1.40309 0,-0.70562 0.49219,-1.28294 1.09375,-1.28294 0.60156,0 0.86634,-0.22741 0.5884,-0.50536 -0.27795,-0.27794 -2.29628,0.11167 -4.48517,0.8658 -2.18891,0.75414 -4.56306,1.14735 -5.2759,0.87381 -0.71284,-0.27355 -1.29608,-0.0743 -1.29608,0.44272 0,0.51703 -2.10938,2.29365 -4.6875,3.94803 -2.57813,1.65438 -4.6875,3.30817 -4.6875,3.67509 0,0.36693 -1.70885,1.62757 -3.79743,2.80142 -6.033,3.39073 -14.38277,12.18086 -16.11132,16.96099 -5.25164,14.52293 -9.15375,26.27337 -9.15375,27.56477 0,2.01821 -2.71244,1.91183 -3.49873,-0.13721 -1.13938,-2.96919 -12.57478,-17.14514 -15.91746,-19.73215 -1.80446,-1.39654 -5.02947,-3.97784 -7.1667,-5.73622 -5.78652,-4.76082 -17.8443,-10.06108 -25.55867,-11.23488 -8.24999,-1.25529 -18.87358,-0.0785 -28.93222,3.20503 -3.91003,1.27636 -8.35546,2.32066 -9.87874,2.32066 -1.52327,0 -6.46726,1.22758 -10.98666,2.72796 -4.51938,1.50037 -9.90457,3.01401 -11.96707,3.36364 -2.0625,0.34963 -5.13648,1.25852 -6.83107,2.01975 -1.69458,0.76124 -5.49146,2.00352 -8.4375,2.76064 -17.89696,4.5994 -43.38039,20.0504 -49.505743,30.0161 -2.46286,4.00698 -3.676173,5.14486 -2.885032,2.70566 0.894146,-2.75678 -9.18179,8.52498 -12.978128,14.53125 -3.054157,4.83205 -5.476528,9.57848 -10.04767,19.6875 -4.597176,10.16661 -5.408607,12.54425 -5.408607,15.84822 0,3.94227 -2.567012,12.27678 -3.781222,12.27678 -0.435858,0 -0.137816,-1.9213 0.662316,-4.26956 0.800132,-2.34826 1.280212,-4.44414 1.066844,-4.6575 -0.213368,-0.21337 -1.785424,3.5009 -3.493457,8.25394 -4.214679,11.72839 -5.584269,14.78945 -14.195231,31.72657 -7.061905,13.89024 -9.866243,21.1859 -5.321953,13.84538 3.865004,-6.24324 7.772463,-11.38051 23.656453,-31.10194 10.277056,-12.75991 14.943332,-19.75302 24.845304,-37.23439 2.190492,-3.86719 5.406565,-9.03613 7.146829,-11.48654 1.740261,-2.45042 3.164117,-4.68578 3.164117,-4.96747 0,-1.03484 12.49172,-17.90112 16.45528,-22.21787 4.41907,-4.81283 4.31199,-5.20032 -0.84193,-3.04687 -1.85109,0.77344 -3.88543,1.40625 -4.52074,1.40625 -2.17085,0 0.55831,-1.61856 6.25114,-3.70732 3.63474,-1.33361 6.98752,-3.44776 9.47585,-5.97514 5.30354,-5.38679 16.92078,-13.30764 24.51259,-16.71313 3.47823,-1.56025 11.57881,-5.40011 18.00129,-8.53301 11.4702,-5.5952 18.63178,-7.47332 21.36998,-5.60422 3.23639,2.20915 3.88259,30.55318 0.95614,41.93907 -1.74749,6.79897 -7.03504,18.28125 -8.41842,18.28125 -0.43413,0 -0.19701,-1.16016 0.52693,-2.57813 3.00406,-5.88397 5.09501,-11.22369 5.68465,-14.51711 0.5547,-3.09825 0.43338,-3.43184 -1.05356,-2.89675 -1.39114,0.50061 -1.32083,0.20909 0.4084,-1.69334 1.67551,-1.84333 2.21053,-3.88102 2.70374,-10.29752 0.66943,-8.70905 -0.27855,-22.68531 -1.488,-21.93783 -0.41422,0.256 -1.04163,1.61497 -1.39426,3.01992 -0.35262,1.40496 -1.52579,4.46754 -2.60703,6.80574 -1.08126,2.3382 -2.29165,5.93877 -2.68976,8.00127 -2.04511,10.59516 -3.09885,13.62441 -7.93955,22.82457 -5.28271,10.04022 -12.22304,19.90129 -18.90646,26.86293 -7.53134,7.84488 -20.61264,19.31746 -26.01753,22.81794 -3.09375,2.00368 -6.81383,4.68834 -8.26685,5.96591 -1.45301,1.27757 -4.61707,3.39241 -7.03125,4.69964 -2.41417,1.30723 -9.4519,5.25295 -15.6394,8.76825 -6.1875,3.5153 -14.024062,7.89206 -17.414582,9.72611 -7.153795,3.86976 -10.184622,5.84492 -15.494473,10.09764 -2.115605,1.69442 -4.2509,3.08076 -4.745098,3.08076 -0.4942,0 -1.756061,0.7989 -2.804139,1.77533 -1.048077,0.97643 -3.131532,2.42457 -4.629901,3.21807 -2.942951,1.55852 -13.47506,10.9441 -12.281025,10.9441 0.39884,0 2.332293,-0.8199 4.296561,-1.82199 z M 93.75,534.32228 c 0,-0.54462 2.003906,-1.84482 4.453125,-2.88934 6.782055,-2.89235 10.755875,-4.6799 13.593755,-6.11492 1.62391,-0.82117 2.57812,-0.93545 2.57812,-0.30878 0,0.54719 -2.00391,1.84879 -4.45312,2.89244 -2.44922,1.04365 -6.9463,3.13803 -9.993492,4.65419 C 93.633534,535.6879 93.75,535.6546 93.75,534.32228 Z m 31.875,-19.6222 c 0,-0.52254 0.40557,-0.95008 0.90128,-0.95008 0.49571,0 4.30888,-2.32031 8.47372,-5.15625 4.16484,-2.83594 7.8036,-5.15625 8.08613,-5.15625 1.64915,0 15.08785,-10.41479 21.67949,-16.80128 4.25391,-4.12152 7.73438,-7.0306 7.73438,-6.46463 0,0.56597 -3.16406,4.14219 -7.03125,7.94715 -3.86719,3.80497 -7.03125,7.21212 -7.03125,7.57147 0,1.57421 -3.1405,8.68479 -3.83578,8.68479 -0.4227,0 -0.16855,-1.70057 0.56478,-3.77904 0.96799,-2.74361 1.02082,-3.57844 0.19278,-3.04688 -9.19901,5.90534 -13.25691,8.57023 -17.73871,11.64932 -6.15987,4.23195 -11.99557,6.90846 -11.99557,5.50168 z m 139.6875,-18.65193 c 0,-1.03125 0.42187,-2.13573 0.9375,-2.4544 0.51562,-0.31867 0.9375,0.26435 0.9375,1.2956 0,1.03125 -0.42188,2.13573 -0.9375,2.4544 -0.51563,0.31867 -0.9375,-0.26435 -0.9375,-1.2956 z m -2.10938,-10.30596 c -0.38671,-1.74024 -0.66075,-5.32617 -0.60895,-7.96875 l 0.0942,-4.80469 0.88133,3.75 c 0.48473,2.0625 0.75876,5.64844 0.60895,7.96875 l -0.27237,4.21875 -0.70312,-3.16406 z m 9.30509,-17.22657 c 0.47704,-19.19244 1.06945,-24.23942 2.91751,-24.85544 0.86535,-0.28845 0.92247,0.21895 0.22975,2.04092 -0.50705,1.33364 -1.20934,11.07304 -1.56063,21.64311 -0.3513,10.57006 -0.95293,19.21829 -1.33697,19.21829 -0.38403,0 -0.49638,-8.12109 -0.24966,-18.04688 z m -97.47385,7.3524 c 0.92641,-1.24134 1.82376,-1.87791 1.9941,-1.41462 0.17034,0.4633 -0.32687,1.47894 -1.10491,2.25698 -2.19865,2.19864 -2.76108,1.66584 -0.88919,-0.84236 z m 93.39827,-5.71177 c 0.004,-3.60938 0.17361,-4.97106 0.37656,-3.02597 0.20294,1.9451 0.19954,4.89822 -0.007,6.5625 -0.20711,1.66429 -0.37316,0.0728 -0.36899,-3.53653 z m -7.66543,-6.79688 c -0.0853,-8.88959 -1.25539,-19.22245 -2.61436,-23.08662 -1.5951,-4.5356 -1.59126,-4.82494 0.046,-3.46611 1.93137,1.6029 3.20714,8.43484 3.90797,20.92774 0.40632,7.24307 0.2916,11.01562 -0.33499,11.01562 -0.5291,0 -0.97594,-2.39754 -1.00466,-5.39062 z m 7.20816,-2.10937 c -0.34011,-1.28906 -0.66278,-5.29688 -0.71704,-8.90625 -0.0543,-3.60938 -0.33175,-7.30078 -0.61666,-8.20313 -0.28491,-0.90234 -0.10129,-1.64062 0.40805,-1.64062 1.13686,0 2.26833,10.02923 1.85088,16.40625 -0.23583,3.60283 -0.44993,4.14517 -0.92523,2.34375 z M 429.375,397.5 c 0,-0.51563 1.07959,-0.9375 2.39908,-0.9375 1.36065,0 2.14828,0.40579 1.81967,0.9375 -0.31867,0.51562 -1.39826,0.9375 -2.39908,0.9375 -1.00082,0 -1.81967,-0.42188 -1.81967,-0.9375 z m -35.80078,-10.95292 c 0.67675,-0.27081 1.48535,-0.23751 1.79688,0.074 0.31152,0.31152 -0.2422,0.5331 -1.23047,0.4924 -1.09214,-0.045 -1.31428,-0.26713 -0.56641,-0.5664 z m 20.89873,-1.61715 c 0.31168,-0.32701 3.89762,-1.19921 7.96875,-1.93819 17.84216,-3.23871 26.93349,-5.64053 28.50139,-7.52972 0.63882,-0.76974 2.15169,-1.39952 3.36194,-1.39952 1.21024,0 3.70266,-0.84375 5.53872,-1.875 3.7098,-2.08367 4.60025,-2.31323 3.77151,-0.9723 -1.48922,2.40961 -15.91659,7.89213 -27.20901,10.33965 -13.08186,2.83537 -22.85179,4.33875 -21.9333,3.37508 z m -69.0042,-6.18666 c 2.57812,-0.40624 9.44135,-0.76175 15.25161,-0.79001 5.81026,-0.0283 10.87752,-0.2451 11.26058,-0.48185 0.38305,-0.23674 7.23077,-0.68928 15.21713,-1.00563 16.15123,-0.63978 21.76325,-1.08662 31.39568,-2.4998 8.22231,-1.20631 28.76458,-6.76089 34.8161,-9.41419 4.82832,-2.11699 17.69317,-9.4465 24.85585,-14.16116 1.37087,-0.90235 3.05424,-1.64063 3.74082,-1.64063 1.612,0 -5.90996,5.1596 -16.59214,11.38116 -14.78329,8.61016 -35.41141,14.48085 -58.53938,16.66009 -17.69272,1.66711 -70.18872,3.33588 -61.40625,1.95202 z M 50.039115,551.63496 c 2.642549,-1.75546 6.770811,-4.56413 9.173915,-6.24149 11.915552,-8.31697 14.821549,-10.18204 18.660215,-11.97617 2.286903,-1.06886 5.42363,-2.74726 6.970505,-3.7298 1.546875,-0.98254 4.5,-2.6353 6.5625,-3.67283 2.0625,-1.03751 6.28125,-3.3662 9.375,-5.17487 3.09375,-1.80868 6.94109,-3.91553 8.54963,-4.68191 1.60856,-0.76636 4.77262,-2.80189 7.03125,-4.52338 2.25865,-1.72147 6.84881,-4.98195 10.20037,-7.24549 4.93412,-3.33235 21.95359,-18.12314 25.36707,-22.04527 8.90864,-10.23615 9.62266,-11.25639 8.08511,-11.55249 -0.87579,-0.16867 -3.09376,0.18885 -4.92883,0.79447 -1.83506,0.60563 -3.55528,0.88234 -3.82271,0.61492 -0.71819,-0.7182 2.48577,-2.18174 6.26683,-2.86263 1.82117,-0.32796 4.63822,-1.80832 6.26011,-3.28968 4.3385,-3.96261 14.32991,-26.01418 14.33718,-31.64291 9.4e-4,-0.96205 1.84945,-6.70621 4.10714,-12.7648 4.18492,-11.23041 4.26246,-13.84457 0.22073,-7.44207 -1.24074,1.96546 -6.77494,7.97718 -12.29822,13.35938 -5.52329,5.38219 -15.37672,15.02043 -21.8965,21.41828 -6.51979,6.39787 -15.65104,14.67338 -20.29166,18.39002 -11.22846,8.99281 -20.30898,18.64492 -19.50697,20.73489 0.39347,1.0254 0.24236,1.35618 -0.4298,0.94077 -0.67098,-0.4147 -1.26077,0.85383 -1.67201,3.59621 -0.34945,2.33029 -1.01432,4.23689 -1.47749,4.23689 -0.46318,0 -0.56952,-1.70488 -0.23631,-3.78862 l 0.60582,-3.78862 -8.988721,9.648 c -4.943795,5.30639 -12.624436,13.44486 -17.06809,18.08549 -14.914088,15.57517 -20.569701,21.68682 -26.101234,28.20586 -3.024894,3.5649 -6.927238,7.67251 -8.671875,9.12801 -1.744639,1.45552 -3.17207,3.1171 -3.17207,3.69241 0,0.57531 0.896508,0.0837 1.99224,-1.0924 1.095732,-1.17613 4.154326,-3.5747 6.796875,-5.33017 z m 0.415163,-25.69746 c 1.030282,-2.32031 2.789045,-6.96094 3.908363,-10.3125 1.119318,-3.35156 2.423752,-6.49453 2.898741,-6.98438 0.47499,-0.48984 0.863618,-1.65572 0.863618,-2.59084 0,-0.93512 0.40607,-2.43278 0.902377,-3.32813 0.496306,-0.89535 3.538047,-7.9235 6.759422,-15.61813 3.221376,-7.69461 6.71765,-15.07743 7.769499,-16.40625 1.051849,-1.32881 2.714311,-3.89258 3.69436,-5.69727 5.843512,-10.76039 23.080432,-26.98745 38.541102,-36.2831 8.88809,-5.34391 37.09793,-16.13628 42.47621,-16.25031 0.86668,-0.0184 5.12634,-1.21632 9.46589,-2.6621 l 7.89012,-2.62868 -10.23387,-0.60963 c -5.62862,-0.3353 -12.97605,-0.36642 -16.32761,-0.0692 -8.05187,0.71411 -23.51244,4.61737 -29.98052,7.56906 -11.5149,5.25477 -14.69288,6.8946 -17.77974,9.17428 -3.577202,2.6418 -5.699731,3.21072 -3.400456,0.91144 0.810272,-0.81026 1.473216,-1.59926 1.473216,-1.75331 0,-0.15406 -2.100159,-0.17913 -4.667016,-0.0557 -6.120428,0.29429 -5.224246,-1.02629 1.134085,-1.67112 7.304691,-0.74081 8.410011,-1.10262 18.828001,-6.16293 14.56509,-7.07468 26.30302,-9.69028 44.03107,-9.81157 9.06212,-0.062 12.89943,-0.34688 10.51761,-0.78085 -10.63699,-1.93802 -36.45104,-0.0302 -52.10165,3.85075 -11.03051,2.73525 -26.197477,10.31957 -32.436204,16.21989 -2.757821,2.60824 -5.233387,4.52307 -5.501257,4.25521 -1.134706,-1.13471 11.551941,-11.39964 18.178199,-14.70823 9.858892,-4.92267 17.350662,-7.22583 31.079662,-9.55468 16.62505,-2.8201 34.88751,-2.58828 52.26563,0.66346 1.67578,0.31356 3.03042,0.20583 3.01031,-0.23941 -0.0373,-0.82671 -7.86124,-6.90328 -8.88833,-6.90328 -0.31143,0 -2.85243,-1.08156 -5.64671,-2.40346 -7.73111,-3.6574 -19.71925,-4.90461 -28.60353,-2.9758 -27.71654,6.01732 -44.344273,12.96064 -54.866441,22.91083 C 82.818709,417.7642 79.859966,420 79.133446,420 c -0.72652,0 -1.320946,0.64641 -1.320946,1.43646 0,0.79006 -0.810987,1.73927 -1.802194,2.10937 -4.498021,1.6795 -15.822335,20.03608 -22.827401,37.00295 -5.947723,14.40589 -7.825217,20.5557 -8.657336,28.35747 -0.329973,3.09375 -1.593734,11.53125 -2.80836,18.75 -1.214625,7.21875 -2.482782,16.71094 -2.818128,21.09375 -0.335346,4.38281 -0.969278,9.44531 -1.408737,11.25 -0.439461,1.80469 -1.092749,6.23437 -1.451753,9.84375 l -0.652732,6.5625 6.59759,-13.125 c 3.628676,-7.21875 7.440549,-15.02344 8.470829,-17.34375 z m 4.36767,-46.37069 c 0.344341,-1.52732 1.879471,-4.63413 3.411402,-6.90401 1.531929,-2.2699 4.042059,-6.50465 5.578066,-9.41056 5.428416,-10.26984 18.873267,-27.31474 21.545593,-27.31474 0.616058,0 -1.58401,2.86651 -4.889039,6.37001 -3.30503,3.50351 -6.791955,8.03866 -7.748724,10.07813 -0.956768,2.03946 -2.316474,4.04823 -3.021569,4.46392 -0.705094,0.4157 -2.378959,2.94695 -3.7197,5.625 -1.340741,2.67806 -3.382116,6.13481 -4.536389,7.68169 -1.154273,1.54687 -3.256761,4.92187 -4.672196,7.5 -1.958018,3.5664 -2.423782,4.02335 -1.947444,1.91056 z M 69.375,460.8919 c 0,-1.28906 0.421875,-2.60448 0.9375,-2.92315 0.529508,-0.32725 0.9375,0.44057 0.9375,1.76435 0,1.28906 -0.421875,2.60448 -0.9375,2.92315 -0.529508,0.32725 -0.9375,-0.44057 -0.9375,-1.76435 z m -6.297274,70.90497 C 70.371996,523.93359 76.655959,517.5 77.04209,517.5 c 0.38613,0 2.859827,-2.63672 5.497105,-5.85938 8.875352,-10.84535 36.606605,-39.32209 43.390185,-44.55661 2.48772,-1.91965 10.71428,-9.45397 18.28125,-16.74296 7.56696,-7.28898 18.33136,-17.62016 23.92087,-22.95818 5.58952,-5.33802 11.34795,-11.46162 12.79653,-13.608 l 2.63377,-3.90251 -2.48402,0.75731 c -5.11089,1.55817 -10.79555,3.80022 -11.84621,4.67219 -0.5976,0.49596 -7.11029,3.65016 -14.47263,7.00929 -16.35295,7.4612 -22.48288,11.62708 -33.15587,22.5326 -7.71239,7.88043 -19.52686,22.59796 -22.268354,27.74017 -0.662635,1.2429 -3.381928,5.63483 -6.042865,9.75983 -2.660937,4.125 -7.261142,11.50781 -10.222675,16.40625 -12.233376,20.23425 -13.149712,21.60065 -20.524525,30.6053 -11.865658,14.48797 -19.531491,24.39708 -14.433816,18.65763 0.937522,-1.05555 7.672623,-8.35277 14.966891,-16.21606 z M 317.8125,520.85395 c 0,-0.21782 -1.58203,-0.91475 -3.51563,-1.54873 -1.93359,-0.63398 -7.07858,-3.40888 -11.43331,-6.16645 -4.81552,-3.04936 -8.96949,-5.01377 -10.6022,-5.01377 -3.7524,0 -2.42394,1.50942 1.94306,2.20773 1.99154,0.31847 5.20385,1.65318 7.13845,2.96603 8.72866,5.92344 16.46963,9.47449 16.46963,7.55519 z m -49.08445,-94.52583 c -0.5735,-6.39441 -4.02551,-19.99811 -6.04438,-23.8197 -2.22924,-4.21982 -6.74576,-25.65457 -6.74601,-32.01564 -8e-5,-2.22116 0.82752,-8.12741 1.83913,-13.125 2.89125,-14.28345 3.84242,-24.95689 4.7364,-53.14903 0.55062,-17.36428 1.31282,-28.31275 2.25167,-32.34375 1.67075,-7.17346 1.77873,-8.46747 0.54764,-6.5625 -0.49984,0.77344 -0.91525,2.35547 -0.92315,3.51562 -0.007,1.16016 -0.25302,2.10938 -0.54473,2.10938 -1.74259,0 -4.03022,-2.17926 -4.57778,-4.3609 -0.34998,-1.39446 -1.83279,-5.09699 -3.29513,-8.22786 -8.69789,-18.6222 -9.57406,-20.85254 -17.8885,-45.53624 -1.64999,-4.89844 -4.18573,-11.64844 -5.635,-15 -6.1839,-14.30092 -8.93965,-26.39052 -12.60814,-55.3125 -2.68816,-21.19315 -3.58085,-26.33826 -4.35741,-25.11429 -1.8293,2.88325 -0.57554,15.54639 3.83241,38.70804 0.9813,5.15625 2.50105,13.38281 3.37722,18.28125 1.6761,9.37072 3.72703,16.70903 5.76432,20.625 0.67063,1.28906 1.22194,2.98816 1.22511,3.77577 0.003,0.78762 0.70294,2.42737 1.55503,3.6439 0.85208,1.21651 1.6808,3.10335 1.84158,4.19296 0.39286,2.66232 3.30732,10.8449 6.71613,18.85612 1.53581,3.60937 4.15346,10.78125 5.817,15.9375 1.66354,5.15625 3.40182,10.10755 3.86283,11.0029 0.46102,0.89535 0.83821,2.17287 0.83821,2.83895 0,0.66607 1.3967,4.15227 3.10376,7.7471 l 3.10377,6.53605 -0.18565,22.14876 c -0.10211,12.18181 -0.43198,24.62713 -0.73306,27.65625 -0.30107,3.02912 -0.77728,8.24968 -1.05824,11.60124 -0.28095,3.35156 -1.13417,13.26562 -1.89604,22.03125 -2.6081,30.00744 -2.60519,29.06333 -0.13149,42.65625 3.07696,16.90778 5.30589,23.98434 8.83346,28.045 6.08329,7.0026 6.77599,7.88801 6.77599,8.66095 0,0.43672 0.27284,0.79405 0.60632,0.79405 0.33347,0 0.332,-3.05859 -0.003,-6.79688 z m 6.66552,-4.45312 c 0.72961,-1.80469 1.63237,-3.91406 2.00615,-4.6875 0.37377,-0.77344 2.29086,-6.46875 4.26019,-12.65625 1.96933,-6.1875 4.55277,-13.78125 5.74098,-16.875 4.14474,-10.79173 11.46112,-33.93718 14.52106,-45.9375 1.21993,-4.78427 5.94455,-12.87548 9.28177,-15.89561 3.77647,-3.41767 11.43396,-4.3066 23.88193,-2.77239 6.22633,0.76739 12.37529,1.58599 13.66435,1.81909 7.70992,1.39418 13.31591,1.41496 19.7258,0.0731 17.01225,-3.56137 39.08729,-11.1071 53.45364,-18.27165 8.64219,-4.30987 10.2501,-5.56952 19.52159,-15.2934 16.37726,-17.17634 18.16652,-19.33986 32.79854,-39.65916 4.11464,-5.71395 8.07115,-13.47819 9.87898,-19.38652 0.93041,-3.04071 4.19378,-9.04236 7.60925,-13.99412 3.2891,-4.76855 5.76562,-9.01727 5.50336,-9.4416 -0.26225,-0.42434 -3.29958,-0.77908 -6.74962,-0.78833 -5.84759,-0.0157 -16.10221,-1.34115 -28.30404,-3.65847 -10.00852,-1.90078 -42.15154,-5.45182 -56.74822,-6.26934 -10.92794,-0.61203 -21.82489,0.41742 -25.59598,2.4181 -0.85912,0.45579 -3.88236,1.53162 -6.7183,2.39072 -11.13127,3.37206 -30.0618,14.66281 -37.81395,22.55341 -6.17781,6.28813 -14.14594,17.03253 -15.58852,21.0199 -0.65292,1.80469 -1.96487,4.96875 -2.91547,7.03125 -6.46201,14.02058 -8.20904,22.96023 -8.57971,43.90276 l -0.26267,14.84026 1.73714,-5.93401 c 4.42466,-15.11445 9.57345,-30.77096 10.1204,-30.7742 0.83631,-0.005 -0.77538,6.88883 -3.12768,13.37827 -1.07918,2.97719 -1.72952,5.6457 -1.44519,5.93002 0.28432,0.28432 0.80452,-0.38911 1.156,-1.4965 0.35147,-1.1074 1.17303,-1.80854 1.82568,-1.5581 0.66281,0.25435 1.8612,-0.8538 2.71475,-2.51032 2.45554,-4.76562 11.88833,-17.97234 19.83547,-27.77138 3.51038,-4.32841 9.70699,-10.06907 14.20851,-13.16305 1.12529,-0.77344 4.81457,-3.39061 8.19839,-5.81593 7.97602,-5.71676 22.15108,-12.78447 33.37435,-16.64054 4.89844,-1.68299 9.56075,-3.40598 10.36068,-3.82885 1.96095,-1.03662 25.56799,-7.26099 36.04557,-9.504 4.64063,-0.99345 14.34375,-2.19761 21.5625,-2.67591 16.3273,-1.08183 16.40625,-1.08236 16.40625,-0.1113 0,0.43915 -6.43359,1.09133 -14.29687,1.44929 -12.00327,0.54641 -16.70329,1.2377 -29.29688,4.30899 -14.20213,3.4636 -25.9553,6.79638 -33.28125,9.4374 -1.80469,0.65059 -6.23437,2.23276 -9.84375,3.51594 -8.52107,3.02933 -23.3093,10.1308 -26.53442,12.7421 -1.39044,1.12582 -3.71608,2.7951 -5.16808,3.70952 -2.85604,1.79865 -2.9534,1.87382 -11.68641,9.02264 -8.424,6.89589 -27.25132,31.49125 -31.24814,40.82151 -0.65684,1.53334 -1.71497,3.4207 -2.35139,4.19414 -1.68588,2.04883 -6.91781,12.81178 -6.91781,14.23109 0,0.66619 0.94922,-0.17348 2.10938,-1.86593 15.42363,-22.50018 39.58303,-45.88573 58.80303,-56.91951 1.81849,-1.04395 6.25947,-3.62319 9.86884,-5.73162 7.16734,-4.18684 21.12041,-10.96902 24.84375,-12.07582 3.75575,-1.11643 7.28144,-4.01396 10.40068,-8.54763 1.59778,-2.32229 3.15204,-3.97537 3.45389,-3.67351 0.30187,0.30186 -0.7848,2.44089 -2.41479,4.75338 -1.63,2.31251 -2.80073,4.20455 -2.6016,4.20455 0.19912,0 3.24902,-1.30262 6.77755,-2.8947 8.00365,-3.61127 25.15909,-9.52303 36.88427,-12.71032 9.66033,-2.62599 12.73763,-3.34287 23.4375,-5.45991 3.86719,-0.76515 8.08594,-1.62301 9.375,-1.90636 2.32187,-0.51038 2.32406,-0.50487 0.23438,0.59006 -1.16016,0.60789 -2.10938,1.65993 -2.10938,2.33787 0,1.1975 -4.33957,4.70928 -15.05923,12.18662 -2.86852,2.0009 -7.60248,5.53161 -10.51991,7.84602 -4.83519,3.83578 -5.12891,4.27296 -3.32028,4.94202 1.09128,0.40368 1.74809,0.97004 1.45957,1.25854 -0.28851,0.28852 -1.29898,0.1233 -2.24548,-0.36714 -2.54431,-1.31836 -3.57825,-0.94747 -14.82065,5.31646 -5.65798,3.15245 -13.25173,6.82685 -16.875,8.16534 -6.00672,2.21897 -14.89111,5.85316 -30.02527,12.28195 -3.09375,1.31418 -7.10156,2.99528 -8.90625,3.73576 -3.19516,1.31102 -17.11578,8.3086 -30.56545,15.36455 -7.51613,3.9431 -14.09762,8.41731 -22.58165,15.35137 -3.19184,2.60871 -7.72092,6.15882 -10.06462,7.88912 -5.3482,3.94846 -11.44161,9.5093 -8.03828,7.33574 2.29331,-1.46465 5.99615,-3.32056 14.58018,-7.30781 2.34723,-1.09027 4.50232,-1.74767 4.78911,-1.46089 0.28679,0.28679 -3.50731,2.40407 -8.43131,4.70507 -4.92401,2.301 -10.44983,5.32552 -12.27961,6.72116 -2.36419,1.80326 -3.97675,2.3744 -5.57284,1.97381 -2.88795,-0.72483 -3.54673,0.21064 -6.19243,8.79317 -2.01678,6.54239 -6.93659,18.12504 -11.28703,26.57297 -1.02084,1.98232 -1.85607,3.98589 -1.85607,4.45238 0,0.46648 -1.6875,4.32716 -3.75,8.57927 -2.0625,4.25212 -3.75,8.16759 -3.75,8.70108 0,0.53348 -1.47656,4.47104 -3.28125,8.75012 -1.80469,4.27908 -3.28125,8.50611 -3.28125,9.39341 0,0.8873 -0.39233,2.01405 -0.87187,2.50389 -1.11588,1.13991 -3.58982,7.87468 -5.32065,14.48438 -1.25734,4.80149 -1.15827,9.74233 0.31897,15.90749 l 0.5544,2.31374 0.94309,-2.31374 c 0.51869,-1.27256 1.54003,-3.79031 2.26963,-5.595 z M 313.125,321.91797 c 0,-0.6304 6.24234,-3.17414 7.70426,-3.13946 0.67826,0.0161 0.45701,0.46174 -0.50776,1.02276 -2.12415,1.23525 -7.1965,2.72717 -7.1965,2.1167 z m 9.87305,-3.06447 c 1.04382,-0.99895 16.85195,-4.15518 28.56445,-5.70314 4.38281,-0.57924 10.5,-1.43304 13.59375,-1.8973 3.09375,-0.46427 7.52344,-1.09421 9.84375,-1.39986 10.44632,-1.37609 36.50709,-8.11147 43.82812,-11.32732 1.67579,-0.73611 4.48173,-1.97119 6.23544,-2.74463 6.54865,-2.88816 5.44467,-1.15698 -1.24837,1.95757 -11.23295,5.22719 -35.35845,11.80237 -49.75269,13.55966 -10.28922,1.25613 -19.16574,2.63404 -23.68283,3.67634 -2.18537,0.50426 -5.52137,0.92716 -7.41332,0.93976 -1.89195,0.0126 -5.89977,0.61707 -8.90625,1.34326 -8.51468,2.05663 -12.08131,2.5711 -11.06205,1.59566 z m 15.43945,-13.12887 c 0,-0.91973 7.49149,-3.23315 8.1942,-2.53043 0.28142,0.28142 -0.076,0.69538 -0.79439,0.91992 -0.71833,0.22454 -2.67715,0.84533 -4.35294,1.37955 -1.67578,0.53421 -3.04687,0.63814 -3.04687,0.23096 z m 9.82053,-2.87456 c 0.33144,-0.53628 1.35544,-0.97507 2.27554,-0.97507 0.92009,0 4.1253,-0.84375 7.12268,-1.875 6.26721,-2.15623 6.09375,-2.12532 6.09375,-1.08593 0,0.43398 -2.42578,1.46929 -5.39063,2.30067 -8.36271,2.34502 -10.78201,2.73669 -10.10134,1.63533 z m 16.42947,-4.64074 c 0,-0.48889 2.42578,-1.3793 5.39062,-1.97867 2.96485,-0.59937 8.34375,-2.05609 11.95313,-3.23714 3.60937,-1.18105 10.78125,-3.49556 15.9375,-5.14334 5.7396,-1.8342 10.03806,-3.78566 11.0849,-5.03245 1.06297,-1.266 1.87803,-1.63077 2.15432,-0.96413 0.24444,0.58979 1.37342,0.84881 2.50886,0.57559 1.56759,-0.37722 1.81445,-0.22739 1.02575,0.62255 -0.57126,0.61564 -5.42282,2.55182 -10.78125,4.30263 -8.40178,2.74521 -9.71185,3.44735 -9.51926,5.10196 0.12283,1.05527 -0.19357,1.91867 -0.70312,1.91867 -0.50955,0 -0.92645,-0.42188 -0.92645,-0.9375 0,-1.15868 -7.1934,-1.25454 -7.90365,-0.10534 -0.28286,0.45769 -3.78823,1.68318 -7.7897,2.72333 -11.08698,2.88195 -12.43165,3.11493 -12.43165,2.15384 z M 318.28125,288.75 c 0.31867,-0.51563 0.76545,-0.9375 0.99283,-0.9375 0.22738,0 0.41342,0.42187 0.41342,0.9375 0,0.51562 -0.44678,0.9375 -0.99283,0.9375 -0.54606,0 -0.73209,-0.42188 -0.41342,-0.9375 z m 119.53125,-0.99131 c 0,-1.02622 5.42853,-3.9216 6.59728,-3.51876 0.46485,0.16023 -0.82938,1.20549 -2.87605,2.32281 -2.04668,1.11732 -3.72123,1.65549 -3.72123,1.19595 z m -117.1875,-3.2586 c 0,-1.18917 4.85825,-9.95435 5.28232,-9.53028 0.506,0.50602 -4.07971,10.03019 -4.82937,10.03019 -0.24912,0 -0.45295,-0.22496 -0.45295,-0.49991 z m 91.40625,-6.06259 c 0.31867,-0.51563 0.76545,-0.9375 0.99283,-0.9375 0.22738,0 0.41342,0.42187 0.41342,0.9375 0,0.51562 -0.44678,0.9375 -0.99283,0.9375 -0.54606,0 -0.73209,-0.42188 -0.41342,-0.9375 z m 23.00223,-6.93064 c 0.75502,-0.71809 2.42746,-1.5945 3.71652,-1.94757 1.97793,-0.54174 1.86464,-0.33795 -0.72578,1.30564 -3.52369,2.23573 -4.99954,2.55251 -2.99074,0.64193 z m -105.27373,-3.17629 c 4.12355,-5.65619 9.94005,-12.38077 10.35229,-11.96853 0.53734,0.53734 -11.18657,15.51296 -12.14459,15.51296 -0.43544,0 0.37109,-1.59499 1.7923,-3.54443 z m -6.32245,-4.00245 c -10e-5,-0.74765 0.91167,-4.10156 2.02616,-7.45312 1.11449,-3.35156 2.1792,-6.68148 2.36601,-7.39981 0.18682,-0.71833 0.53689,-1.10884 0.77793,-0.86779 0.24105,0.24105 -0.24179,2.93816 -1.07298,5.99356 -0.83119,3.05541 -1.59336,6.30016 -1.69372,7.21055 -0.24163,2.19187 -2.40312,4.45519 -2.4034,2.51662 z m 131.2502,-4.4705 c 0,-1.13302 1.77862,-2.45399 2.42878,-1.80384 0.23597,0.23596 -0.21397,0.96268 -0.99987,1.61491 -0.89099,0.73946 -1.42891,0.81059 -1.42891,0.18893 z m 8.64955,-5.39543 c 0.89007,-0.93188 1.87542,-1.43722 2.18967,-1.12297 0.31425,0.31425 -0.41399,1.07671 -1.6183,1.69433 -2.0933,1.07355 -2.11845,1.04841 -0.57137,-0.57136 z m -133.8058,-0.39969 c 0.31867,-0.51563 0.76545,-0.9375 0.99283,-0.9375 0.22738,0 0.41342,0.42187 0.41342,0.9375 0,0.51562 -0.44678,0.9375 -0.99283,0.9375 -0.54606,0 -0.73209,-0.42188 -0.41342,-0.9375 z m 11.71875,0.40109 c 0,-2.22926 18.82338,-19.15109 21.30315,-19.15109 0.83507,0 -0.36092,1.24475 -2.65775,2.7661 -2.29682,1.52136 -7.26432,5.95105 -11.03886,9.84375 -6.646,6.85406 -7.60654,7.68007 -7.60654,6.54124 z m -9.375,-2.76334 c 0,-1.51222 7.02375,-9.84886 7.98654,-9.4794 0.64527,0.24762 2.07626,-0.18232 3.17998,-0.9554 1.10373,-0.77308 2.32336,-1.2686 2.7103,-1.10115 0.38693,0.16744 -2.57707,2.93187 -6.58665,6.14315 -4.0096,3.2113 -7.29017,5.63805 -7.29017,5.3928 z m 7.5,-7.4815 c 0.6727,-0.81055 0.76382,-1.40625 0.21509,-1.40625 -0.52359,0 -1.19482,0.63281 -1.49162,1.40625 -0.29679,0.77344 -0.39358,1.40625 -0.21509,1.40625 0.17849,0 0.84972,-0.63281 1.49162,-1.40625 z m 129.39381,6.53984 c 0.65223,-0.7859 1.37895,-1.23584 1.61491,-0.99987 0.65015,0.65015 -0.67082,2.42878 -1.80384,2.42878 -0.62166,0 -0.55053,-0.53792 0.18893,-1.42891 z M 381.5625,221.32087 c 0,-0.44427 0.63281,-1.0506 1.40625,-1.3474 0.77344,-0.29679 1.40625,-0.17613 1.40625,0.26816 0,0.44427 -0.63281,1.0506 -1.40625,1.3474 -0.77344,0.29679 -1.40625,0.17613 -1.40625,-0.26816 z M 375,213.3614 c 0,-0.63301 8.58037,-5.23782 9.72745,-5.22042 0.57959,0.008 -1.05558,1.26723 -3.6337,2.79652 -4.4531,2.64148 -6.09375,3.29408 -6.09375,2.4239 z m 24.89062,-1.37315 c 1.2138,-1.12332 7.93711,-3.22301 8.50426,-2.65587 0.25121,0.2512 -1.53972,1.137 -3.97982,1.96843 -5.08283,1.73189 -5.76499,1.83554 -4.52444,0.68744 z m 9.79688,-3.28516 c 0,-0.19767 0.84375,-0.58005 1.875,-0.84973 1.03125,-0.26968 1.875,-0.10794 1.875,0.35941 0,0.46735 -0.84375,0.84973 -1.875,0.84973 -1.03125,0 -1.875,-0.16174 -1.875,-0.35941 z m -22.75,-1.63192 c 0.63594,-0.64071 1.39241,-0.92876 1.68106,-0.64011 0.28864,0.28865 -0.23167,0.81286 -1.15625,1.16492 -1.33613,0.50876 -1.44381,0.40108 -0.52481,-0.52481 z m 28.375,0.11633 c 0.77344,-0.49984 2.03906,-0.90878 2.8125,-0.90878 1.25,0 1.25,0.10096 0,0.90878 -0.77344,0.49984 -2.03906,0.90878 -2.8125,0.90878 -1.25,0 -1.25,-0.10096 0,-0.90878 z m 9.19922,-2.51542 c 0.67675,-0.27081 1.48535,-0.23751 1.79688,0.074 0.31152,0.31153 -0.2422,0.5331 -1.23047,0.4924 -1.09214,-0.045 -1.31428,-0.26713 -0.56641,-0.5664 z m -170.84884,208.8991 c -0.81146,-1.56919 -1.47538,-3.27695 -1.47538,-3.79503 0,-1.75765 -5.96057,-13.64381 -11.42932,-22.79157 -2.99512,-5.01004 -5.44568,-9.33859 -5.44568,-9.61899 0,-0.2804 -1.38387,-2.5094 -3.07527,-4.95333 -1.69141,-2.44394 -5.94607,-8.97867 -9.45481,-14.52164 -6.09172,-9.62343 -8.09492,-11.76941 -8.09492,-8.67187 0,1.73029 -0.8048,1.78272 -2.73868,0.17842 -1.50169,-1.24576 -11.23242,-1.06966 -45.77695,0.82841 -8.76064,0.48136 -12.42187,0.3812 -12.42187,-0.3398 0,-0.66281 2.55506,-0.97061 7.26562,-0.87528 3.9961,0.0809 9.16407,-0.1447 11.48438,-0.50129 2.32031,-0.35659 10.72312,-0.93831 18.67292,-1.29273 l 14.45417,-0.64438 -10.23542,-3.50059 c -13.81759,-4.72572 -19.27887,-6.21671 -27.57917,-7.52938 -3.86719,-0.61158 -9.86128,-1.67738 -13.32022,-2.36842 -5.3146,-1.06179 -6.69447,-1.05529 -8.90625,0.042 -3.69671,1.83389 -6.92756,3.12711 -9.64853,3.86203 -3.48941,0.94249 -1.19644,-0.80564 3.75,-2.85894 6.01878,-2.49844 6.2859,-3.00478 1.96982,-3.73398 -2.10925,-0.35635 -4.07305,-1.03309 -4.36399,-1.50385 -0.69343,-1.122 1.43684,-1.08833 4.8324,0.0764 1.49491,0.51278 5.24927,1.32168 8.34302,1.79757 6.73217,1.03557 20.09797,3.5033 25.3125,4.67346 2.0625,0.46283 5.18654,1.16162 6.94231,1.55287 1.75577,0.39123 8.06626,2.52644 14.0233,4.74489 5.95705,2.21845 10.95421,3.91033 11.10481,3.75972 0.53776,-0.53776 -9.63957,-7.0785 -13.32042,-8.56073 -2.0625,-0.83054 -6.07031,-2.68633 -8.90625,-4.12398 -2.83594,-1.43764 -6.63281,-3.16586 -8.4375,-3.84049 -3.39516,-1.26918 -20.82016,-8.56158 -25.79533,-10.7954 -7.99867,-3.59136 -13.12305,-4.76251 -14.07796,-3.21742 -0.30243,0.48934 -1.89607,0.87863 -3.54142,0.86511 l -2.99154,-0.0246 3.54322,-1.61603 3.54322,-1.61605 -4.94947,-2.53608 c -5.50188,-2.81924 -21.0875,-9.18276 -22.49029,-9.18276 -0.49441,0 -9.40624,-3.64123 -19.804056,-8.09162 C 55.417427,277.77711 52.04279,276.43016 43.59375,274.0743 37.360902,272.33638 32.094233,271.61394 23.4375,271.30943 l -11.71875,-0.41221 3.81023,1.66077 c 14.682359,6.3996 36.417932,23.70869 65.536725,52.19006 5.119785,5.00771 17.10082,13.68945 18.89182,13.68945 0.397615,0 2.222185,1.03627 4.054585,2.30282 3.82686,2.64511 22.21511,9.18936 30.50158,10.8553 8.69285,1.74763 39.04102,1.48493 54.12085,-0.4685 8.32766,-1.07875 14.73812,-1.4295 18.2064,-0.99616 4.693,0.58635 5.79401,1.14937 8.92865,4.56581 7.78816,8.48829 20.19595,29.76804 25.27957,43.35521 1.0366,2.77056 2.27928,5.28124 2.76153,5.57928 0.48224,0.29804 0.87681,1.42654 0.87681,2.50776 0,1.77298 9.25023,11.48576 10.11509,10.62089 0.18461,-0.18462 -0.32826,-1.61954 -1.13971,-3.18873 z M 143.90625,347.35513 c -0.51563,-0.17014 -4.85501,-1.22189 -9.64308,-2.33724 -7.57755,-1.76514 -22.15776,-7.29085 -27.85692,-10.55742 -1.03125,-0.59107 -6.09375,-3.21252 -11.25,-5.82541 -5.15625,-2.61291 -10.418089,-5.48409 -11.692974,-6.3804 -2.249387,-1.58144 -2.25796,-1.62966 -0.289704,-1.62966 1.115549,0 2.288498,0.42106 2.606551,0.93568 0.318054,0.51462 2.958072,2.0615 5.866707,3.4375 2.908633,1.376 7.630342,3.81589 10.49267,5.42197 5.77423,3.23996 16.923,8.20417 16.923,7.5353 0,-0.23565 -2.53125,-1.70623 -5.625,-3.26795 -3.09375,-1.56172 -5.625,-3.24888 -5.625,-3.74925 0,-1.33613 10.99755,4.47812 12.48377,6.59999 1.52172,2.17257 6.41907,4.00005 18.81609,7.02137 5.09774,1.24237 9.49227,2.48253 9.76563,2.75588 0.52882,0.52881 -3.39444,0.56009 -4.97174,0.0397 z M 116.25,321.62343 c -0.77344,-0.45076 -2.72813,-1.02618 -4.34377,-1.27872 -3.40738,-0.53262 -18.178745,-7.0108 -25.605158,-11.22949 -2.807848,-1.59504 -7.127018,-3.98208 -9.598156,-5.30453 -12.522098,-6.70127 -17.599548,-9.75565 -21.538776,-12.9568 -2.375709,-1.93057 -5.107177,-4.04591 -6.06993,-4.70074 -1.590508,-1.08181 -1.536294,-1.13643 0.59329,-0.5978 1.289062,0.32604 3.398437,1.50977 4.6875,2.6305 3.511221,3.05272 12.647632,9.00165 13.824805,9.00165 0.567235,0 2.278771,1.04964 3.803415,2.33256 1.524645,1.2829 5.459357,3.61028 8.743806,5.17197 3.284448,1.56168 8.081099,4.00739 10.659224,5.43491 2.578125,1.42752 6.973228,3.5359 9.7669,4.68529 l 5.07941,2.08979 -1.79816,-1.99763 c -0.98898,-1.0987 -3.62076,-3.25482 -5.848412,-4.79138 -2.227641,-1.53655 -3.848879,-2.99513 -3.602747,-3.24126 0.910275,-0.91026 5.911889,2.49316 10.371279,7.05732 3.50516,3.58749 5.67051,4.95958 9.14063,5.79205 2.50104,0.59999 4.54735,1.47069 4.54735,1.93489 0,1.04769 -0.97834,1.03636 -2.8125,-0.0325 z m 133.89837,74.83764 c -0.80559,-4.63451 -1.53026,-5.85679 -6.11404,-10.3125 -5.00458,-4.86475 -5.09888,-4.9109 -2.50785,-1.22747 1.48075,2.10505 4.14121,6.8436 5.91215,10.53012 1.77094,3.68652 3.31074,6.60483 3.42178,6.48514 0.11104,-0.11968 -0.20938,-2.58356 -0.71204,-5.47529 z m 48.95455,-5.99232 c 8.51325,-5.85517 16.98954,-14.23417 19.14355,-18.92382 0.90342,-1.9669 2.67733,-5.89649 3.94202,-8.73243 5.32488,-11.94052 13.13888,-22.38984 22.56948,-30.18126 l 6.02167,-4.97499 -7.34294,-1.21473 c -4.03863,-0.6681 -11.13983,-1.28954 -15.78045,-1.38096 -17.25863,-0.34004 -21.78579,5.43073 -28.58714,36.43997 -0.91613,4.17685 -2.11713,8.43781 -2.6689,9.46881 -0.55178,1.031 -1.83874,4.78545 -2.85991,8.34323 -1.02118,3.55777 -3.11042,9.74756 -4.64278,13.75507 l -2.7861,7.28638 3.08801,-2.59888 c 1.69839,-1.42939 6.15497,-4.70826 9.90349,-7.28639 z m 27.28792,-22.03125 c 4.56376,-5.41406 10.17116,-12.16406 12.46089,-15 9.43633,-11.68732 14.74028,-17.67118 16.13906,-18.20795 1.07663,-0.41314 0.95681,0.0115 -0.4385,1.55411 -3.45497,3.81962 -9.93058,11.54253 -14.70854,17.54161 -2.57813,3.23701 -6.79688,8.41929 -9.375,11.51616 -7.46993,8.97295 -8.00535,10.01533 -3.28125,6.38815 4.23019,-3.24795 16.34883,-13.76422 22.49801,-19.52326 7.5746,-7.09399 17.88329,-14.49166 25.78324,-18.50242 4.64062,-2.35601 9.91406,-5.11065 11.71875,-6.12142 8.92127,-4.99657 16.74929,-8.2871 34.21875,-14.38394 10.35972,-3.61554 28.19129,-7.49543 29.82052,-6.48851 0.57307,0.35418 -2.31617,1.19995 -6.42054,1.8795 -4.10436,0.67955 -10.20467,1.90901 -13.55623,2.73214 -10.77991,2.64749 -36.18859,13.09838 -45.54861,18.7347 -2.66755,1.60631 -7.18621,3.88883 -10.04147,5.07228 -6.02326,2.4965 -14.99289,9.00361 -24.46154,17.74587 -3.66755,3.3862 -8.33203,7.51616 -10.36549,9.17769 -6.98298,5.70572 -2.85191,3.86213 5.10956,-2.28027 4.38008,-3.37931 9.01849,-6.62086 10.30755,-7.20343 1.28906,-0.58257 4.15441,-2.23089 6.36743,-3.66294 5.84775,-3.78407 26.48703,-14.05111 27.07142,-13.46672 0.27368,0.27367 -1.54827,1.53497 -4.04876,2.80288 -19.38837,9.83117 -29.5175,15.83989 -41.30975,24.50548 -14.22838,10.45579 -18.58284,13.46979 -21.1509,14.63987 -1.40494,0.64014 -2.55444,1.52887 -2.55444,1.97498 0,0.4461 1.16016,0.22382 2.57812,-0.49395 2.16102,-1.09389 17.41013,-7.2032 27.89063,-11.17393 1.54687,-0.58606 4.07812,-1.82418 5.625,-2.75136 1.54687,-0.9272 3.44531,-1.69102 4.21875,-1.69739 0.77344,-0.007 4.78125,-1.63379 8.90625,-3.6165 4.125,-1.98271 17.625,-7.02114 30,-11.19653 21.6774,-7.31406 27.32725,-9.04441 39.26276,-12.02478 3.15161,-0.78697 6.29713,-2.25991 7.3441,-3.43896 1.41617,-1.59487 1.71395,-1.69049 1.31354,-0.42179 -0.29884,0.94685 -0.0347,1.6435 0.62464,1.64742 0.62835,0.004 12.11121,-2.16181 25.51746,-4.81231 13.40625,-2.6505 25.37724,-4.99522 26.60222,-5.21048 2.18421,-0.38382 2.16712,-0.43571 -0.88526,-2.68769 -3.38449,-2.49699 -4.10971,-2.80332 -3.21696,-1.35881 0.73569,1.19037 -1.5167,1.20554 -4.60595,0.031 -4.5183,-1.71786 -28.32982,-2.84526 -38.8715,-1.84044 -10.17805,0.97012 -30.1163,5.3384 -30.1163,6.59816 0,0.38432 0.73828,0.91109 1.64062,1.1706 0.90235,0.25952 -0.25781,0.42709 -2.57812,0.37238 -4.34339,-0.10239 -17.74399,3.88616 -22.91093,6.8192 -3.06611,1.7405 -8.02657,3.16337 -8.02657,2.30236 0,-0.28596 2.00307,-1.37854 4.45128,-2.42797 2.4482,-1.04941 5.71774,-2.484 7.26562,-3.18796 1.54789,-0.70396 4.29091,-1.69973 6.0956,-2.21282 1.80469,-0.51309 6.44531,-2.04077 10.3125,-3.39486 10.59537,-3.70993 20.15047,-6.10468 24.35777,-6.10468 2.07198,0 3.76723,-0.42188 3.76723,-0.9375 0,-0.51563 0.84375,-1.78125 1.875,-2.8125 1.03125,-1.03125 1.875,-1.48326 1.875,-1.00447 0,0.4788 -0.55761,1.42802 -1.23913,2.10938 -1.02704,1.0268 1.17934,1.23884 12.89062,1.23884 13.84243,0 24.01175,0.67423 28.98113,1.92147 4.86185,1.22024 2.4071,-0.48741 -2.89825,-2.01619 -2.96484,-0.85433 -8.34375,-3.16174 -11.95312,-5.12757 -3.60938,-1.96583 -9.68465,-4.69617 -13.50061,-6.06742 -6.30805,-2.26678 -7.92941,-2.46332 -17.85439,-2.16424 -7.97266,0.24024 -11.53698,0.73286 -13.21814,1.82684 C 429.22746,307.61558 412.60224,315 411.24516,315 c -0.55994,0 -8.7516,2.54432 -18.20369,5.65404 -15.39778,5.06586 -30.32526,8.38574 -37.78286,8.40293 -1.68069,0.004 -4.36612,1.89779 -8.98069,6.33365 -8.5666,8.23486 -15.61634,17.8312 -22.89974,31.17188 -3.23733,5.92969 -6.7632,11.83292 -7.83525,13.1183 l -1.94918,2.33703 2.24967,-1.86828 c 1.23731,-1.02757 5.98365,-6.29799 10.54742,-11.71205 z m 4.54666,10.3125 c 0.77344,-0.49984 0.98437,-0.90878 0.46875,-0.90878 -0.51563,0 -1.57031,0.40894 -2.34375,0.90878 -0.77344,0.49984 -0.98438,0.90878 -0.46875,0.90878 0.51562,0 1.57031,-0.40894 2.34375,-0.90878 z m 8.10554,-2.74238 c 10.34604,-2.86659 21.18518,-5.03471 40.17571,-8.03624 28.41977,-4.49185 42.23024,-7.4323 44.60507,-9.49706 0.81404,-0.70775 1.89143,-1.28682 2.39421,-1.28682 1.13639,0 6.49497,-5.59225 7.18661,-7.5 0.34611,-0.95466 0.5336,-0.76458 0.58384,0.59188 0.0407,1.09898 -1.27749,3.31949 -2.92934,4.93448 l -3.00336,2.93634 4.17524,-1.27673 c 2.29638,-0.7022 6.70648,-2.01121 9.80023,-2.90891 19.84422,-5.75809 44.173,-15.15754 53.90625,-20.82671 1.28906,-0.75083 3.81323,-2.0217 5.60926,-2.82417 1.79602,-0.80247 4.32727,-2.29751 5.625,-3.3223 l 2.35949,-1.86324 -5.625,0.62346 c -6.80503,0.75425 -10.40787,1.42142 -30.9375,5.7289 -8.76563,1.83919 -19.3125,3.95826 -23.4375,4.70905 -11.33547,2.06319 -23.32419,5.45534 -44.53125,12.59993 -26.68591,8.9904 -26.85668,9.05342 -34.33396,12.66903 -3.67273,1.77594 -7.25867,3.23407 -7.96875,3.24029 -0.71007,0.007 -3.12707,1.06089 -5.37111,2.34375 -2.24403,1.28284 -4.52349,2.33245 -5.06546,2.33245 -0.54197,0 -3.55749,1.20626 -6.70118,2.68057 -3.14368,1.47433 -7.29782,3.19455 -9.23141,3.82272 -1.9336,0.62816 -3.51563,1.36548 -3.51563,1.63847 0,0.27299 0.5889,0.27036 1.30867,-0.006 0.71976,-0.27621 2.93461,-0.95269 4.92187,-1.5033 z M 210.85938,344.59085 c -0.21485,-0.22504 -2.69973,-3.0727 -5.52197,-6.32813 -13.8962,-16.0292 -29.07579,-29.13425 -43.88733,-37.88939 -20.48868,-12.11091 -28.47055,-16.00969 -41.91883,-20.47542 -18.97146,-6.29979 -26.587525,-7.95139 -50.291303,-10.90603 -13.828029,-1.72365 -18.66426,-1.92617 -32.208697,-1.34875 -22.176796,0.94544 -31.0017817,2.06688 -15.46875,1.96572 10.013827,-0.0652 13.082688,0.29695 21.09375,2.48942 9.040153,2.47411 25.264508,8.85915 46.40625,18.26304 7.541044,3.35428 25.91637,10.57619 26.90988,10.57619 1.65114,0 -4.82253,-6.24038 -8.70011,-8.38659 -2.02319,-1.11983 -2.90574,-1.80032 -1.96122,-1.51223 0.94452,0.2881 2.33897,0.52382 3.0988,0.52382 0.75981,0 3.86379,2.52898 6.89771,5.61997 4.27897,4.35945 7.26372,6.38276 13.30746,9.02089 4.28518,1.87051 8.2131,3.72716 8.72873,4.1259 0.51562,0.39874 3.67969,1.85573 7.03125,3.23775 3.35156,1.38203 7.78125,3.2655 9.84375,4.18551 2.0625,0.92 7.125,3.04551 11.25,4.72334 10.05821,4.09115 26.08308,11.05381 29.28533,12.72422 1.42432,0.74298 3.01154,1.37174 3.52717,1.39724 0.51562,0.0255 3.46875,1.91513 6.5625,4.19917 4.9141,3.62797 7.28373,5.12262 6.01563,3.79436 z m 2.36075,-2.8738 c -0.75444,-1.80561 -3.4751,-6.414 -6.04591,-10.24084 -2.57083,-3.82686 -4.67422,-7.2238 -4.67422,-7.54876 0,-1.58545 -18.62373,-20.9289 -26.81194,-27.84811 -8.13454,-6.87387 -25.25483,-18.04965 -32.31926,-21.09739 -1.48792,-0.64192 -3.91306,-0.76637 -6.32813,-0.32475 -2.15362,0.39383 -3.91567,0.35081 -3.91567,-0.0956 0,-0.44639 0.81885,-0.81162 1.81967,-0.81162 3.581,0 2.73563,-1.63428 -1.61255,-3.11738 -2.43423,-0.83029 -8.01181,-2.81845 -12.39462,-4.41814 -8.22538,-3.0022 -9.95162,-3.45203 -25.78125,-6.71817 -7.641203,-1.57662 -12.755904,-1.92873 -27.65625,-1.90394 -20.102557,0.0335 -28.738244,1.08079 -48.134604,5.83784 -6.622469,1.62419 -12.6206781,2.73057 -13.3293517,2.45862 -0.7086736,-0.27194 -1.5378433,-0.091 -1.8425993,0.40211 -0.7642944,1.23666 8.632487,1.16112 23.978362,-0.19275 9.599529,-0.8469 16.127277,-0.86525 26.71875,-0.0751 14.908387,1.11224 38.421424,4.18759 44.185896,5.77924 3.984747,1.10024 5.425797,0.55495 2.075277,-0.78529 l -2.24548,-0.89822 2.21161,-0.0594 c 1.21639,-0.0327 3.14056,0.83465 4.27594,1.92742 1.13537,1.09276 7.31203,3.76608 13.72589,5.94071 14.0804,4.77397 27.77663,11.32447 41.79378,19.98872 18.07802,11.17433 29.90991,21.23232 46.28932,39.34935 3.84591,4.2539 7.08176,7.73437 7.19079,7.73437 0.10904,0 -0.41902,-1.47732 -1.17346,-3.28294 z M 96.5625,269.00717 c 0,-0.54606 0.421875,-0.73209 0.9375,-0.41342 0.515625,0.31867 0.9375,0.76545 0.9375,0.99283 0,0.22738 -0.421875,0.41342 -0.9375,0.41342 -0.515625,0 -0.9375,-0.44678 -0.9375,-0.99283 z m 115.78898,63.57095 c -0.12578,-2.69259 -2.24612,-10.83063 -4.21352,-16.17187 -1.43467,-3.8949 -2.77302,-8.64895 -4.21963,-14.98877 -2.79834,-12.26388 -8.58337,-27.38022 -13.04928,-34.09791 -2.36861,-3.56289 -4.30655,-6.75919 -4.30655,-7.10291 0,-1.7167 -18.07135,-16.96198 -28.125,-23.72669 -14.69541,-9.88797 -31.37541,-13.4302 -54.04767,-11.47779 -22.555872,1.94239 -48.756309,8.45781 -55.63983,13.8363 -1.289063,1.00722 -4.231942,2.7902 -6.53973,3.96217 -2.307789,1.17197 -10.158199,6.06925 -17.445355,10.88283 -7.287156,4.81359 -14.363809,9.17568 -15.7258947,9.69354 -5.0212511,1.90907 -2.1724391,1.48946 9.9453547,-1.46492 20.578228,-5.01707 28.493275,-5.97044 50.390625,-6.0696 17.676069,-0.0801 36.67666,3.01827 51.5625,8.40797 25.76261,9.32784 41.23691,17.62071 54.58067,29.25044 8.21868,7.16297 22.29433,21.39468 22.29433,22.54151 0,0.45242 0.40916,0.82258 0.90924,0.82258 1.20929,0 -6.25133,-11.58365 -12.88617,-20.00756 C 179.48868,288.80909 160.08568,270 158.11979,270 c -0.35255,0 -3.11318,-1.6875 -6.13475,-3.75 -3.02156,-2.0625 -5.78473,-3.75 -6.14037,-3.75 -0.35565,0 -4.12007,-1.63493 -8.36538,-3.63317 -4.24531,-1.99824 -9.07112,-3.93021 -10.72402,-4.29324 -1.6529,-0.36304 -3.00527,-1.05646 -3.00527,-1.54094 0,-0.98442 3.56767,-0.26042 8.20312,1.66466 1.93597,0.804 3.04688,0.90822 3.04688,0.28585 0,-0.53873 -0.56864,-1.19771 -1.26365,-1.46441 -1.36231,-0.52277 -5.73003,-6.01875 -4.78317,-6.01875 0.3145,0 3.08289,2.51107 6.15198,5.58016 3.06908,3.06908 8.15229,6.88722 11.29601,8.48474 8.08243,4.1072 16.34614,9.8504 22.34883,15.53224 12.09389,11.44745 14.77657,14.23704 17.84972,18.56109 1.78421,2.51046 4.19325,5.51197 5.3534,6.67 1.16016,1.15804 2.10938,2.44581 2.10938,2.8617 0,0.4159 0.59263,1.42221 1.31695,2.23625 0.72432,0.81404 2.68136,4.22226 4.34894,7.57382 1.6676,3.35156 3.77809,6.9375 4.68999,7.96875 0.91189,1.03125 2.61187,3.77344 3.77773,6.09375 1.95312,3.88712 3.62586,6.5625 4.10309,6.5625 0.10704,0 0.13057,-1.37109 0.0523,-3.04688 z M 210,330 c -0.65443,-1.57994 -0.97894,-3.08356 -0.72113,-3.34137 0.25782,-0.25781 1.0042,0.82393 1.65863,2.40387 0.65443,1.57994 0.97894,3.08356 0.72112,3.34137 C 211.40081,332.66168 210.65443,331.57994 210,330 Z m -3.44558,-7.69434 c -0.99166,-1.69781 -2.78338,-5.51988 -3.98159,-8.49351 -1.1982,-2.97363 -2.54852,-5.63525 -3.0007,-5.9147 -0.45217,-0.27946 -0.82213,-0.97047 -0.82213,-1.53558 0,-1.57253 3.62181,2.05627 4.30034,4.30864 0.32902,1.09216 1.82929,4.67983 3.33393,7.97262 2.96942,6.49832 3.06818,8.62417 0.17015,3.66253 z m -16.95043,-32.85254 c -11.28152,-16.88792 -13.47994,-19.73777 -24.27915,-31.47325 -4.35343,-4.73088 -5.17254,-5.22731 -8.27979,-5.01804 -2.19101,0.14755 -3.22934,-0.1222 -2.84764,-0.7398 0.33041,-0.53462 1.52507,-0.98485 2.6548,-1.00054 2.00879,-0.0278 2.01273,-0.0517 0.17904,-1.08373 -2.72903,-1.53587 -9.06759,-7.32526 -8.02013,-7.32526 1.07721,0 11.29646,8.28376 16.34786,13.25162 2.00212,1.96901 4.0712,3.31366 4.59798,2.9881 0.55054,-0.34026 0.67198,-0.12955 0.28562,0.4956 -0.70004,1.13268 5.88359,9.95101 6.76856,9.06604 0.27294,-0.27293 -0.49145,-1.54762 -1.69864,-2.83261 -2.88806,-3.0742 -1.62218,-4.25132 1.45899,-1.35669 1.63146,1.53266 2.2304,2.87681 1.88864,4.23849 -0.35155,1.40067 0.74231,3.63984 3.67597,7.52487 2.29704,3.04195 4.18768,5.87928 4.20142,6.30517 0.0138,0.42588 1.85874,3.16806 4.1,6.09375 4.63702,6.05303 6.65815,9.53816 5.53147,9.53816 -0.4246,0 -3.37885,-3.90234 -6.565,-8.67188 z M 95.113978,253.1934 c 0.295425,-0.47801 2.081709,-1.37887 3.969525,-2.0019 3.255147,-1.07429 3.339187,-1.20235 1.627567,-2.48002 -1.637992,-1.22271 -1.458189,-1.28713 1.94518,-0.6969 2.0625,0.35769 4.17188,1.06846 4.6875,1.5795 0.62051,0.615 0.22429,0.71368 -1.17187,0.29187 -1.17929,-0.3563 -2.10938,-0.23493 -2.10938,0.27525 0,0.5019 -1.97359,1.58502 -4.385756,2.40693 -5.127994,1.74728 -5.268066,1.76647 -4.562766,0.62527 z M 79.21875,246.81519 c -9.28125,-0.75407 -17.050781,-1.54127 -17.265625,-1.74935 -1.224058,-1.18555 1.836909,-1.27697 12.221704,-0.36504 21.521477,1.88989 23.325171,2.11628 23.325171,2.92755 0,0.44503 -0.316406,0.75261 -0.703125,0.68351 C 96.410156,248.24276 88.5,247.56925 79.21875,246.81519 Z m 62.8125,-6.9609 c -6.41894,-3.38516 -6.95629,-3.60429 -8.8382,-3.60429 -1.00782,0 -2.13382,-0.48773 -2.50224,-1.08384 -1.04587,-1.69225 4.07856,-0.36718 11.20792,2.89815 3.42445,1.56842 6.22627,3.06746 6.22627,3.33119 0,0.99426 -2.47104,0.3693 -6.09375,-1.54121 z M 326.25,304.9747 c 3.86719,-2.88585 8.29687,-6.39162 9.84375,-7.7906 6.7804,-6.13219 20.77261,-14.48074 41.43402,-24.72193 9.65947,-4.78787 39.2689,-17.29483 45.75348,-19.32615 2.0625,-0.64609 7.27114,-2.91678 11.57475,-5.04599 6.54528,-3.23827 8.14075,-4.48446 9.75736,-7.62128 1.06295,-2.0625 2.11685,-3.20847 2.34201,-2.54661 0.22516,0.66187 -0.11249,1.83223 -0.75033,2.60079 -2.19852,2.64905 -0.2902,2.24423 4.76074,-1.0099 2.78561,-1.79467 5.43412,-3.26303 5.88558,-3.26303 0.85865,0 3.99629,-2.2576 9.83878,-7.07922 4.61424,-3.80798 13.13789,-9.78693 14.01515,-9.83098 0.38553,-0.0193 2.38846,-1.53658 4.45096,-3.37161 3.27322,-2.91221 3.45201,-3.26295 1.40625,-2.75859 -1.28906,0.3178 -5.92969,1.20963 -10.3125,1.98186 -4.38281,0.77223 -9.02344,1.78664 -10.3125,2.25425 -1.28906,0.46762 -4.65653,1.36951 -7.48325,2.00421 -6.6667,1.49692 -18.95954,5.98229 -18.27406,6.66778 0.29229,0.29228 -1.49197,0.82599 -3.965,1.18603 -2.47304,0.36004 -8.71519,2.46123 -13.87144,4.6693 -5.15625,2.20808 -11.69531,4.77935 -14.53125,5.71394 -4.67272,1.53992 -15.40971,6.38637 -20.15625,9.09812 -1.03125,0.58916 -5.88281,3.34704 -10.78125,6.1286 -4.89844,2.78156 -9.53906,5.62286 -10.3125,6.314 -0.77344,0.69114 -3.7546,2.8703 -6.62482,4.84258 -14.84977,10.20414 -36.20723,32.57127 -46.39278,48.58598 l -3.57757,5.625 4.62571,-4.02978 c 2.54414,-2.21638 7.78977,-6.39093 11.65696,-9.27677 z m -9.97347,-7.31845 c 0.23084,-0.60157 -0.15473,-1.09375 -0.85682,-1.09375 -0.70209,0 -1.4654,0.49218 -1.69624,1.09375 -0.23084,0.60157 0.15473,1.09375 0.85682,1.09375 0.70208,0 1.4654,-0.49218 1.69624,-1.09375 z m -47.0251,-45.46875 c 0.66601,-1.28906 3.42721,-6.30018 6.13601,-11.13581 2.70878,-4.83564 4.92506,-8.97595 4.92506,-9.20069 0,-0.22476 1.03125,-2.66318 2.29166,-5.41872 3.0385,-6.64283 6.99369,-18.52663 8.11361,-24.37818 1.2764,-6.6692 3.65747,-36.89389 3.65595,-46.40771 -9.4e-4,-7.75051 -1.7999,-20.68447 -3.50663,-25.21587 -0.73997,-1.96462 -1.02767,-1.5247 -2.45246,3.75 -1.67457,6.19946 -3.72908,18.34594 -5.29221,31.28823 -0.4982,4.125 -1.35881,9.82031 -1.91246,12.65625 -1.89627,9.71321 -2.72091,14.5354 -3.28659,19.21875 -0.31139,2.57813 -2.45,12.22856 -4.75247,21.44543 -2.30247,9.21685 -4.03693,16.90729 -3.85436,17.08986 0.28252,0.28252 6.32662,-14.03002 10.53267,-24.94154 1.6692,-4.3303 2.62093,-8.26958 2.83126,-11.71875 0.31918,-5.23402 0.51546,-5.76661 1.38203,-3.75 0.70887,1.64963 0.81364,1.55867 0.8716,-0.75673 0.0363,-1.44745 0.47195,-4.40058 0.96823,-6.5625 3.35009,-14.59374 4.48628,-23.66912 4.62941,-36.97764 0.0548,-5.09408 0.48005,-8.67188 1.03076,-8.67188 1.19068,0 1.21143,17.20353 0.03,24.84375 -1.82447,11.7983 -6.63693,35.48888 -7.40888,36.47214 -0.44384,0.56533 -1.03994,2.08255 -1.32469,3.37161 -0.74438,3.3698 -3.24789,10.02207 -5.88786,15.64507 -1.25598,2.6751 -2.28357,5.07145 -2.28357,5.32521 0,0.25377 -1.22741,3.12756 -2.72758,6.38619 -2.5746,5.59248 -5.81611,15.61768 -7.06886,21.86228 l -0.56423,2.8125 1.85683,-2.34375 c 1.02126,-1.28906 2.40176,-3.39844 3.06777,-4.6875 z m -3.48523,-10.78125 c 0.85677,-3.60938 1.91824,-8.03906 2.3588,-9.84375 0.44056,-1.80469 1.45927,-6.02344 2.26381,-9.375 0.80452,-3.35156 2.10753,-8.41406 2.89555,-11.25 0.78803,-2.83594 2.50139,-11.45252 3.80747,-19.14795 1.30609,-7.69543 2.52263,-14.23449 2.70343,-14.53125 0.1808,-0.29676 0.79634,-4.54736 1.36787,-9.4458 2.59419,-22.23411 4.53482,-32.27813 8.20841,-42.48368 2.37123,-6.58747 -1.34393,-6.84354 -4.29871,-0.29629 -2.85038,6.31594 -8.50254,24.25473 -10.43602,33.12181 -2.57766,11.82132 -6.40559,26.68705 -7.43582,28.87691 -1.55415,3.30352 -3.80237,12.86778 -5.17877,22.03125 -1.4707,9.79128 -1.80726,27.97965 -0.45972,24.84375 0.44315,-1.03125 0.83537,-4.25418 0.8716,-7.16206 0.0711,-5.69875 2.16178,-18.08468 4.32982,-25.65044 0.73879,-2.57813 2.21091,-9.27846 3.27137,-14.88963 1.06047,-5.61117 2.73285,-12.57211 3.71641,-15.46875 0.98355,-2.89664 2.4574,-8.21455 3.27523,-11.81759 0.81782,-3.60303 2.05472,-7.41748 2.74865,-8.47657 0.69394,-1.05909 1.47157,-2.75178 1.72807,-3.76154 0.34178,-1.34552 0.49539,-1.13295 0.5751,0.79581 0.12765,3.08907 -1.67576,10.96625 -2.85913,12.48852 -1.25039,1.60848 -6.90018,22.23077 -8.69968,31.75475 -0.87683,4.64062 -2.42865,11.97439 -3.4485,16.29724 -1.90288,8.06577 -3.44169,22.23052 -4.03478,37.14026 -0.34786,8.74475 -0.18245,8.5175 2.72954,-3.75 z M 228.75,204.746 c 0,-0.82721 -5.90625,-7.44101 -13.125,-14.69734 -7.21875,-7.25634 -13.125,-13.54047 -13.125,-13.96475 0,-0.42427 -0.40764,-0.77141 -0.90588,-0.77141 -1.49068,0 2.77172,6.70199 7.453,11.71875 2.40573,2.57812 6.16119,6.79687 8.34546,9.375 3.09795,3.65654 9.42152,9.20914 11.12304,9.76692 0.12891,0.0423 0.23438,-0.59997 0.23438,-1.42717 z m -3.94216,-9.98038 c -1.57135,-4.63871 -4.17776,-7.89184 -9.01074,-11.24659 -4.57303,-3.1743 -8.43076,-5.39403 -9.37445,-5.39403 -0.47203,0 18.72032,19.63262 19.23171,19.67288 0.10208,0.008 -0.27885,-1.35647 -0.84652,-3.03226 z m 16.53203,-5.25879 c 4.50748,-8.95067 8.08948,-22.03698 8.5038,-31.06739 0.19017,-4.1451 -0.0145,-7.31387 -0.45489,-7.04171 -0.44035,0.27215 -1.70446,3.54948 -2.80911,7.28293 -1.10467,3.73345 -2.43207,7.81836 -2.94978,9.07757 -0.51773,1.25922 -1.28867,4.00141 -1.71321,6.09375 -0.42455,2.09235 -1.41621,6.33552 -2.20369,9.42927 -1.8411,7.23305 -2.74566,12.65625 -2.111,12.65625 0.27468,0 1.95674,-2.8938 3.73788,-6.43067 z m -5.33972,3.38379 c 0.47134,-6.66557 6.77778,-29.57615 11.93524,-43.35937 2.28536,-6.10755 -3.61147,5.3995 -6.51184,12.7072 -5.45637,13.74774 -8.62398,26.34222 -7.62567,30.31981 0.75284,2.9995 2.00036,3.18777 2.20227,0.33236 z m 65.3509,-52.87342 c 0.21583,-1.19023 1.23938,-5.65366 2.27457,-9.91875 1.03518,-4.26508 2.57011,-10.91876 3.41096,-14.78595 0.84084,-3.86719 2.09088,-9.47749 2.77787,-12.46733 0.73529,-3.200048 0.94933,-6.477848 0.52035,-7.968754 -0.90765,-3.154475 -1.45408,-1.883493 -2.74022,6.373584 -2.02351,12.99104 -6.66483,33.55998 -8.47126,37.54214 -1.21506,2.67852 -1.86845,6.02608 -1.82162,9.33286 l 0.073,5.15625 1.79195,-5.55001 c 0.98558,-3.0525 1.96855,-6.52382 2.18438,-7.71404 z m -106.52226,-7.38554 c 4.5518,-0.70884 14.17892,-7.97572 16.45676,-12.42211 3.00538,-5.86658 3.69036,-12.4403 2.14824,-20.6166 -2.47335,-13.113667 -5.5573,-17.008647 -6.57967,-8.30999 -0.55713,4.740365 -4.21794,16.04073 -4.95703,15.30163 -0.18052,-0.18052 0.26166,-2.40387 0.98262,-4.94078 0.72095,-2.536907 1.56336,-6.30006 1.87202,-8.36256 0.4695,-3.137477 -0.11758,-2.333541 -3.5943,4.921875 -2.2855,4.769535 -4.57223,8.671875 -5.08162,8.671875 -0.50938,0 0.27789,-2.42578 1.74951,-5.39062 3.73467,-7.524174 6.75694,-15.473129 5.61461,-14.767133 -0.52611,0.325153 -3.31433,3.546217 -6.19605,7.157919 -2.88172,3.6117 -5.47211,6.334094 -5.75644,6.049771 -0.28432,-0.284324 2.07729,-3.65324 5.24805,-7.486486 3.30055,-3.990171 5.29121,-7.127466 4.65669,-7.338975 -2.99956,-0.99985 -9.92852,2.812944 -15.76718,8.676174 -11.39498,11.44295 -14.40651,18.21008 -12.38752,27.83568 0.69195,3.29887 1.99517,6.23495 3.38385,7.62364 2.27619,2.27619 10.14688,4.964 12.75367,4.35534 0.77344,-0.18058 3.22764,-0.61198 5.45379,-0.95865 z M 200.625,108.75 c 0,-0.51562 0.44677,-0.9375 0.99283,-0.9375 0.54606,0 0.7321,0.42188 0.41342,0.9375 -0.31868,0.51563 -0.76545,0.9375 -0.99283,0.9375 -0.22738,0 -0.41342,-0.42187 -0.41342,-0.9375 z m 47.44504,12.27871 c 3.61924,-2.20696 7.90904,-9.51928 8.81362,-15.02357 1.34553,-8.187478 -3.00859,-19.373513 -8.48456,-21.797414 -1.52575,-0.675364 -2.7741,-1.482753 -2.7741,-1.794198 0,-1.499082 -8.36462,-4.13125 -13.09463,-4.1206 -5.54678,0.01249 -10.34869,0.995557 -10.33369,2.115558 0.005,0.376895 1.58708,1.654475 3.51562,2.839067 2.92989,1.799655 3.12107,2.089245 1.1627,1.761184 -1.28906,-0.215941 -3.1875,-0.702152 -4.21875,-1.08047 -4.47821,-1.642848 11.30036,10.848296 17.34375,13.730217 1.80469,0.860607 2.74036,1.598888 2.07926,1.640625 -2.28547,0.1443 -7.2602,-2.524593 -13.56364,-7.27676 -3.48046,-2.623928 -6.32812,-4.546522 -6.32812,-4.272431 0,1.023124 2.26887,4.70557 4.99628,8.109091 1.54932,1.933397 2.58272,3.749485 2.29645,4.03576 -0.73647,0.736481 -6.66997,-6.885836 -8.53528,-10.964648 -0.85862,-1.877495 -2.18287,-3.652216 -2.94279,-3.943823 -1.72177,-0.660708 -6.64398,1.77113 -5.28496,2.611056 0.54002,0.333747 1.45221,2.381969 2.02708,4.551604 0.57489,2.169636 2.73201,8.279972 4.7936,13.578522 3.9691,10.20111 6.70115,13.48169 13.18607,15.83358 4.82156,1.74864 12.01464,1.49911 15.34609,-0.53235 z m 95.81684,-15.74113 c 5.68039,-3.24611 7.66781,-6.910511 7.67211,-14.145817 0.005,-7.204707 -1.54394,-11.12671 -6.25009,-15.832867 -5.84734,-5.847335 -21.55916,-12.464474 -23.21898,-9.778828 -0.38838,0.628414 -0.067,0.796901 0.84935,0.445266 2.04734,-0.785632 6.85673,2.761987 11.1136,8.197865 1.97126,2.517241 3.43778,4.576801 3.25894,4.576801 -0.17886,0 -2.94429,-2.53125 -6.14541,-5.625 -7.22216,-6.979924 -9.8794,-7.559958 -6.24827,-1.363901 1.37345,2.343604 2.28115,4.477114 2.01714,4.741134 -0.55196,0.551953 -6.31027,-7.705749 -6.31027,-9.049232 0,-1.000044 -1.41373,-1.114695 -4.27353,-0.346574 -4.50013,1.208705 -6.80574,12.172952 -4.28576,20.380824 0.58261,1.897636 1.52593,5.03228 2.09627,6.965874 2.11804,7.180725 6.76379,11.821955 13.42924,13.416205 4.56443,1.09172 11.9016,-0.0707 16.29566,-2.58175 z M 317.44405,82.892075 c -0.89214,-2.324892 -0.66562,-14.284232 0.28165,-14.869677 0.48413,-0.299211 0.86797,3.110645 0.89079,7.913422 0.022,4.641549 -0.10469,8.43918 -0.28164,8.43918 -0.17697,0 -0.57782,-0.667316 -0.8908,-1.482925 z m -33.6291,12.603231 c 5.4866,-1.626168 7.86178,-2.986227 12.42188,-7.112875 3.10099,-2.806238 5.63817,-5.648009 5.63817,-6.315049 0,-0.667039 0.60771,-1.717151 1.35046,-2.333582 1.7109,-1.419917 6.56687,-14.003973 5.72771,-14.843132 -0.34475,-0.344756 -2.77057,1.597016 -5.3907,4.315049 -3.86466,4.00908 -9.44904,7.669283 -11.70104,7.669283 -1.2325,0 1.15328,-2.031273 3.93761,-3.35253 3.68148,-1.746973 9.82596,-8.152822 9.82596,-10.243921 0,-2.036392 -1.02778,-1.754957 -5.43957,1.48951 -3.43317,2.524784 -12.30017,6.481941 -14.5244,6.481941 -1.9021,0 0.59827,-1.796495 3.3341,-2.395522 1.66986,-0.365626 5.20443,-2.050577 7.85459,-3.744333 5.26934,-3.367719 7.35681,-5.634375 4.43956,-4.820638 -0.96692,0.26971 -3.84258,0.774725 -6.39037,1.122255 -2.54778,0.34753 -6.71591,1.453143 -9.26251,2.456919 -2.54659,1.003775 -4.84477,1.610448 -5.10706,1.348162 -0.66859,-0.668595 3.67146,-2.336452 12.43941,-4.780393 6.60843,-1.842004 7.19027,-2.17227 4.89455,-2.778226 -7.1671,-1.891749 -24.99423,7.058532 -31.94049,16.036023 -7.7472,10.012631 -7.19398,17.02738 1.71956,21.803741 4.69874,2.517834 7.67022,2.517346 16.17258,-0.0028 z M 180.08444,92.383411 c 1.85113,-0.295414 4.28725,-1.518075 5.4136,-2.717024 1.12636,-1.198948 4.14695,-3.163042 6.71244,-4.36465 4.28809,-2.008437 6.01324,-3.739237 3.72702,-3.739237 -0.51563,0 -0.9375,-0.580078 -0.9375,-1.289063 0,-0.708984 -1.20482,-1.530026 -2.67737,-1.824536 -3.72045,-0.744091 -19.89766,-8.763978 -22.11429,-10.963211 -2.49592,-2.476315 -1.03173,-3.588003 1.59223,-1.208917 2.87314,2.605003 20.11138,10.598227 22.8562,10.598227 1.8397,0 2.21823,-0.479941 2.21823,-2.8125 0,-3.130762 1.27784,-3.6778 2.73741,-1.171875 0.52557,0.902344 0.96841,1.118573 0.98408,0.480511 0.0157,-0.638063 -1.55352,-2.186341 -3.48712,-3.440619 -1.93359,-1.254276 -5.56518,-4.440604 -8.0702,-7.080728 -12.19567,-12.85343 -29.1092,-14.445382 -37.16026,-3.497635 -4.22931,5.750971 -3.85164,12.023133 1.26078,20.938485 2.13301,3.719673 3.70961,5.106697 9.9071,8.715837 6.60983,3.849266 8.83833,4.641991 11.79696,4.196425 1.03125,-0.155305 3.38956,-0.524075 5.24069,-0.81949 z m 1.55618,-10.529654 C 180.73828,81.61795 180,80.984872 180,80.446916 c 0,-0.556819 0.90853,-0.734622 2.10937,-0.412809 1.16016,0.31091 4.42969,0.577511 7.26563,0.592447 3.67839,0.01937 4.7532,0.28763 3.75,0.935946 -1.41311,0.913225 -8.42395,1.091029 -11.48438,0.291257 z m 11.16257,-8.205933 c -1.36988,-1.269562 -2.49069,-2.847669 -2.49069,-3.506905 0,-0.659236 1.34946,0.150848 2.9988,1.800186 3.55081,3.550816 3.10338,5.053734 -0.50811,1.706719 z m 12.50931,9.435718 c 0,-0.194677 -0.73828,-0.932959 -1.64063,-1.640625 -1.48693,-1.166129 -1.52009,-1.132969 -0.35396,0.353958 1.22472,1.561639 1.99459,2.058262 1.99459,1.286667 z M 200.625,81.09375 c -0.6419,-0.773438 -1.85371,-1.391301 -2.69291,-1.37303 -1.04991,0.02286 -0.79479,0.451131 0.81791,1.37303 3.0086,1.719869 3.30236,1.719869 1.875,0 z m 5.62217,-4.894916 c -0.9194,-1.441399 -0.99309,-1.349686 -0.54323,0.676166 0.28625,1.289062 0.58367,2.976562 0.66093,3.75 0.0772,0.773437 0.3217,0.469162 0.54322,-0.676166 0.22152,-1.145329 -0.0759,-2.832829 -0.66092,-3.75 z m 5.10699,1.197 c -0.35295,-1.881419 -0.82924,-3.233262 -1.0584,-3.004095 -0.22917,0.229166 -0.12788,1.956009 0.22508,3.837427 0.35295,1.881419 0.82924,3.233262 1.0584,3.004095 0.22917,-0.229166 0.12788,-1.956009 -0.22508,-3.837427 z M 199.80383,76.625 c -0.92589,-0.919001 -1.03357,-0.811316 -0.52481,0.524807 0.35206,0.924583 0.87627,1.444895 1.16492,1.15625 0.28865,-0.288644 6e-4,-1.045119 -0.64011,-1.681057 z m 17.91664,-1.203219 c -0.57081,-2.986054 -0.85708,-2.896891 -1.34368,0.418514 -0.26497,1.805349 -0.033,2.575044 0.69211,2.296782 0.6006,-0.230472 0.89336,-1.450486 0.65157,-2.715296 z m -14.28297,-0.0084 c 0,-0.803868 -0.42188,-1.200846 -0.9375,-0.882172 -0.51563,0.318674 -0.9375,0.976384 -0.9375,1.461578 0,0.485195 0.42187,0.882172 0.9375,0.882172 0.51562,0 0.9375,-0.657711 0.9375,-1.461578 z M 365.36197,72.29987 c 1.94936,-1.006482 5.12631,-3.293374 7.0599,-5.081984 2.86116,-2.646623 3.51563,-3.907463 3.51563,-6.772891 0,-5.32941 -3.47864,-11.33611 -8.84741,-15.27715 -4.29918,-3.155888 -5.22789,-3.449095 -10.92465,-3.449095 -5.78638,0 -6.45011,0.219484 -9.39887,3.108064 -4.00617,3.924413 -12.08501,8.592268 -15.00569,8.67011 l -2.22963,0.05943 2.34375,0.96254 c 2.41615,0.992277 13.26402,0.583751 16.17187,-0.609024 0.93988,-0.385526 1.64063,-0.258086 1.64063,0.298365 0,1.45844 -10.00119,3.244479 -15.40827,2.751649 l -4.74798,-0.432758 3.28125,1.376783 c 1.80469,0.757231 6.78517,1.599557 11.06773,1.871836 5.2035,0.33083 7.47473,0.806797 6.8467,1.434818 -1.21921,1.219217 -18.48199,-0.673954 -20.36038,-2.232878 -2.27792,-1.890512 -2.50191,-0.230786 -0.25175,1.865549 1.16256,1.083097 3.06399,1.969267 4.22539,1.969267 1.16142,0 2.37239,0.421875 2.69106,0.9375 0.31867,0.515625 0.0272,0.939806 -0.64779,0.942625 -1.17784,0.0049 8.53601,6.35412 14.46976,9.457776 3.36356,1.759315 8.87993,1.055724 14.50875,-1.850531 z M 237.202,72.668179 c 2.31234,-1.282502 5.46987,-2.975459 7.01675,-3.762128 3.89309,-1.979844 14.129,-10.809047 16.92543,-14.599405 2.86721,-3.886286 4.15735,-8.372092 4.15959,-14.462896 0.004,-9.448443 -6.24541,-14.238844 -14.38867,-11.030377 -5.49721,2.165916 -14.60041,7.955247 -15.13307,9.624127 -0.24686,0.773437 -1.44213,2.47676 -2.65616,3.78516 -6.21522,6.698395 -12.81337,17.739315 -12.81337,21.441064 0,3.039253 2.4767,5.871254 3.24234,3.707486 1.87919,-5.310718 2.44616,-6.43371 3.24819,-6.43371 1.00353,0 -0.49654,5.274832 -2.07265,7.288281 -0.51429,0.656991 -0.71701,1.412582 -0.45051,1.67909 0.74122,0.741226 17.01148,-15.749991 20.40457,-20.681684 3.17604,-4.616195 5.09865,-5.307924 2.19272,-0.788903 -3.3804,5.256863 -12.63453,15.852972 -16.85576,19.300091 -4.39341,3.587711 -4.53999,4.513795 -0.3339,2.109375 3.9512,-2.258708 5.24693,-1.55138 1.82276,0.995026 -2.29126,1.703908 -3.96565,2.257661 -5.76553,1.90676 -1.96209,-0.382529 -2.41706,-0.183253 -2.00907,0.879974 0.88085,2.295453 8.58969,1.747428 13.46634,-0.957331 z m -24.68658,-0.65646 c -0.29927,-0.747875 -0.52142,-0.525728 -0.5664,0.566406 -0.0407,0.988281 0.18086,1.541992 0.49239,1.230469 0.31152,-0.311524 0.34482,-1.120117 0.074,-1.796875 z M 202.24767,62.51753 c -1.4736,-2.276712 -2.89007,-7.20503 -2.07084,-7.20503 0.28879,0 1.35871,1.792969 2.37762,3.984375 1.19837,2.577365 1.68683,3.120787 1.38323,1.538868 -0.25814,-1.34503 -0.89643,-5.352842 -1.41844,-8.90625 -0.522,-3.553409 -1.56861,-8.991993 -2.32578,-12.085743 -1.59338,-6.510428 -1.73167,-8.089968 -0.52824,-6.033373 0.81091,1.385805 1.46658,4.137937 5.20267,21.837565 1.70107,8.058787 3.27077,8.595956 3.51196,1.201825 0.078,-2.392371 0.47449,-4.349767 0.88102,-4.349767 0.76727,0 1.0519,2.441267 0.77947,6.685774 -0.1626,2.533343 2.21022,9.251726 3.26756,9.251726 0.32509,0 0.29742,-1.371094 -0.0615,-3.046875 l -0.65258,-3.046875 2.50514,2.321694 c 1.73568,1.608573 2.31788,1.833673 1.89546,0.732856 -0.33534,-0.87386 0.1052,-3.460769 0.97896,-5.748685 1.20271,-3.149245 1.50444,-6.288142 1.24195,-12.920356 C 218.80105,36.26154 215.6353,28.171429 209.94002,23.02608 202.66753,16.455832 192.8906,17.933537 188.6096,26.25 c -1.99496,3.875488 -2.12333,4.981554 -1.57768,13.59375 0.68138,10.754443 1.03882,12.814876 3.00873,17.34375 2.00918,4.619133 8.83936,11.578837 9.88066,10.068029 0.60692,-0.880571 1.07265,-0.757334 1.92409,0.50914 1.02338,1.522234 1.15027,1.454275 1.42584,-0.76372 0.16637,-1.339052 -0.29423,-3.35659 -1.02357,-4.483419 z m 111.29659,-0.722602 c -0.30185,-0.488407 -0.94842,-0.641043 -1.43683,-0.339191 -0.48841,0.301852 -0.64105,0.948428 -0.33919,1.436835 0.30185,0.488407 0.94842,0.641043 1.43683,0.339191 0.48841,-0.301852 0.64105,-0.948428 0.33919,-1.436835 z m 15.04949,0.08007 c -0.31867,-0.515625 -0.97639,-0.9375 -1.46158,-0.9375 -0.4852,0 -0.88217,0.421875 -0.88217,0.9375 0,0.515625 0.65771,0.9375 1.46158,0.9375 0.80387,0 1.20084,-0.421875 0.88217,-0.9375 z m -3.94243,-5.401428 c 0.42559,-2.226303 0.34084,-2.335928 -0.70266,-0.908869 -0.65264,0.892538 -1.98386,1.656103 -2.95826,1.69681 -0.98882,0.04131 -1.25384,0.282954 -0.59978,0.546875 0.64454,0.260074 1.17188,1.122175 1.17188,1.915779 0,2.359722 2.52413,-0.296607 3.08882,-3.250595 z m -14.51121,1.178716 c -0.58833,-1.291241 -1.19536,-2.222037 -1.34897,-2.068434 C 308.22073,56.154273 309.62329,60 310.40174,60 c 0.44443,0 0.3267,-1.056471 -0.26163,-2.347712 z m 3.81758,-2.873317 C 314.53096,55.133273 315,55.025587 315,54.53967 c 0,-0.485917 -0.84375,-1.104132 -1.875,-1.37381 -1.4494,-0.379026 -1.87174,-0.03144 -1.86065,1.531284 0.0108,1.515488 0.21924,1.698153 0.83269,0.729623 0.45008,-0.710591 1.28737,-1.002099 1.86065,-0.647796 z m -9.32326,-0.169596 c -0.0292,-0.386719 -2.56045,-2.528761 -5.625,-4.760093 -3.06457,-2.231334 -5.57193,-4.497634 -5.57193,-5.036224 0,-0.575593 0.75262,-0.449057 1.8258,0.306968 1.00418,0.707424 3.54308,2.509051 5.64198,4.003617 2.0989,1.494568 4.0835,2.45007 4.41023,2.12334 0.46468,-0.464677 -2.68912,-7.674364 -6.93619,-15.856358 -0.20074,-0.386719 -0.0237,-0.701565 0.39347,-0.699657 0.41715,0.0019 2.16077,2.715523 3.87472,6.030259 2.29233,4.43332 3.59365,5.990829 4.92187,5.890778 1.51539,-0.114151 1.80562,-0.866287 1.80562,-4.679337 0,-5.32592 1.36458,-5.188553 2.23016,0.224502 l 0.60145,3.761227 1.9572,-1.9572 c 1.26497,-1.26497 1.7786,-2.670802 1.45225,-3.974823 -5.94209,-23.742942 -6.74237,-25.272072 -15.98842,-30.5498974 -7.28199,-4.1567022 -9.26342,-4.3901789 -13.90952,-1.6389923 -4.89148,2.8964817 -6.89522,5.2104777 -9.23154,10.6608677 -2.07443,4.839464 -2.41393,14.240795 -0.62721,17.368449 5.36155,9.38534 11.51652,14.642435 20.45647,17.472301 6.61253,2.093142 8.39892,2.374518 8.31859,1.310273 z m 4.55951,-5.415432 c -0.28865,-0.288645 -0.81286,0.231667 -1.16492,1.15625 -0.50876,1.336123 -0.40108,1.443808 0.52481,0.524807 0.64071,-0.635938 0.92876,-1.392413 0.64011,-1.681057 z m 31.16561,-2.771461 c 3.37744,-2.175142 7.09147,-5.177999 8.2534,-6.673017 6.23204,-8.018575 7.47325,-10.034756 8.55398,-13.894739 2.29476,-8.196083 -1.24792,-17.1072324 -8.56158,-21.5355393 -10.34753,-6.2652678 -26.85004,6.5734913 -30.42758,23.6722903 -1.13057,5.403525 -1.11334,6.92111 0.1338,11.789185 1.63547,6.383844 2.03009,7.048559 2.87595,4.844298 0.56833,-1.481068 0.71774,-1.480366 2.36582,0.01112 1.42634,1.290828 1.75916,1.335415 1.75916,0.235669 0,-0.745996 1.89844,-3.219531 4.21875,-5.496746 2.32031,-2.277215 4.21875,-3.696063 4.21875,-3.152996 0,0.543067 -0.88282,1.78634 -1.96183,2.762831 -1.07902,0.97649 -2.38673,2.569348 -2.90604,3.539685 -1.09271,2.041748 -0.27733,1.702242 4.6335,-1.929291 1.67578,-1.239232 3.04687,-1.847308 3.04687,-1.351278 0,1.312002 -4.90316,5.22958 -8.31294,6.641957 -1.61538,0.669112 -2.93706,1.638916 -2.93706,2.155121 0,0.529497 0.60612,0.435515 1.39072,-0.215636 1.15376,-0.957542 1.55321,-0.726785 2.34447,1.354404 1.19118,3.133034 2.75908,2.750851 11.31186,-2.757316 z M 323.4375,42.836874 c 0,-0.158469 1.47526,-3.217063 3.27836,-6.796875 1.8031,-3.579811 3.27966,-5.928691 3.28125,-5.21973 0.004,1.962615 -4.82859,12.304731 -5.75013,12.304731 -0.44521,0 -0.80948,-0.129656 -0.80948,-0.288126 z"
     id="path24750"
     inkscape:connector-curvature="0" />
</svg>
