<?xml version="1.0" encoding="UTF-8" standalone="no"?>
<!-- Created with Inkscape (http://www.inkscape.org/) -->

<svg
   xmlns:dc="http://purl.org/dc/elements/1.1/"
   xmlns:cc="http://creativecommons.org/ns#"
   xmlns:rdf="http://www.w3.org/1999/02/22-rdf-syntax-ns#"
   xmlns:svg="http://www.w3.org/2000/svg"
   xmlns="http://www.w3.org/2000/svg"
   xmlns:sodipodi="http://sodipodi.sourceforge.net/DTD/sodipodi-0.dtd"
   xmlns:inkscape="http://www.inkscape.org/namespaces/inkscape"
   id="svg11879"
   version="1.1"
   inkscape:version="0.91 r13725"
   width="508.125"
   height="575.625"
   viewBox="0 0 508.125 575.625"
   sodipodi:docname="SierranPea.svg">
  <metadata
     id="metadata11885">
    <rdf:RDF>
      <cc:Work
         rdf:about="">
        <dc:format>image/svg+xml</dc:format>
        <dc:type
           rdf:resource="http://purl.org/dc/dcmitype/StillImage" />
        <dc:title></dc:title>
      </cc:Work>
    </rdf:RDF>
  </metadata>
  <defs
     id="defs11883" />
  <sodipodi:namedview
     pagecolor="#ffffff"
     bordercolor="#666666"
     borderopacity="1"
     objecttolerance="10"
     gridtolerance="10"
     guidetolerance="10"
     inkscape:pageopacity="0"
     inkscape:pageshadow="2"
     inkscape:window-width="1600"
     inkscape:window-height="837"
     id="namedview11881"
     showgrid="false"
     inkscape:zoom="1.1639522"
     inkscape:cx="254.0625"
     inkscape:cy="287.8125"
     inkscape:window-x="-8"
     inkscape:window-y="-8"
     inkscape:window-maximized="1"
     inkscape:current-layer="svg11879" />
  <path
     style="fill:#000000"
     d="m 154.11866,569.88876 c 0.94602,-8.86093 10.22821,-39.53347 15.93378,-52.65242 11.44304,-26.31128 10.90251,-24.71493 9.62146,-28.41517 l -1.16157,-3.3551 -4.55541,10.62633 c -9.3001,21.69427 -13.8958,33.39574 -17.0604,43.43885 -1.78721,5.67187 -4.03601,12.63281 -4.99734,15.46875 -0.96133,2.83594 -2.47032,7.79297 -3.35332,11.01562 -1.01954,3.72101 -2.09662,5.85938 -2.95132,5.85938 -0.83277,0 -1.16978,-0.62548 -0.88395,-1.64063 0.25406,-0.90234 0.73758,-3.11718 1.07448,-4.92187 0.7542,-4.03999 10.40052,-36.56339 12.37363,-41.71875 0.78938,-2.0625 3.28441,-7.81588 5.54451,-12.7853 2.26011,-4.9694 4.10929,-9.31677 4.10929,-9.6608 0,-0.75761 3.14466,-7.76304 6.27085,-13.96975 l 2.28714,-4.54084 -3.10712,0.65523 c -1.70891,0.36039 -3.5079,1.03268 -3.99775,1.49398 -0.48984,0.4613 -6.46658,0.83873 -13.28164,0.83873 -10.2062,0 -13.14376,0.32266 -16.66004,1.82992 -7.82775,3.35535 -5.94392,-0.56588 2.23856,-4.65963 2.32031,-1.16087 6.70672,-3.99592 9.74756,-6.30012 3.04085,-2.30418 7.2596,-4.95968 9.375,-5.90108 2.11541,-0.94141 3.31997,-1.74144 2.67682,-1.77787 -1.84377,-0.10441 -13.44646,-5.73207 -17.58063,-8.52713 -2.0625,-1.39444 -6.91406,-4.10592 -10.78125,-6.02554 -10.62132,-5.27225 -10.3375,-5.08336 -21.19648,-14.1073 -11.29165,-9.3835 -11.30374,-9.39502 -27.08477,-25.80303 l -11.25,-11.69697 -13.125,-0.0568 c -10.901069,-0.0472 -14.181302,-0.40608 -19.35899,-2.11797 l -6.233988,-2.06113 -4.547262,2.25649 c -3.461263,1.71756 -6.842213,2.41545 -14.156635,2.92219 -5.285156,0.36616 -9.609375,0.42413 -9.609375,0.12884 0,-1.29608 4.343152,-2.61275 12.811942,-3.88404 12.06936,-1.8118 12.902224,-2.72944 6.829994,-7.52519 C 16.61459,383.26388 7.4076541,366.84158 2.339307,346.40625 0.85754055,340.43184 0.6849564,338.4806 0.43214009,324.84375 0.14910141,309.57671 1.7820611,295.94115 4.1806947,293.54252 c 1.2630431,-1.26305 1.7304905,-1.18355 4.3265836,0.73583 1.6008037,1.18352 4.6657587,2.32886 6.8110117,2.54518 2.145253,0.21632 4.745816,0.57962 5.779029,0.80732 1.700176,0.3747 1.846442,0.01 1.540255,-3.83972 -0.646863,-8.13325 1.680283,-15.08234 7.965319,-23.78521 l 5.759142,-7.97467 4.345367,0.22996 c 5.044637,0.26696 21.174432,7.25552 27.775949,12.03448 6.156626,4.45689 15.304475,15.11775 18.691492,21.78296 1.607465,3.16329 4.169462,10.71856 5.693329,16.78951 5.476112,21.81634 5.927734,37.83942 1.339872,47.53737 -1.32764,2.80639 -3.188593,9.03119 -4.135455,13.83287 -1.960101,9.94 -5.285998,20.16777 -7.316386,22.49929 -1.231606,1.41428 -1.070318,1.96329 1.525821,5.19384 3.525427,4.38692 25.225636,25.01874 31.594216,30.03869 5.78869,4.56287 14.64396,10.52978 15.62687,10.52978 0.41079,0 -0.63826,-1.39072 -2.33124,-3.09049 -1.69296,-1.69977 -3.82398,-5.18897 -4.73559,-7.75376 -0.91161,-2.56479 -2.42213,-5.1408 -3.35672,-5.72446 -0.93458,-0.58367 -2.66549,-3.739 -3.84645,-7.01187 -1.18096,-3.27287 -2.47568,-6.37255 -2.87714,-6.88817 -1.63169,-2.09568 -7.45713,-18.6048 -8.40036,-23.80636 -2.25798,-12.45207 -0.97089,-33.03224 2.48712,-39.76807 1.18454,-2.30734 1.1635,-5.00237 -0.16832,-21.5625 -0.83713,-10.40907 -1.71507,-23.5662 -1.95096,-29.23807 -0.74764,-17.9764 -1.82716,-23.99641 -5.575,-31.08931 -5.189581,-9.82143 -6.862869,-11.20462 -14.313145,-11.8318 -6.149975,-0.51772 -11.502624,-2.2218 -25.360567,-8.07386 -3.791708,-1.60121 -7.880091,-2.91128 -9.085297,-2.91128 -1.205207,0 -2.414118,-0.36055 -2.686469,-0.80123 -0.566024,-0.91584 2.638637,-4.0596 5.80141,-5.69115 2.94065,-1.51697 1.925277,-2.60359 -4.058306,-4.34307 C 40.757275,229.92352 27.571845,216.21231 19.348533,199.95304 16.630471,194.57885 16.292224,192.20778 18,190.5 c 1.439821,-1.43982 4.739326,-1.44818 6.171875,-0.0157 1.798704,1.79871 2.457382,0.0778 0.887358,-2.31832 -0.794612,-1.21273 -2.780791,-6.18294 -4.413729,-11.04489 -4.342253,-12.92873 -3.501939,-20.76448 2.700436,-25.18096 3.619208,-2.57711 7.759597,-2.44946 12.237426,0.37727 2.326768,1.46882 4.899065,2.2713 7.024407,2.1914 2.270699,-0.0853 4.047753,0.52634 5.504327,1.89473 1.528752,1.43618 2.44142,1.73039 3.15484,1.01696 2.032493,-2.03249 7.924544,-2.69177 10.277602,-1.14999 1.214825,0.79599 3.092537,1.21614 4.172692,0.93367 1.512277,-0.39547 3.32872,0.87154 7.898634,5.50944 4.796229,4.86759 6.234455,7.05408 7.4972,11.39777 2.502366,8.60784 2.886835,21.30578 0.900485,29.74052 l -1.688035,7.16799 2.259117,1.56088 c 6.338671,4.37957 12.071674,10.99637 15.456115,17.83885 3.23875,6.54795 3.58405,7.96368 3.62868,14.87775 0.0455,7.0408 0.24564,7.82336 2.54798,9.95972 4.47469,4.1521 7.67075,12.75978 9.97846,26.87416 l 0.68059,4.16255 2.63648,-6.71995 c 1.45007,-3.69598 3.59244,-8.12864 4.76083,-9.85035 1.16838,-1.72171 2.41307,-4.28084 2.76599,-5.68696 1.29365,-5.1543 8.12862,-18.22439 10.26109,-19.62164 1.20735,-0.79108 8.69998,-3.54094 16.65029,-6.11077 7.95031,-2.56984 15.18984,-4.97085 16.08783,-5.33559 2.97562,-1.20858 2.80321,1.98096 -0.3488,6.45276 -1.67811,2.38077 -3.39178,4.32866 -3.80814,4.32866 -0.41637,0 -0.75703,0.38135 -0.75703,0.84743 0,1.28305 9.5423,-2.59066 11.98512,-4.86538 2.78041,-2.58906 2.32225,-4.64451 -3.87771,-17.39652 -4.13466,-8.50411 -4.8552,-10.81975 -5.14356,-16.53007 -0.45903,-9.09002 1.02289,-14.15559 4.81817,-16.46971 1.64958,-1.00581 4.09655,-1.83032 5.43772,-1.83224 2.5638,-0.004 10.34919,-3.75101 12.72129,-6.12311 2.27306,-2.27307 5.03948,-3.4395 6.67183,-2.81311 0.9559,0.36682 2.0847,-0.15026 3.01214,-1.37979 3.41129,-4.52244 6.37583,0.3431 9.42501,15.46875 3.8649,19.17211 3.33584,27.03003 -2.23436,33.18577 l -2.0344,2.24827 2.34375,-0.62362 c 6.00494,-1.5978 25.11375,-5.27917 27.4025,-5.27917 3.90769,0 4.31652,3.46478 1.24891,10.5846 -3.94504,9.15631 -4.80925,10.4111 -11.86004,17.22031 -10.16711,9.81877 -10.20444,9.82987 -31.97119,9.50331 -14.26115,-0.21396 -18.74008,0.002 -19.6875,0.95045 -1.01045,1.01125 -0.9375,1.11742 0.41419,0.60282 1.24688,-0.47469 1.64063,-0.14173 1.64063,1.38732 0,1.57005 -1.46914,2.71598 -6.68938,5.21771 -9.96986,4.77793 -15.38844,5.74754 -24.09957,4.31245 -3.94889,-0.65055 -8.40844,-1.78284 -9.91011,-2.51621 -1.50167,-0.73336 -2.81911,-1.22609 -2.92764,-1.09495 -0.92401,1.11646 -3.67748,7.18132 -3.92458,8.64438 -0.17125,1.0139 -0.8697,2.7014 -1.55214,3.75 -1.22103,1.87622 -2.07919,5.01958 -4.82345,17.66786 -0.7621,3.51246 -1.38563,11.08271 -1.38563,16.82276 l 0,10.43646 2.10938,-2.78148 c 1.16015,-1.52982 3.02732,-3.82662 4.14926,-5.10402 1.12193,-1.27739 6.30125,-7.70143 11.5096,-14.27565 5.20835,-6.57421 9.89788,-11.95312 10.42119,-11.95312 0.52333,0 2.18115,2.74067 3.68406,6.09037 1.50291,3.34971 4.59185,8.0958 6.8643,10.54688 2.27246,2.45107 4.75719,5.67169 5.52163,7.15692 l 1.38988,2.70042 4.16857,-4.10667 c 2.29271,-2.25867 7.42691,-7.66466 11.40932,-12.01332 4.76518,-5.20342 7.55721,-7.5902 8.16636,-6.98105 0.50909,0.50909 1.56622,3.43427 2.34916,6.50041 2.88698,11.30576 6.50835,21.62497 9.02993,25.73104 1.42492,2.32031 3.90485,7.80469 5.51096,12.1875 5.09378,13.90015 4.76045,32.40881 -0.91189,50.63506 -1.94512,6.25004 -6.87192,14.68156 -17.29697,29.60134 l -5.95161,8.51764 2.63406,5.2913 c 2.67688,5.37728 6.14084,16.62725 6.69269,21.73591 0.25041,2.3181 2.23712,-1.09035 11.30197,-19.38985 6.04898,-12.21131 10.99815,-22.41917 10.99815,-22.68416 0,-0.26498 1.41324,-2.93017 3.14055,-5.92263 1.72731,-2.99248 5.67611,-10.29242 8.77512,-16.22211 9.18379,-17.57235 15.42375,-27.16327 26.93293,-41.39629 10.45493,-12.92926 17.38536,-19.08553 30.94798,-27.49095 5.63086,-3.48972 16.45342,-12.85784 16.45342,-14.24225 0,-1.93391 5.35977,-6.83864 9.26733,-8.48055 l 3.17357,-1.3335 -6.04627,-4.05613 c -8.08065,-5.42088 -13.37946,-11.53434 -19.19779,-22.14923 -4.81347,-8.78167 -9.69684,-19.59228 -9.69684,-21.46648 0,-0.54141 -0.97314,-2.55803 -2.16254,-4.48137 -5.073,-8.20344 -5.9367,-28.08796 -1.74002,-40.0595 0.54226,-1.54687 1.87641,-6.1875 2.96477,-10.3125 1.08836,-4.125 2.85525,-9.39844 3.92642,-11.71875 1.07116,-2.32031 2.26166,-5.30089 2.64556,-6.6235 0.38388,-1.32262 5.17949,-9.17367 10.6569,-17.4468 5.4774,-8.27313 9.95891,-15.92 9.95891,-16.99304 0,-3.47453 1.8661,-3.22322 3.53212,0.47567 1.67468,3.71811 10.32286,15.27517 11.43046,15.27517 0.34292,0 3.88859,3.00858 7.87924,6.68572 8.28007,7.62958 8.02295,8.56917 2.72746,-9.96697 -1.76766,-6.1875 -4.24848,-15.04688 -5.5129,-19.6875 -4.35879,-15.99731 -11.85492,-27.21826 -21.2499,-31.80893 -5.58146,-2.72726 -18.41703,-4.859676 -23.50558,-3.905058 -2.28612,0.428878 -4.15926,1.644318 -5.75178,3.732238 -1.29889,1.70293 -2.36162,3.36463 -2.36162,3.69266 0,0.32804 -1.38378,2.81946 -3.07506,5.53651 -1.69128,2.71704 -3.69519,6.16932 -4.45312,7.67172 -0.75794,1.5024 -3.17104,4.72845 -5.36244,7.169 -2.19141,2.44054 -3.98438,4.90271 -3.98438,5.47148 0,0.56877 -0.38061,1.03413 -0.84578,1.03413 -1.38073,0 -2.95881,-5.64325 -2.05764,-7.35813 1.17052,-2.22743 2.29998,-13.27065 1.35485,-13.24685 -1.49799,0.0377 -5.7184,7.01589 -11.32791,18.72998 -10.34954,21.61246 -19.60033,29.50072 -34.47214,29.39479 -4.15015,-0.0295 -7.6534,-0.60838 -9.51795,-1.57258 -1.81459,-0.93837 -4.3982,-1.38179 -6.71058,-1.15174 -5.55096,0.55222 -7.12197,-0.98255 -6.2555,-6.11117 0.53789,-3.18372 1.59882,-4.97215 4.5636,-7.69297 11.11593,-10.20118 10.90727,-9.70409 4.3833,-10.44219 -3.98718,-0.4511 -7.1538,-1.64538 -11.88425,-4.48212 -6.24602,-3.7456 -15.9421,-11.7776 -17.54867,-14.53691 -1.1175,-1.91931 1.43414,-4.40998 6.94801,-6.78198 2.54137,-1.09327 4.62066,-2.3979 4.62066,-2.89919 0,-0.50129 1.6875,-2.59894 3.75,-4.66144 2.70833,-2.708334 4.53125,-3.75 6.5625,-3.75 1.73096,0 2.8125,-0.484894 2.8125,-1.260947 0,-0.693525 0.8014,-1.986206 1.78089,-2.872638 2.85823,-2.586659 7.95034,-1.020167 17.90661,5.508626 16.19305,10.618549 16.77191,10.875159 21.09375,9.350829 2.0625,-0.72745 3.96094,-1.39235 4.21875,-1.47756 0.25781,-0.0852 -1.42969,-0.40797 -3.75,-0.71724 -2.43817,-0.32498 -4.21875,-1.05462 -4.21875,-1.72874 0,-0.64153 2.21423,-2.98275 4.92051,-5.202702 4.5109,-3.700275 5.79861,-4.208869 15.46875,-6.109533 13.27314,-2.608827 22.24484,-2.659569 27.75999,-0.157006 2.97893,1.351723 6.15563,1.860627 11.71875,1.877333 4.1976,0.01256 9.53044,0.454378 11.85075,0.981722 5.32236,1.209628 16.57088,6.835416 19.79776,9.901566 l 2.45401,2.33177 0.58007,-2.16586 c 0.31903,-1.19124 0.58582,-3.01586 0.59286,-4.05475 0.008,-1.03889 0.86761,-3.483783 1.91238,-5.433098 1.04478,-1.949325 2.59273,-5.318074 3.4399,-7.48612 0.84718,-2.168046 2.65144,-5.418465 4.0095,-7.223152 1.35805,-1.804688 3.87468,-6.190534 5.59252,-9.746325 4.86623,-10.072735 9.00298,-14.070248 21.63812,-20.909755 2.82652,-1.530023 6.61569,-3.626192 8.42038,-4.658154 3.78569,-2.164745 8.4375,-3.499644 8.4375,-2.421254 0,0.405755 -1.09219,2.345039 -2.42709,4.309521 -3.25455,4.789508 -2.45073,5.128762 1.81102,0.764337 l 3.48085,-3.564711 -1.8983,-9.777454 c -1.04407,-5.377601 -1.89958,-10.694306 -1.90114,-11.8149 -0.005,-3.092487 4.08366,-7.302238 9.65052,-9.938025 2.74771,-1.300978 7.81089,-4.496116 11.25149,-7.1003055 9.82724,-7.43821099 14.28478,-7.9414437 19.16862,-2.1640344 1.15759,1.3693954 2.10681,1.9710402 2.10937,1.3369886 0.007,-1.5607018 6.66693,-4.8594053 10.42604,-5.16354466 2.43635,-0.19711762 3.32241,0.24279087 4.44935,2.20898296 1.30382,2.2748086 1.22629,2.8256229 -1.05569,7.5 -1.60263,3.282808 -2.82506,7.991931 -3.49984,13.482383 -1.28713,10.472783 -1.70301,12.245093 -3.90478,16.640625 -0.96857,1.933594 -1.57649,3.515625 -1.35095,3.515625 0.22555,0 2.37847,-0.84375 4.78428,-1.875 8.62458,-3.696927 10.39555,-2.666479 12.94942,7.534697 1.61544,6.452741 0.50446,10.952201 -4.32098,17.499988 -6.55029,8.888287 -11.42412,12.005877 -20.8577,13.341837 -6.29219,0.891085 -10.37749,0.302515 -18.45045,-2.658156 -4.18781,-1.535836 -7.38091,-1.947831 -14.53125,-1.874916 -5.04022,0.05139 -10.21873,0.407553 -11.50779,0.791457 -2.16448,0.644617 -2.02243,0.788109 1.85705,1.875962 2.31044,0.647874 5.70887,0.975678 7.55208,0.728452 3.18515,-0.427217 7.56276,1.41379 6.31906,2.657485 -0.29764,0.297649 -3.43091,1.232982 -6.96281,2.078519 -7.06277,1.690826 -17.57809,1.938498 -31.30804,0.737412 l -8.9489,-0.782843 -2.68532,3.175678 c -5.39232,6.37701 -7.23571,12.10484 -7.29335,22.662108 -0.0411,7.51689 0.35433,10.58404 1.83862,14.26357 1.60049,3.96759 7.6333,24.76901 11.55545,39.84375 l 1.09764,4.21875 1.83901,-4.6875 c 1.01145,-2.57813 2.23006,-4.82813 2.708,-5 0.47796,-0.17188 0.86901,-0.68048 0.86901,-1.13024 0,-1.55634 7.16637,-11.40019 15.14063,-20.79743 2.94157,-3.46647 6.10269,-7.57976 7.02472,-9.14063 2.11894,-3.58709 3.76472,-3.6163 4.54129,-0.0806 0.39224,1.78588 3.67293,5.77724 9.31169,11.32881 4.78835,4.71432 9.5755,10.28346 10.63813,12.37588 l 1.93206,3.80438 2.85543,-5.52383 c 1.57048,-3.03811 3.75463,-7.23493 4.85366,-9.32625 2.35613,-4.48347 14.40795,-17.12879 24.52129,-25.72884 3.94131,-3.35156 7.19754,-6.62109 7.23606,-7.26562 0.14583,-2.43993 1.88476,-1.0403 2.44984,1.97182 0.74216,3.95604 2.82722,7.14282 8.49869,12.98923 6.55595,6.7582 7.2331,6.96847 11.47168,3.56226 1.97089,-1.58386 5.86947,-4.11925 8.66351,-5.63422 2.79404,-1.51496 6.69362,-3.63558 8.66573,-4.7125 1.97211,-1.07692 4.01816,-1.81387 4.54679,-1.63765 1.61708,0.53902 6.43135,16.50379 7.40169,24.54506 0.50361,4.17333 1.32772,9.93358 1.83138,12.80056 2.06466,11.75283 0.4577,29.25506 -3.72495,40.57005 -3.86905,10.4666 -8.55081,20.9662 -11.35584,25.46726 -1.28534,2.0625 -2.95803,4.87932 -3.7171,6.25961 -3.26097,5.92972 -12.97355,18.47819 -17.64954,22.80289 -2.78755,2.57813 -7.43917,6.04793 -10.33692,7.71066 l -5.26867,3.02316 21.5625,-0.23947 c 23.00049,-0.25544 25.9597,-0.77512 29.95838,-5.26115 1.51656,-1.70139 1.63807,-2.3696 0.70313,-3.86667 -1.53908,-2.46445 -1.42004,-5.1152 0.29358,-6.53738 1.16521,-0.96704 1.76121,-0.87635 3.28125,0.49927 1.02157,0.92452 1.85741,2.4593 1.85741,3.41063 0,2.11432 3.15746,2.26994 6.5625,0.32345 2.68695,-1.536 9.375,-1.87041 9.375,-0.46875 0,0.51563 -1.6306,0.9375 -3.62357,0.9375 -2.22516,0 -4.55988,0.7365 -6.04974,1.90843 -1.33439,1.04964 -3.74814,2.36926 -5.36388,2.93251 -1.61574,0.56325 -3.99981,2.00842 -5.29794,3.21148 -1.29812,1.20307 -4.32018,3.15297 -6.71567,4.33311 -3.95019,1.94606 -5.44586,2.12076 -16.0742,1.87739 -32.43836,-0.74275 -32.21569,-0.74967 -39.4027,1.22282 -2.33555,0.641 -5.71055,2.05798 -7.5,3.14885 -1.78946,1.09087 -3.9011,1.98498 -4.69256,1.9869 -1.97548,0.005 -28.87511,10.69055 -44.96724,17.863 -14.30014,6.37374 -15.45741,6.86841 -16.40625,7.01294 -2.78962,0.42488 -7.13108,2.0171 -15.28791,5.60676 -8.84552,3.89273 -9.07915,4.07503 -8.78823,6.85732 0.16437,1.57206 -0.21829,3.82458 -0.85035,5.0056 -1.10851,2.07127 -1.1738,2.08166 -1.84349,0.29323 -0.61205,-1.63452 -0.86308,-1.4631 -2.11962,1.44736 -1.38582,3.20995 -9.25183,11.22982 -11.01435,11.22982 -1.30895,0 -1.06739,-2.49439 0.73227,-7.56147 0.88528,-2.49253 1.33586,-4.8056 1.0013,-5.14015 -0.54196,-0.54196 -4.80131,2.09877 -13.41033,8.31419 -1.55688,1.12403 -5.83863,4.57493 -9.515,7.66868 -3.67637,3.09375 -9.45795,7.73437 -12.84796,10.3125 -3.39,2.57812 -8.17324,7.00781 -10.62941,9.84375 -2.45618,2.83594 -7.23288,8.10937 -10.6149,11.71875 -6.04082,6.4469 -13.64309,17.11079 -16.07692,22.55151 -0.6793,1.51854 -4.95271,9.30005 -9.49644,17.29224 -9.03793,15.8972 -33.45741,64.79262 -33.45741,66.99216 0,0.27931 1.16016,0.5143 2.57812,0.52219 1.41797,0.007 3.16695,0.3872 3.88662,0.84289 1.62102,1.02642 0.72081,3.66669 -1.5216,4.46277 -0.91404,0.3245 -2.32244,1.15372 -3.12978,1.84272 -0.80735,0.689 -2.83875,1.4028 -4.51423,1.58624 -2.6305,0.28797 -3.34714,0.98276 -5.25004,5.08996 -1.21204,2.61605 -2.00511,4.95505 -1.7624,5.19777 0.70972,0.7097 0.65994,11.28555 -0.0638,13.56599 -0.66491,2.09496 -3.34784,2.95932 -3.34784,1.07857 0,-0.55343 -0.6729,-0.86984 -1.49534,-0.70312 -0.82244,0.1667 -2.44349,2.62342 -3.60235,5.45936 -1.15886,2.83594 -3.26639,7.67816 -4.68342,10.7605 -7.82386,17.01861 -17.43333,47.5953 -18.54564,59.01095 -0.14685,1.50712 -0.8551,2.93362 -1.5739,3.17001 -1.06898,0.35156 -1.19062,-0.65931 -0.66819,-5.5527 z m 30.15118,-90.37982 c -1.64551,-3.93826 -1.89366,-7.00894 -0.56642,-7.00894 0.49,0 1.29292,0.71835 1.78426,1.59634 0.72131,1.28889 1.16018,1.3749 2.27875,0.44658 0.76196,-0.63239 6.31314,-11.15933 12.33596,-23.39323 6.02282,-12.23389 12.90229,-26.04031 15.2877,-30.68094 6.7361,-13.10452 12.91879,-25.11198 20.03302,-38.90625 3.59001,-6.96094 7.88143,-14.18272 9.53647,-16.04841 17.68926,-19.9406 31.94531,-34.71809 40.36349,-41.83984 5.86119,-4.95853 2.94811,-3.48327 -4.83155,2.44685 -6.98511,5.32448 -28.04866,26.28629 -35.0032,34.83416 -1.87985,2.31054 -4.58139,6.31037 -6.0034,8.88849 -1.42202,2.57813 -4.14383,7.04625 -6.04848,9.92917 -1.90464,2.88292 -4.09612,6.46886 -4.86996,7.96875 -4.07555,7.89955 -10.70821,20.02906 -12.64565,23.12581 -1.21252,1.93803 -2.99328,5.52397 -3.95726,7.96875 -0.96399,2.44476 -6.44077,13.80534 -12.17064,25.24573 -5.72986,11.44039 -10.41793,21.19733 -10.41793,21.68208 0,1.16579 -2.71829,3.39267 -3.35911,2.75185 -0.27571,-0.27571 -0.63145,-5.08193 -0.79054,-10.68047 -0.20879,-7.34762 -0.78994,-11.40592 -2.0892,-14.5892 -2.41124,-5.90772 -3.32314,-6.61226 -2.74045,-2.11728 0.26486,2.04314 0.9461,7.23648 1.51387,11.54075 0.56776,4.30427 0.80405,8.05419 0.52509,8.33315 -0.99771,0.9977 -2.29234,-4.29015 -2.94629,-12.03401 -0.36577,-4.33129 -0.88228,-8.24848 -1.14781,-8.70486 -1.1707,-2.01219 -2.96436,4.1969 -2.99484,10.36722 -0.0282,5.70847 0.29949,7.12551 2.16795,9.375 1.21063,1.45753 2.49274,3.84388 2.84912,5.30299 0.58468,2.39378 0.45313,2.59108 -1.34684,2.0198 -6.36326,-2.01962 -19.8646,-11.47117 -25.90436,-18.13424 -4.67302,-5.15526 -6.58259,-4.54025 -2.3307,0.75065 2.61683,3.25629 3.72338,5.67961 2.59345,5.67961 -0.84174,0 -9.61502,-4.33435 -11.57992,-5.72094 l -2.11183,-1.49028 2.40941,-6.47251 c 1.32517,-3.55989 3.25467,-9.21471 4.28779,-12.56627 1.03311,-3.35156 2.46048,-7.57031 3.17193,-9.375 1.35982,-3.44941 3.69592,-11.38569 4.94431,-16.79701 0.54915,-2.3804 0.2914,-4.10791 -1.0034,-6.72494 -0.95832,-1.93693 -2.40526,-7.03453 -3.21544,-11.328 -3.23884,-17.16405 -6.59387,-31.16186 -7.54495,-31.47889 -0.55224,-0.18408 -1.76511,0.95367 -2.69528,2.52833 -0.93018,1.57465 -1.98264,2.86301 -2.33883,2.86301 -1.38813,0 0.46567,-3.88013 2.80474,-5.87048 1.35624,-1.15405 3.30963,-4.17263 4.34088,-6.70797 1.03125,-2.53533 2.43428,-4.79597 3.11785,-5.02366 0.84713,-0.28216 0.62324,0.80058 -0.70312,3.40048 -2.13975,4.19427 -2.39391,7.08912 -1.07265,12.21786 1.99395,7.74 4.77499,19.95174 6.70197,29.42887 1.12965,5.55574 2.38426,10.30552 2.78802,10.55506 0.40375,0.24953 1.01598,-0.92107 1.36049,-2.60135 0.34452,-1.68028 1.4779,-5.79725 2.51862,-9.14881 3.70382,-11.92775 5.35965,-19.16088 4.50702,-19.68784 -2.3772,-1.46919 -5.05176,-30.04454 -3.32213,-35.49412 0.88214,-2.77939 -0.82269,-2.52174 -3.1849,0.48133 -1.0759,1.36778 -2.19539,2.24766 -2.48775,1.9553 -0.71251,-0.7125 1.33041,-4.44217 2.4332,-4.44217 0.47954,0 2.31335,-1.26563 4.07515,-2.8125 3.91726,-3.43941 4.91499,-3.59054 2.84473,-0.43091 -2.1046,3.21203 -2.81126,17.63715 -1.35267,27.61247 1.80832,12.36721 2.2746,12.73908 4.63311,3.69504 1.13423,-4.34932 3.06557,-10.4391 4.29189,-13.53285 3.85494,-9.72528 10.5839,-31.67475 11.20881,-36.5625 0.55982,-4.37866 0.50248,-4.56397 -0.87047,-2.8125 -3.91244,4.99109 -18.40007,18.90152 -23.19029,22.26635 -2.96485,2.08262 -5.39063,4.19669 -5.39063,4.69794 0,0.50125 -1.64047,2.50339 -3.64548,4.44919 -9.2588,8.98536 -22.05314,32.15215 -25.10705,45.46152 -2.86334,12.4788 -4.06246,21.75345 -3.55921,27.52882 1.02701,11.78621 7.05086,26.59646 13.78332,33.88765 3.55014,3.84479 4.52932,6.56242 2.35655,6.5404 -2.50719,-0.0254 -18.5199,-8.90887 -23.39119,-12.97686 -1.63335,-1.36401 -10.36468,-9.73784 -19.402971,-18.6085 -9.038279,-8.87067 -16.617958,-15.94377 -16.843729,-15.718 -0.592235,0.59224 26.55749,28.23711 32.67876,33.27475 11.52756,9.48687 13.67348,10.84227 36.31916,22.93991 14.30902,7.64408 21.17852,10.40743 29.24271,11.76327 6.24476,1.04993 6.97508,1.72313 4.78101,4.40701 -1.60619,1.96474 -1.89057,2.0107 -4.38659,0.7089 -1.46797,-0.76562 -4.08067,-1.39465 -5.806,-1.39783 -4.63125,-0.008 -12.52365,2.52537 -16.11216,5.17289 -3.04403,2.24581 -3.07185,2.32375 -0.85489,2.39536 1.26033,0.0407 1.76154,0.28767 1.11379,0.54882 -0.64774,0.26114 -0.93925,0.86065 -0.64779,1.33223 0.84859,1.37305 11.41488,0.98888 15.09511,-0.54882 1.8511,-0.77344 4.01918,-1.40625 4.81794,-1.40625 0.79878,0 2.11835,-0.58609 2.93239,-1.30241 2.39539,-2.10787 5.69882,-0.3091 5.69882,3.10309 0,1.53923 0.52734,3.96885 1.17188,5.39915 l 1.17187,2.60055 0.28547,-3.40176 c 0.15701,-1.87096 -0.37033,-4.97132 -1.17188,-6.88968 z M 164.0625,478.125 c 0,-0.51563 0.65771,-0.9375 1.46158,-0.9375 0.80387,0 1.20085,0.42187 0.88217,0.9375 -0.31868,0.51562 -0.97639,0.9375 -1.46158,0.9375 -0.4852,0 -0.88217,-0.42188 -0.88217,-0.9375 z m 4.6875,-0.78098 c 0,-0.93368 7.62209,-3.15943 8.34474,-2.43677 0.84344,0.84343 -1.34898,2.05914 -4.82912,2.67777 -1.97613,0.35128 -3.51562,0.24575 -3.51562,-0.241 z m -25.08654,-51.0159 c -1.90416,-2.37101 -5.62337,-10.69135 -7.01933,-15.70312 -1.95682,-7.02535 -4.5714,-17.56749 -5.36568,-21.63474 -1.0499,-5.37621 -1.90225,-6.1583 -3.89175,-3.57091 -1.15426,1.50112 -1.71706,1.77435 -1.71104,0.83065 0.0116,-1.8203 2.19424,-4.6875 3.56831,-4.6875 0.5877,0 1.07499,-1.37109 1.08288,-3.04688 0.0147,-3.12779 1.34901,-6.21476 2.28266,-5.28112 0.28816,0.28818 0.0538,1.87265 -0.52085,3.52104 -0.57463,1.64841 -0.77121,4.1426 -0.43682,5.54265 0.33439,1.40006 0.76687,3.38931 0.96107,4.42056 0.19419,1.03125 1.05223,4.40625 1.90674,7.5 0.85451,3.09375 2.34908,8.84688 3.32128,12.78473 0.97218,3.93784 3.228,10.1605 5.01293,13.82812 2.92137,6.00277 3.30436,8.60295 0.8096,5.49653 z m -19.21033,-15.07667 c -1.11485,-2.72288 -0.89435,-6.81767 0.30266,-5.62066 0.55319,0.55319 0.86959,2.43053 0.70312,4.17187 -0.23446,2.45261 -0.46112,2.77909 -1.00578,1.44879 z m -0.68878,-10.64924 c 0.008,-1.96403 0.42331,-4.20377 0.92315,-4.97721 0.65817,-1.01844 0.91275,-0.19347 0.92315,2.99154 0.007,2.41879 -0.40752,4.65854 -0.92315,4.97721 -0.56313,0.34804 -0.93177,-0.84657 -0.92315,-2.99154 z m 75.23787,67.53285 c -0.63472,-0.2568 -1.90035,-0.27243 -2.8125,-0.0348 -0.91216,0.2377 -0.39285,0.44781 1.15403,0.46692 1.54687,0.0191 2.29318,-0.17537 1.65847,-0.43218 z m -26.57801,-14.51191 c -0.96662,-5.24606 -0.86979,-6.89246 0.79225,-13.47167 1.04139,-4.12238 1.78649,-7.61261 1.65577,-7.75608 -0.13072,-0.14347 -4.82713,1.96591 -10.43646,4.6875 -6.77471,3.28702 -10.30988,5.53162 -10.52965,6.68567 -0.43265,2.27185 8.17577,10.55711 14.40175,13.86112 2.56349,1.36039 4.78613,2.36014 4.93921,2.22166 0.15309,-0.13847 -0.21721,-2.94117 -0.82287,-6.2282 z M 156.55344,437.9689 c 6.44034,-3.26553 14.52338,-8.2393 17.96232,-11.05281 10.7634,-8.80587 21.72676,-24.97481 26.30235,-38.79109 2.8526,-8.61367 2.95178,-9.46062 3.01882,-25.78125 l 0.0693,-16.875 -3.62854,-8.4375 c -1.9957,-4.64063 -5.06231,-10.60262 -6.81469,-13.24887 -1.75239,-2.64626 -4.16682,-7.61577 -5.36543,-11.04337 l -2.17928,-6.23198 -1.70234,6.35586 c -0.93628,3.49573 -3.98184,12.89492 -6.76789,20.88711 -2.78605,7.99219 -6.02857,17.7941 -7.20559,21.78202 l -2.14004,7.25079 7.09844,-6.31329 c 14.87229,-13.22725 19.05298,-20.39717 16.52309,-28.33717 -0.66694,-2.09318 -0.58397,-2.20322 0.79704,-1.05708 0.84782,0.70362 1.54148,2.20171 1.54148,3.32909 0,1.12737 0.6194,2.86869 1.37644,3.86958 0.75703,1.00089 1.3749,2.8745 1.37302,4.16356 l -0.004,2.34375 -1.18631,-2.1368 -1.18632,-2.13679 -1.49343,3.07429 c -1.85453,3.81764 -10.08411,13.27658 -15.9282,18.30757 -7.96116,6.85353 -10.13147,10.00799 -12.55289,18.24526 -3.01413,10.25359 -4.76487,16.55823 -5.491,19.77374 -0.5635,2.49532 -0.48584,2.5701 1.54627,1.48895 1.17677,-0.62608 4.39823,-2.86304 7.1588,-4.97102 2.76058,-2.10798 7.01488,-5.30926 9.45402,-7.11395 12.24116,-9.05708 21.32633,-25.23168 16.74551,-29.8125 -0.73296,-0.73296 -0.77296,-1.125 -0.11479,-1.125 1.78567,0 2.89899,2.22932 3.51139,7.03125 0.96022,7.5294 0.8797,9.8842 -0.37859,11.0714 -0.94551,0.89209 -1.05751,0.4105 -0.558,-2.39953 0.87534,-4.9242 -0.56987,-4.37622 -3.7087,1.40625 -1.46942,2.70704 -4.36767,6.55636 -6.44057,8.55407 -6.23591,6.0101 -25.49948,20.27406 -27.37986,20.27406 -0.63805,0 -1.57148,1.37109 -2.0743,3.04687 -0.50281,1.67579 -2.2936,7.58176 -3.97954,13.12441 -1.68595,5.54264 -2.79324,10.34964 -2.46066,10.68223 1.44995,1.44993 9.86648,-3.21856 16.9309,-9.39126 14.28136,-12.47866 18.31092,-18.10531 20.8235,-29.0767 l 1.31208,-5.7293 -0.51685,6.09375 c -0.28426,3.35156 -0.47802,8.20658 -0.43058,10.78894 0.0474,2.58235 -0.54713,6.37923 -1.32127,8.4375 l -1.40751,3.74231 0.5564,-6.09375 0.55641,-6.09375 -2.79848,3.75 c -2.3861,3.19739 -7.66293,8.41811 -19.01921,18.81694 -2.69618,2.46888 -11.83907,6.94141 -14.21793,6.95515 -0.87192,0.005 -1.92069,0.5365 -2.3306,1.18104 -0.70733,1.11216 -4.99036,12.78361 -4.99036,13.59894 0,0.49404 -0.57014,0.76255 13.11594,-6.17692 z m -37.43168,-50.24659 c -1.17339,-1.42141 -5.35411,-19.22871 -6.68206,-28.46147 -0.6147,-4.27373 -1.23568,-7.64873 -1.37997,-7.5 -0.74647,0.7694 -3.2422,18.28863 -3.21048,22.53645 0.0565,7.5673 4.51225,26.88542 8.05467,34.92146 l 1.65306,3.75 1.19661,-12.12144 c 0.69791,-7.06964 0.85135,-12.53968 0.36817,-13.125 z M 75,398.95455 c 0,-0.23124 -0.949219,-1.43498 -2.109375,-2.67497 -1.609752,-1.72052 -3.523574,-2.41213 -8.080027,-2.91994 -3.283858,-0.36599 -11.717129,-2.53725 -18.740602,-4.82504 -7.023473,-2.28778 -13.132257,-4.1596 -13.575076,-4.1596 -0.442819,0 0.09744,1.52973 1.200573,3.3994 1.103134,1.86968 1.788166,3.61694 1.522294,3.88281 -0.861179,0.86118 -4.216969,-3.9385 -4.249097,-6.07735 -0.01779,-1.18452 -0.937228,-2.54356 -2.140565,-3.16403 C 25.993109,380.95403 22.5,377.70848 22.5,376.53618 c 0,-0.52221 1.18324,0.18414 2.629424,1.56967 1.446183,1.38553 3.260245,2.51915 4.03125,2.51915 0.771004,0 1.802607,0.36268 2.292451,0.80595 0.489844,0.44328 5.97468,2.53364 12.188525,4.64526 11.865504,4.03218 21.911538,6.142 23.238227,4.88037 0.43237,-0.41117 -3.320234,-4.97788 -8.339118,-10.14826 -6.955536,-7.16547 -9.879753,-9.54222 -12.298509,-9.99598 -1.745294,-0.32742 -9.172378,-3.25872 -16.504631,-6.51401 -7.332253,-3.2553 -14.175119,-6.25223 -15.206369,-6.65985 -1.65445,-0.65398 -1.684976,-0.78674 -0.259518,-1.12872 1.445366,-0.34675 4.448651,0.84365 21.883428,8.6738 2.611901,1.17304 6.339196,2.57189 8.282879,3.10857 4.269282,1.1788 4.229003,0.9763 -1.595873,-8.02322 -2.265002,-3.49946 -5.975612,-9.50953 -8.2458,-13.35571 -3.719493,-6.30161 -4.574176,-7.1522 -8.643974,-8.6026 -2.483998,-0.88525 -7.546498,-3.39102 -11.25,-5.56837 -7.9079627,-4.64924 -7.6633724,-4.46875 -6.9808038,-5.15131 0.2937484,-0.29376 3.8445298,1.37259 7.8906248,3.70299 4.046095,2.3304 8.579617,4.5307 10.074493,4.88957 3.125615,0.75034 3.090504,0.64301 -2.163922,-6.61492 -4.103363,-5.66796 -4.42925,-6.23883 -9.922246,-17.38106 -2.414874,-4.89844 -4.7000691,-9.51396 -5.0782116,-10.2567 -1.2620865,-2.47899 -2.7102292,-2.05897 -3.6805423,1.06752 -0.5283692,1.70249 -1.4208307,8.79074 -1.9832476,15.75168 -0.8436227,10.44137 -0.7812311,13.88674 0.3565178,19.6875 2.5420783,12.96068 3.04496,14.758 5.0260681,17.9635 1.084556,1.75485 2.4401516,5.28642 3.0124356,7.84795 1.155659,5.17268 7.779355,16.45002 11.877242,20.22189 7.936053,7.30467 19.418688,12.57506 30.3067,13.91039 C 60.23251,399.21458 75,399.60724 75,398.95455 Z M 14.786091,365.86512 c -1.861237,-2.10979 -3.123735,-7.74012 -1.73558,-7.74012 0.556594,0 1.011989,0.85859 1.011989,1.90798 0,1.04939 0.689959,2.961 1.533242,4.24801 1.829315,2.79188 1.252109,3.92123 -0.809651,1.58413 z m -4.458434,-13.3368 c -0.590842,-1.104 -0.8862464,-2.51122 -0.6564548,-3.12717 0.2297916,-0.61595 0.9017678,0.0988 1.4932798,1.58825 1.290414,3.24937 0.679673,4.37253 -0.836825,1.53892 z m 71.995923,37.70605 c 3.956778,-8.59367 5.229101,-14.92731 5.226102,-26.01562 -0.0029,-10.90607 -2.5114,-21.33973 -7.086401,-29.47522 -3.136133,-5.57683 -13.140962,-15.97811 -19.632395,-20.41035 -6.696139,-4.57201 -21.452878,-10.81272 -26.612136,-11.25441 -3.470257,-0.2971 -4.322327,-0.14405 -3.28125,0.58936 1.161675,0.81836 1.035629,0.99316 -0.724737,1.00502 -1.983019,0.0134 -2.037559,0.16082 -0.785471,2.12372 1.860956,2.91744 3.385208,13.89289 3.385208,24.37536 0,8.37345 0.152584,9.03521 3.28125,14.23088 1.804687,2.99698 3.28125,5.61301 3.28125,5.81342 0,0.27626 9.246132,14.67977 11.037322,17.19382 0.741711,1.04104 2.068292,-2.7317 3.113506,-8.85467 2.175599,-12.74489 -2.373705,-44.03979 -6.916897,-47.58171 -1.709471,-1.33272 -1.796733,-1.62347 -0.492384,-1.64062 0.871913,-0.0115 1.846029,0.40102 2.164703,0.91665 0.318674,0.51562 1.351522,0.9375 2.295218,0.9375 2.1444,0 6.387778,3.3422 5.444905,4.28856 -0.383558,0.38496 -1.546301,-0.0683 -2.583873,-1.00731 -2.624667,-2.37529 -2.954917,-1.55169 -1.42123,3.54436 4.261755,14.16073 5.270073,38.55145 1.977112,47.82536 l -1.595976,4.49471 8.723172,9.20653 c 7.953446,8.39414 8.795702,9.03158 9.54514,7.22402 1.006226,-2.42688 1.156271,-31.72036 0.202235,-39.48248 -1.049721,-8.54061 -5.142544,-22.23863 -7.353017,-24.60938 -2.871112,-3.07928 -0.469074,-2.5819 2.948419,0.61051 2.736125,2.55593 3.961041,4.60184 2.046903,3.41884 -0.475607,-0.29394 0.117675,2.73975 1.318406,6.74155 3.28038,10.93284 4.578684,24.09265 3.963149,40.17107 -0.294359,7.68895 -0.814752,14.89013 -1.156431,16.00261 -0.429689,1.39904 -0.01639,2.62754 1.340442,3.98438 3.447386,3.44738 5.163292,2.54985 8.347756,-4.36646 z M 120.775,374.15011 c -0.94188,-2.78775 -1.7125,-6.05728 -1.7125,-7.26563 0,-1.20834 -0.4503,-2.19698 -1.00068,-2.19698 -0.55037,0 -0.79264,0.73828 -0.53839,1.64062 0.25425,0.90235 0.96474,4.80469 1.57885,8.67188 1.29723,8.16885 1.9963,9.80229 2.80456,6.55305 0.32795,-1.31838 -0.16465,-4.54025 -1.13184,-7.40294 z m 5.11997,-11.78059 c -0.66411,-1.01706 -1.21853,-2.49363 -1.23205,-3.28125 -0.0135,-0.78761 -0.86145,-3.11952 -1.88427,-5.18202 l -1.85969,-3.75 0.48262,6.09375 c 0.26545,3.35156 0.96422,8.55459 1.55283,11.56229 l 1.07019,5.46854 1.53892,-4.53104 c 1.2757,-3.75605 1.33239,-4.84733 0.33145,-6.38027 z m 5.9386,-18.04246 c -1.25296,-2.98144 -2.79548,-8.05753 -3.42781,-11.28019 -0.63234,-3.22265 -1.43525,-5.85937 -1.78425,-5.85937 -0.34901,0 -1.09299,1.16016 -1.6533,2.57812 -0.85375,2.16057 -1.0349,2.26512 -1.11848,0.64553 -0.0548,-1.06293 0.71861,-2.81099 1.71881,-3.88458 1.0002,-1.07359 1.53977,-2.23076 1.19903,-2.5715 -0.34074,-0.34074 -0.20746,-0.91299 0.29616,-1.27167 0.50363,-0.35868 2.11605,-2.26189 3.58316,-4.22935 1.4671,-1.96746 2.91129,-3.33337 3.20931,-3.03534 0.29803,0.29802 -0.47589,1.90775 -1.7198,3.5772 -1.84498,2.47611 -2.24498,4.08616 -2.17108,8.73887 0.0814,5.12252 3.27574,17.51055 5.00733,19.41872 0.37296,0.41099 2.11372,-1.18949 3.86835,-3.55662 6.56964,-8.86292 11.33086,-14.20133 16.72549,-18.75313 3.05551,-2.57813 5.58248,-4.89844 5.61549,-5.15625 0.033,-0.25781 -3.10225,-4.65161 -6.96723,-9.76401 -3.86499,-5.11238 -7.02725,-9.64754 -7.02725,-10.07812 0,-0.43058 -0.42188,-0.78287 -0.9375,-0.78287 -0.51563,0 -0.93816,1.37109 -0.93895,3.04687 -8e-4,1.67579 -0.81094,7.47657 -1.8003,12.89063 -0.98937,5.41406 -2.08124,13.42575 -2.4264,17.80374 -0.34516,4.378 -0.8298,8.28722 -1.07698,8.68717 -2.10173,3.40066 -1.58006,-8.52808 1.09701,-25.08466 0.75036,-4.64063 1.62499,-10.125 1.94363,-12.1875 l 0.57933,-3.75 -1.68272,2.34375 c -0.92549,1.28906 -5.08148,6.17515 -9.23554,10.85798 -7.71553,8.69766 -11.33178,14.00804 -10.96041,16.09514 0.11469,0.64454 -0.16413,1.17188 -0.61959,1.17188 -2.64107,0 -3.06907,12.20073 -0.48846,13.92434 0.49977,0.3338 1.88028,3.56003 3.06779,7.16941 3.84368,11.68261 3.5942,11.53815 7.21905,4.18018 l 3.18423,-6.46355 -2.27811,-5.42082 z m -37.170651,-0.90951 c 0.02981,-9.319 -2.221834,-19.69633 -4.894686,-22.55818 -1.08354,-1.16015 -2.219386,-2.10937 -2.524103,-2.10937 -0.304718,0 -1.337227,2.21484 -2.294466,4.92187 -0.957239,2.70704 -2.160504,5.18835 -2.673921,5.51401 -0.562005,0.35651 -0.169923,1.66229 0.985251,3.28125 1.735838,2.43279 7.567728,20.95362 7.752395,24.61995 0.04174,0.82867 0.874425,-0.18083 1.850415,-2.24333 1.281887,-2.70893 1.781349,-5.88105 1.799115,-11.4262 z m 20.447551,-21.73539 c -0.20725,-15.93359 -0.52799,-20.40514 -1.43859,-20.05594 -0.78999,0.30294 -1.18447,-0.57622 -1.21051,-2.69779 -0.19916,-16.2237 -4.75784,-34.69622 -10.0963,-40.91191 -1.2035,-1.40127 -2.00838,-2.1259 -1.78859,-1.61027 1.99011,4.6689 5.72289,12.69127 6.89956,14.82833 1.04354,1.89527 1.69361,7.31069 2.3026,19.18162 1.23422,24.05849 4.04969,51.7713 5.25966,51.7713 0.18639,0 0.21887,-9.2274 0.0722,-20.50534 z M 30.04131,316.73067 C 28.908315,309.42834 26.514829,303.75 24.569812,303.75 c -0.761343,0 -1.115569,-0.5664 -0.826062,-1.32084 0.380692,-0.99207 -0.955258,-1.57546 -5.367116,-2.34375 -8.9394159,-1.55673 -8.9655712,-1.54987 -7.711696,2.02396 0.587947,1.67579 1.33901,3.46875 1.669031,3.98438 0.330021,0.51562 2.718486,5.00411 5.307701,9.97441 2.589213,4.97031 6.53453,11.40179 8.767371,14.29219 l 4.059709,5.25527 0.280972,-6.25411 c 0.154534,-3.43976 -0.164251,-9.12364 -0.708412,-12.63084 z m 52.977671,6.23702 c 1.518672,-3.97657 1.504962,-7.53085 -0.04701,-12.18644 -0.616293,-1.84875 -0.604285,-1.84953 0.857741,-0.0552 0.815531,1.00092 1.482784,2.53444 1.482784,3.40783 0,1.39709 4.432195,5.26203 5.110782,4.45667 0.94924,-1.12656 -2.889903,-13.79094 -6.128422,-20.21614 -6.033448,-11.97032 -19.479665,-25.67188 -25.672033,-26.15955 l -2.994231,-0.23581 0.409761,7.21362 c 0.31058,5.46756 -0.02303,8.48935 -1.37829,12.48425 l -1.788053,5.27066 2.392118,6.12219 c 2.011111,5.14707 3.04454,6.51715 6.488294,8.60192 2.252896,1.36386 4.251175,2.32473 4.44062,2.13529 0.189445,-0.18945 1.187345,-3.68992 2.217556,-7.77883 2.241171,-8.89521 2.460765,-17.11837 0.525463,-19.67707 -0.757038,-1.00089 -1.389851,-2.39177 -1.40625,-3.09083 -0.02709,-1.15521 2.931527,1.55577 6.532685,5.98588 1.274027,1.56729 1.251989,1.67214 -0.234375,1.1151 -1.43034,-0.53606 -1.642685,0.0122 -1.656692,4.27758 -0.015,4.56699 -2.671929,16.9469 -4.150535,19.33934 -0.692646,1.12072 11.645318,14.23243 12.764641,13.56513 0.346109,-0.20633 1.351158,-2.26534 2.233442,-4.57557 z m 238.325089,-14.891 c 1.26828,-1.63851 2.09343,-4.02086 2.09343,-6.04406 l 0,-3.33951 -2.81765,3.8314 C 318.23959,305.76118 315,312.88004 315,314.87392 c 0,0.66781 3.31543,-2.88443 6.34407,-6.79723 z m -9.8597,-1.48442 c 2.96485,-1.6617 5.39063,-3.21328 5.39063,-3.44797 0,-0.72644 -14.39479,7.08282 -16.875,9.1548 -2.49024,2.08034 -1.78057,1.72769 11.48437,-5.70683 z m -258.875393,-5.1636 c -1.346937,-2.86549 -2.970359,-4.62127 -5.291184,-5.72257 -1.841436,-0.87382 -5.859268,-4.16301 -8.928515,-7.30929 -5.012534,-5.13838 -5.771079,-5.60149 -7.453614,-4.55073 -2.176787,1.35942 -2.541663,0.0633 -0.466914,-1.65858 0.773438,-0.6419 1.40625,-2.17012 1.40625,-3.39604 0,-1.22593 0.421875,-2.22896 0.9375,-2.22896 0.515625,0 0.9375,1.03492 0.9375,2.29982 0,3.46834 11.874972,15.51268 15.294537,15.51268 0.827875,0 -3.488973,-11.87707 -8.688986,-23.90625 -0.445792,-1.03125 -1.079902,-2.70038 -1.409133,-3.70915 -0.553126,-1.69483 -0.768384,-1.6236 -2.833482,0.9375 -3.500177,4.34085 -8.892361,14.46626 -9.95837,18.69977 -0.532691,2.1155 -0.834605,5.72523 -0.670923,8.02162 l 0.297607,4.17526 4.6875,0.80766 c 5.560765,0.9581 17.78171,4.81648 21.09375,6.65967 3.118846,1.73568 3.417791,0.41234 1.046477,-4.63241 z m 265.862833,-9.2524 c -2.24767,-4.74714 -2.92546,-5.35858 -9.38311,-8.46458 -3.82824,-1.84131 -8.21549,-4.51955 -9.74946,-5.95164 -1.53396,-1.43209 -4.85522,-4.2913 -7.38057,-6.3538 l -4.59156,-3.75 2.27727,3.28125 c 9.22727,13.29523 11.64705,15.97117 20.43547,22.5987 9.3721,7.06771 12.16775,6.61467 8.39196,-1.35993 z m -200.38102,-0.71292 c 1.11288,-3.66391 1.81175,-6.87332 1.55304,-7.13201 -0.2587,-0.25871 -1.16117,2.00075 -2.00549,5.02101 -0.84432,3.02027 -1.74147,6.22968 -1.99366,7.13202 -0.25219,0.90235 -0.26025,1.64063 -0.0179,1.64063 0.24233,0 1.35115,-2.99774 2.46403,-6.66165 z m 211.53036,-0.50294 c 2.84036,-2.90927 6.04658,-7.02255 7.12493,-9.14063 1.07835,-2.11806 3.30514,-5.53853 4.94842,-7.60103 10.37766,-13.02515 14.50198,-30.80501 12.72185,-54.84375 -1.31433,-17.74868 -5.11817,-25.24462 -21.11328,-41.60633 C 322.94182,167.16996 316.17823,161.25 314.43038,161.25 c -0.38209,0 0.28047,1.03804 1.47237,2.30676 1.72444,1.83559 2.0571,2.98452 1.62861,5.625 -0.45082,2.77811 -0.26155,3.31824 1.16279,3.31824 0.93569,0 2.23761,0.64625 2.89314,1.43611 1.03991,1.25303 0.89517,1.32332 -1.13534,0.55131 -3.17569,-1.20739 -3.97137,-0.46534 -5.91098,5.51258 -2.05838,6.34397 -4.67276,11.71242 -7.6168,15.64057 -2.54305,3.39311 -2.86188,8.76624 -1.2415,20.92193 0.51552,3.86719 1.58361,11.88281 2.37357,17.8125 0.78994,5.92969 2.01471,15.42187 2.72171,21.09375 1.28433,10.30364 2.59114,16.15275 5.73958,25.68962 l 1.67199,5.06462 3.55896,-4.12712 c 1.95742,-2.26991 3.56009,-4.47167 3.56149,-4.8928 9.4e-4,-0.42112 1.01767,-2.10862 2.2584,-3.75 2.99161,-3.95764 15.55663,-25.03518 15.55663,-26.0959 0,-0.45756 1.05085,-2.49659 2.33523,-4.53118 1.69883,-2.69112 2.40142,-5.24081 2.57812,-9.35598 0.25341,-5.90143 1.64915,-8.01175 1.64915,-2.49345 0,1.74024 0.219,4.58789 0.48667,6.32813 0.37832,2.45964 0.28863,2.74663 -0.40286,1.28906 -0.48924,-1.03125 -0.91918,-1.33566 -0.95541,-0.67645 -0.29638,5.39076 -24.45833,46.80595 -28.7173,49.22334 -1.06267,0.60317 -0.93034,1.48259 0.74058,4.92188 1.11894,2.30311 2.39067,4.18748 2.82606,4.18748 0.43539,0 3.11555,-2.38031 5.95591,-5.28959 z m -16.808,-27.20976 c -0.31535,-0.31535 0.43455,-1.77122 1.66645,-3.23524 1.98125,-2.35458 3.32777,-4.9101 8.59419,-16.31063 0.71812,-1.55456 1.69233,-4.08581 2.1649,-5.625 0.47258,-1.5392 2.37001,-6.36855 4.21652,-10.73191 1.84651,-4.36336 3.35729,-8.68758 3.35729,-9.60937 0,-0.9218 0.42187,-1.676 0.9375,-1.676 1.35239,0 1.1972,1.01688 -1.31804,8.63616 -3.72334,11.27889 -11.63866,29.68765 -14.64177,34.05252 -3.05787,4.44447 -4.0947,5.38181 -4.97704,4.49947 z m -3.64702,-29.89702 c -0.372,-0.37199 0.40839,-1.96549 1.73418,-3.5411 5.64455,-6.70816 17.22469,-35.78925 17.22469,-43.25616 0,-1.22922 -0.68303,-2.91797 -1.51786,-3.7528 -0.83481,-0.83482 -1.30479,-1.73092 -1.04437,-1.99133 0.66786,-0.66787 4.43723,4.29775 4.43723,5.84544 0,0.7039 0.58608,1.27982 1.30239,1.27982 1.60643,0 6.16495,3.67544 4.61232,3.71881 -0.6141,0.0172 -1.37728,-0.39069 -1.69596,-0.90631 -0.68108,-1.10201 -3.27814,-1.20881 -4.86466,-0.20005 -0.61307,0.3898 -1.31883,1.83467 -1.56837,3.2108 -1.3075,7.21043 -4.71577,17.31207 -8.50171,25.19791 -4.3741,9.11093 -8.92593,15.58692 -10.11788,14.39497 z m 29.80497,-24.85208 c -1.50669,-1.51862 -4.29555,-7.64545 -4.23967,-9.31405 0.0504,-1.50439 2.76857,3.51567 2.76857,5.11313 0,1.08983 0.89915,2.34841 2.04873,2.86769 1.1268,0.50898 2.21664,1.45277 2.42187,2.09731 0.54373,1.70757 -0.91628,1.33566 -2.9995,-0.76408 z M 53.388205,289.92187 c 1.210669,-4.35941 1.283492,-15.26943 0.122307,-18.32358 C 52.140637,267.99524 41.25,264.35485 41.25,267.5 c 0,0.6875 0.260406,1.5104 0.578679,1.82868 0.821335,0.82133 6.623523,15.36366 8.028751,20.12287 0.647301,2.19227 1.486855,3.98595 1.865674,3.98595 0.37882,0 1.128115,-1.58203 1.665101,-3.51563 z m 293.986065,0.11851 c 3.37921,-1.35278 5.9859,-2.6177 5.79268,-2.81094 -0.33657,-0.33655 -11.9694,4.12082 -12.77633,4.89553 -0.89261,0.85698 1.18456,0.23696 6.98365,-2.08459 z m -7.44707,-0.79607 c 1.81745,-0.75939 7.23152,-4.87267 12.03127,-9.14063 4.79974,-4.26796 11.35707,-9.86931 14.57185,-12.44743 9.43524,-7.56669 17.06709,-17.27489 24.68923,-31.40625 1.52964,-2.83594 3.35496,-6.21094 4.05628,-7.5 0.70131,-1.28906 1.27772,-2.84096 1.28089,-3.44866 0.003,-0.60771 0.60873,-1.70786 1.34568,-2.44481 1.57458,-1.57458 3.3476,-15.83334 3.3476,-26.9216 0,-20.21277 -11.21002,-47.21972 -22.95371,-55.29958 -2.28269,-1.57054 -4.83848,-3.79739 -5.67952,-4.94856 -1.43245,-1.96067 -1.49295,-1.29262 -0.95662,10.56321 0.79446,17.5623 0.85397,45.46542 0.10894,51.09375 -0.56605,4.27637 -1.56102,9.38541 -4.3818,22.5 -1.97843,9.19831 -8.22245,28.27809 -12.27218,37.5 -4.69398,10.68895 -5.59794,12.3171 -13.57598,24.45212 -3.19255,4.85602 -5.60478,8.82913 -5.36052,8.82913 0.24426,0 1.93112,-0.62131 3.74859,-1.38069 z m 11.6353,-20.62648 c 0,-0.24458 1.22566,-1.0785 2.72368,-1.85315 1.49802,-0.77466 3.41655,-2.10134 4.26339,-2.94819 0.84685,-0.84683 1.78079,-1.29863 2.07543,-1.00399 0.64557,0.64557 -1.99875,3.4375 -3.25575,3.4375 -0.48932,0 -1.41485,0.63281 -2.05675,1.40625 -1.07788,1.29877 -3.75,1.98396 -3.75,0.96158 z m 19.6875,-15.2726 c 3.35156,-3.1021 6.27728,-5.46763 6.50158,-5.25674 0.67922,0.63857 -6.25791,7.30586 -9.53165,9.1609 -2.10343,1.19189 -1.15371,-0.0318 3.03007,-3.90416 z m -8.4375,-9.52436 c 0,-0.44427 0.63281,-1.05059 1.40625,-1.3474 0.77344,-0.29679 1.40625,-0.17613 1.40625,0.26815 0,0.44428 -0.63281,1.0506 -1.40625,1.34741 -0.77344,0.29679 -1.40625,0.17613 -1.40625,-0.26816 z m 16.875,0.15871 c 0,-0.51562 0.63281,-1.46268 1.40625,-2.10458 0.77344,-0.6419 1.40625,-1.95918 1.40625,-2.92729 0,-0.96812 0.39993,-1.76021 0.88873,-1.76021 1.20468,0 -0.65481,5.20129 -2.36772,6.62287 -0.77619,0.64418 -1.33351,0.7149 -1.33351,0.16921 z m 11.26435,-27.59612 c -0.007,-0.87192 0.40752,-1.84603 0.92315,-2.16471 1.1865,-0.73329 1.1865,0.50778 0,2.34375 -0.78319,1.2119 -0.91077,1.18715 -0.92315,-0.17904 z m -20.63935,-4.14541 c 0,-0.31596 1.09305,-1.89799 2.429,-3.51563 1.33594,-1.61765 4.54249,-6.23853 7.12566,-10.26863 2.58316,-4.03011 4.88099,-7.14314 5.10628,-6.91785 0.45132,0.45131 -7.27059,13.40463 -10.86733,18.22968 -2.07748,2.78698 -3.79361,3.90543 -3.79361,2.47243 z m 22.5,-2.0818 c 0,-1.11719 -0.43672,-2.03125 -0.97048,-2.03125 -0.66898,0 -0.66898,-0.56337 0,-1.81337 0.53376,-0.99735 0.97048,-2.89579 0.97048,-4.21875 0,-1.32296 0.38187,-2.40538 0.8486,-2.40538 0.46999,0 0.62253,2.61414 0.34187,5.85937 -0.50404,5.82821 -1.19047,8.48601 -1.19047,4.60938 z m -5.98366,-23.41562 c -0.29964,-0.48483 0.13144,-2.86617 0.95795,-5.29186 0.91686,-2.69085 1.32064,-6.02608 1.03564,-8.55455 -0.27761,-2.46299 -0.0847,-4.14422 0.47568,-4.14422 0.58983,0 0.77995,2.81324 0.50781,7.51423 -0.39592,6.83914 -0.28749,7.46741 1.2069,6.99311 0.90304,-0.28661 1.91322,-0.082 2.24486,0.45452 0.33164,0.53661 -0.12698,0.97564 -1.01916,0.97564 -0.89217,0 -2.35175,0.66029 -3.2435,1.46732 -0.91052,0.82401 -1.86024,1.08084 -2.16618,0.58581 z m -13.54759,-12.14086 c 1.68462,-3.8422 5.94603,-10.51169 6.21012,-9.7194 0.43481,1.30441 -4.51397,10.43213 -5.65599,10.43213 -0.47664,0 -0.72601,-0.32073 -0.55413,-0.71273 z m 7.11694,-14.76988 c 0.50336,-2.63313 2.10181,-4.14895 2.10181,-1.99314 0,1.96609 -1.01141,4.35075 -1.8453,4.35075 -0.38895,0 -0.50438,-1.06092 -0.25651,-2.35761 z m -16.40797,123.57857 c 3.48368,-1.3526 6.17385,-2.61939 5.97814,-2.8151 -0.39933,-0.39932 -14.86165,5.20604 -15.59336,6.04373 -0.55264,0.6327 1.09579,0.0792 9.61522,-3.22863 z M 315,283.77998 c 0,-0.1554 -1.04584,-3.8468 -2.32408,-8.20313 -1.27824,-4.35633 -2.33293,-8.77154 -2.34375,-9.81158 -0.0198,-1.89897 -18.30272,-20.58856 -22.05092,-22.54136 -2.59672,-1.35288 -5.15625,-0.6197 -5.15625,1.47701 0,0.96301 -0.42188,2.01166 -0.9375,2.33033 -1.79647,1.11027 -0.92316,-3.22157 1.01315,-5.02552 l 1.95065,-1.8173 -2.51309,-3.79753 c -1.38219,-2.08864 -2.34111,-4.31345 -2.13093,-4.94401 0.21019,-0.63057 1.686,0.97251 3.27958,3.56239 1.59357,2.58989 4.93442,6.35433 7.42413,8.36543 2.4897,2.0111 7.59512,6.77212 11.34538,10.58006 3.75024,3.80794 6.81863,6.56714 6.81863,6.13156 0,-0.43558 -0.67138,-6.2859 -1.49196,-13.00071 l -1.49195,-12.20873 -3.68888,-3.15754 c -2.02888,-1.73665 -4.33992,-4.41651 -5.13563,-5.95525 -0.79571,-1.53875 -4.07763,-5.82062 -7.29313,-9.51529 -3.21552,-3.69466 -6.13958,-7.49092 -6.49791,-8.43615 -0.99753,-2.63126 -2.84528,-1.38061 -4.37164,2.95894 -0.75753,2.15375 -1.68657,3.9159 -2.06452,3.9159 -0.86567,0 1.61653,-8.39341 2.8457,-9.62258 0.50113,-0.50113 0.68701,-2.29226 0.41309,-3.9803 -0.51667,-3.18385 1.16714,-9.83462 2.48988,-9.83462 0.41533,0 0.14558,1.76926 -0.59943,3.93169 -1.21103,3.51501 -1.18786,4.36821 0.21855,8.05085 0.86521,2.26556 3.97073,6.71895 6.90113,9.89645 2.93041,3.17749 7.3324,8.62492 9.78222,12.10538 5.07791,7.21421 6.65099,7.9692 5.86007,2.8125 -2.0874,-13.60959 -2.65088,-23.49129 -2.77071,-48.58939 -0.0749,-15.68271 -0.18164,-28.51535 -0.23725,-28.51699 -0.0556,-0.002 -1.62528,2.46634 -3.48814,5.4844 -1.86286,3.01807 -4.02754,6.019 -4.81043,6.66873 -0.78288,0.64973 -1.18747,1.5631 -0.89909,2.0297 0.28837,0.46661 -0.37641,2.30579 -1.4773,4.08707 -1.94587,3.14849 -1.95973,3.40225 -0.49727,9.11074 0.82739,3.22964 2.22581,6.88283 3.10759,8.11821 0.8818,1.23539 2.07193,3.04993 2.64473,4.03231 0.57281,0.98238 2.01588,2.82335 3.20682,4.09104 2.44321,2.60068 1.81479,4.36927 -0.72692,2.0458 -0.9055,-0.82776 -3.33387,-4.25549 -5.39637,-7.61717 -3.53011,-5.75375 -6.08138,-7.53669 -7.5,-5.24132 -0.77347,1.25149 -2.34375,1.19693 -2.34375,-0.0815 0,-0.56042 1.2648,-1.49634 2.81066,-2.07984 1.812,-0.68396 2.66964,-1.57107 2.41375,-2.4967 -0.21831,-0.78967 -0.69065,-2.88778 -1.04965,-4.66244 l -0.65271,-3.22666 -1.48485,2.75791 c -0.81667,1.51685 -2.89414,6.13291 -4.61661,10.25791 -8.02178,19.21071 -10.56615,38.86449 -6.89477,53.25835 1.89909,7.44549 4.95633,16.0204 7.58449,21.2729 1.7298,3.45707 19.01791,18.74472 25.16592,22.2539 4.61052,2.6316 7.66127,3.73704 7.66127,2.77608 z m 61.40625,-9.01704 c 6.70312,-2.66602 13.03125,-5.209 14.0625,-5.65105 1.03125,-0.44205 4.45952,-1.72061 7.61839,-2.84124 l 5.74338,-2.0375 -4.57151,-4.27612 c -2.51433,-2.35186 -4.57151,-4.98697 -4.57151,-5.85581 0,-0.86884 -0.67462,-3.5596 -1.49914,-5.97945 l -1.49914,-4.39974 -4.36023,5.80493 c -5.06447,6.7425 -17.7942,19.62511 -26.7147,27.03554 -3.41383,2.83594 -6.39544,5.64059 -6.62578,6.23256 -0.236,0.60647 1.90546,0.14626 4.90571,-1.05424 2.9285,-1.17181 10.8089,-4.31185 17.51203,-6.97788 z M 130.74027,265.3125 c 0.66489,0 3.21979,0.88952 5.67756,1.97671 6.11718,2.70591 17.73554,2.64834 25.14692,-0.1246 2.90103,-1.08542 5.49291,-2.32671 5.75972,-2.75842 0.66985,-1.08383 -10.00196,-2.2221 -13.54253,-1.44445 -2.85266,0.62655 -10.87789,-0.24079 -10.03421,-1.08447 0.24011,-0.24012 3.04185,-1.04434 6.22608,-1.78717 7.98432,-1.86262 14.91915,-5.32088 18.79279,-9.3716 l 3.26465,-3.41388 -5.15625,0.67849 c -2.83594,0.37318 -8.22582,1.89371 -11.97753,3.37895 -6.83519,2.70594 -10.52247,3.37923 -10.52247,1.92136 0,-0.78326 1.37883,-1.57412 7.57665,-4.34574 3.58917,-1.60505 13.72263,-10.4509 12.90677,-11.26677 -0.26881,-0.2688 -2.98364,0.39603 -6.03295,1.4774 -3.04933,1.08138 -8.22308,2.67816 -11.49724,3.5484 -9.58095,2.54655 -15.20182,8.58312 -18.87599,20.27204 -0.64831,2.0625 -1.54965,4.15078 -2.00299,4.64062 -0.45334,0.48985 -0.81088,1.3336 -0.79455,1.875 0.0163,0.54141 0.89528,-0.17578 1.9532,-1.59375 1.05792,-1.41796 2.46749,-2.57812 3.13237,-2.57812 z M 414.22051,253.125 c 2.36891,-18.8131 2.41619,-17.57858 -0.69939,-18.26288 -1.76067,-0.38671 -4.36513,-2.47321 -7.13675,-5.71743 l -4.36434,-5.10851 -4.10747,7.84976 c -4.67503,8.93438 -4.65725,9.49935 0.60976,19.3813 3.527,6.61732 6.55922,9.35776 10.35411,9.35776 1.9223,0 2.69418,0.4665 2.71458,1.64062 0.0695,3.99599 1.68059,-1.60469 2.6295,-9.14062 z m 5.61255,6.83163 c 2.41213,-1.39886 4.52631,-2.87542 4.69819,-3.28125 0.17188,-0.40584 0.80469,-0.74626 1.40625,-0.7565 0.60156,-0.0102 3.63271,-2.01415 6.73588,-4.45312 12.00258,-9.43359 19.80953,-20.30536 27.42005,-38.18451 3.07277,-7.21875 6.17207,-14.8125 6.88734,-16.875 1.99763,-5.76028 1.73497,-27.19443 -0.44805,-36.5625 -2.05026,-8.79827 -2.98917,-10.7794 -9.29732,-19.61732 -5.28239,-7.40081 -8.93351,-11.27007 -13.7979,-14.62226 -4.14479,-2.8563 -4.76308,-3.49051 -7.178,-7.36275 l -1.97373,-3.16482 -0.97486,3.16482 c -0.53617,1.74065 -1.2464,7.59452 -1.57829,13.00858 -0.3319,5.41406 -0.96162,11.32031 -1.39938,13.125 -0.43777,1.80469 -1.08084,6.65625 -1.42905,10.78125 l -0.63312,7.5 3.72661,-3.60179 c 3.26006,-3.15087 8.47694,-10.28766 13.64297,-18.66384 0.87454,-1.41796 2.00752,-2.57812 2.51772,-2.57812 0.51021,0 -0.13762,1.6875 -1.43962,3.75 l -2.36727,3.75 5.11268,0 c 2.81198,0 5.31258,0.32344 5.55689,0.71875 0.24432,0.39531 -2.11661,0.71875 -5.2465,0.71875 -5.35263,0 -5.83523,0.18735 -8.12326,3.15345 -7.73724,10.03023 -10.2033,12.84125 -11.95189,13.62373 -1.70076,0.76108 -2.02542,1.99729 -2.57397,9.80115 -0.34525,4.91162 -1.27445,11.77358 -2.06487,15.24881 -0.79043,3.47523 -1.30318,7.59829 -1.13948,9.16236 l 0.29767,2.84376 3.73862,-3.026 c 4.73061,-3.82892 10.55246,-9.77028 18.22142,-18.59547 8.48752,-9.76717 8.50871,-9.78872 8.50871,-8.65252 0,2.93855 -25.14429,29.5097 -29.56581,31.24356 -1.6817,0.65947 -2.2138,2.80222 -4.45927,17.95737 -1.40234,9.46471 -2.99022,21.63824 -3.52861,27.0523 -0.5384,5.41406 -1.34538,11.21484 -1.79329,12.89062 -0.44791,1.67579 -0.6071,3.04688 -0.35376,3.04688 0.25333,0 2.43417,-1.14452 4.8463,-2.54337 z M 420,234.47593 c 0,-1.07637 5.85478,-5.80865 6.45004,-5.21339 0.22741,0.2274 -0.38782,1.29888 -1.36718,2.38104 C 422.83535,234.12707 420,235.70702 420,234.47593 Z m 8.61328,-7.65952 c 0.22559,-0.67677 0.96386,-1.41505 1.64063,-1.64063 0.70312,-0.23437 1.05468,0.11719 0.82031,0.82031 -0.22559,0.67676 -0.96387,1.41504 -1.64063,1.64063 -0.70312,0.23437 -1.05468,-0.11719 -0.82031,-0.82031 z m 4.04817,-4.63466 c 0.93613,-1.03441 1.90539,-1.67742 2.1539,-1.42891 0.62993,0.62995 -1.70833,3.30966 -2.88794,3.30966 -0.53241,0 -0.20209,-0.84634 0.73404,-1.88075 z m 13.35417,-13.9005 c 0.90235,-0.94532 1.80622,-1.58832 2.0086,-1.42891 0.55381,0.43623 -1.88098,3.14766 -2.82651,3.14766 -0.45249,0 -0.0845,-0.77344 0.81791,-1.71875 z M 459.375,196.95168 c 0,-0.47346 -0.28992,-1.63361 -0.64428,-2.57813 -0.56715,-1.51173 -0.45492,-1.56327 0.9375,-0.43064 1.72941,1.40676 2.13946,3.86959 0.64428,3.86959 -0.51563,0 -0.9375,-0.38738 -0.9375,-0.86082 z m 1.30595,-9.05961 c 0.31298,-0.8156 0.61896,-2.81951 0.67997,-4.45312 l 0.11092,-2.9702 0.63877,2.8125 c 0.74586,3.28403 0.25238,6.09375 -1.07025,6.09375 -0.51066,0 -0.67239,-0.66731 -0.35941,-1.48293 z m -3.56587,-24.91943 c 0.83772,-6.56084 1.32242,-6.92616 1.32242,-0.99671 0,2.63362 -0.4413,5.06115 -0.98067,5.3945 -0.66486,0.41091 -0.77491,-1.00535 -0.34175,-4.39779 z M 448.125,135.9375 c 0,-0.51563 0.42187,-0.9375 0.9375,-0.9375 0.51562,0 0.9375,0.42187 0.9375,0.9375 0,0.51562 -0.42188,0.9375 -0.9375,0.9375 -0.51563,0 -0.9375,-0.42188 -0.9375,-0.9375 z M 171.76531,257.74417 c 5.30252,-1.78628 7.03596,-1.88969 21.45194,-1.27973 15.03446,0.63613 15.81863,0.57994 18.95492,-1.3584 4.48896,-2.77432 10.01533,-9.07541 10.01533,-11.41932 0,-1.06309 0.92218,-4.07654 2.04929,-6.69658 l 2.04928,-4.76369 -2.7524,-2.23662 c -2.36719,-1.92357 -3.40848,-2.15776 -7.43992,-1.67334 -6.62668,0.79627 -10.29797,2.08415 -16.79368,5.89118 -7.93268,4.64921 -20.34419,13.77859 -27.42173,20.17025 -2.19044,1.97816 -4.42247,3.32482 -4.96008,2.99257 -0.53761,-0.33226 -1.91583,0.0531 -3.06271,0.85645 l -2.08525,1.46056 2.11317,0 c 1.16225,0 4.70908,-0.87449 7.88184,-1.94333 z m -73.364635,-7.90042 c -0.01163,-1.03125 -0.42615,-4.99574 -0.921253,-8.80998 -0.785372,-6.05041 -1.409475,-7.59358 -4.892933,-12.09832 -2.196006,-2.83985 -5.191148,-6.89098 -6.65587,-9.00253 -4.321081,-6.22927 -7.651869,-8.16771 -6.194065,-3.6048 3.548687,11.10738 6.074268,17.29621 7.353003,18.01826 1.132883,0.63968 1.238791,1.11759 0.429036,1.93602 -0.81291,0.82161 -2.745087,-0.18563 -7.921529,-4.12946 -3.765505,-2.86887 -7.021385,-5.04112 -7.235286,-4.82722 -0.924843,0.92485 4.14683,9.40344 7.622812,12.74348 4.370768,4.19982 4.062007,5.56585 -0.7427,3.28587 -1.828835,-0.86785 -3.737856,-1.32283 -4.242269,-1.01109 -0.504412,0.31175 -3.347396,0.10956 -6.317742,-0.4493 -3.068843,-0.5774 -6.547067,-0.68884 -8.055884,-0.25812 -2.457937,0.70166 -1.935428,1.06264 7.03125,4.85773 13.158131,5.56909 13.266848,5.59509 22.569255,5.39805 7.520222,-0.15929 8.193516,-0.32803 8.174175,-2.04859 z m 77.525815,-5.66543 c 0.8539,-2.22524 0.0525,-2.34853 -2.503,-0.38505 l -2.32974,1.79004 2.13879,0.0208 c 1.17635,0.0114 2.38862,-0.63016 2.69395,-1.42583 z M 364.5404,222.51934 c 5.22101,-20.52987 5.30643,-21.4119 5.25286,-54.23809 -0.0277,-17.01563 -0.36156,-32.13488 -0.74175,-33.59836 -0.59478,-2.28949 -0.8967,-2.49037 -2.16322,-1.43924 -2.94289,2.44237 -15.83443,19.28163 -20.22955,26.42435 -3.23161,5.25182 -6.34624,13.74602 -6.34624,17.3074 0,3.5164 0.58156,4.80307 3.84451,8.50574 4.91277,5.57483 8.2467,11.27602 10.38594,17.76052 2.25153,6.82481 3.95788,24.96278 3.2817,34.88334 l -0.54315,7.96875 2.69319,-8.10566 c 1.48125,-4.45812 3.53582,-11.41905 4.56571,-15.46875 z m -1.43648,-14.8315 c -2.95073,-3.10115 -6.85392,-9.803 -6.85392,-11.76832 0,-1.72226 1.30693,-0.33116 3.24688,3.45598 1.01234,1.97629 3.06711,5.19473 4.56614,7.1521 3.47471,4.53714 2.90722,5.22365 -0.9591,1.16024 z m -9.39295,-17.41112 c -0.57646,-1.52719 -0.7086,-2.77672 -0.29366,-2.77672 0.77057,0 2.2487,4.64648 1.6641,5.23109 -0.17729,0.17729 -0.79399,-0.92718 -1.37044,-2.45437 z m -5.32781,-6.92298 c 0.2815,-0.73358 1.12177,-1.56783 1.86727,-1.85391 1.0873,-0.41723 1.15916,-0.15336 0.36328,1.33377 -1.13009,2.11158 -3.00941,2.54982 -2.23055,0.52014 z m 15.41473,-14.83812 c -0.73736,-1.16015 -2.11431,-3.6914 -3.0599,-5.625 -1.12327,-2.29694 -2.36164,-3.51562 -3.57237,-3.51562 -1.01921,0 -1.85312,-0.42188 -1.85312,-0.9375 0,-0.51563 0.81502,-0.9375 1.81117,-0.9375 1.95451,0 4.27052,2.8376 7.46046,9.14062 2.10717,4.16358 1.5352,5.52759 -0.78624,1.875 z M 489.375,244.6875 c 0,-0.51563 -0.44677,-0.9375 -0.99283,-0.9375 -0.54606,0 -0.73209,0.42187 -0.41342,0.9375 0.31867,0.51562 0.76545,0.9375 0.99283,0.9375 0.22738,0 0.41342,-0.42188 0.41342,-0.9375 z m -39.46071,-3.67387 c 5.14115,-3.86198 17.48613,-21.1004 22.46781,-31.37383 2.52926,-5.21595 5.97983,-13.49136 7.66793,-18.3898 2.78633,-8.08522 3.09297,-10.07298 3.32628,-21.5625 0.2747,-13.52746 -0.81989,-30.31433 -2.47576,-37.96875 -1.06961,-4.94441 -4.58543,-13.59375 -5.52564,-13.59375 -0.60329,0 -2.89423,7.90702 -5.29672,18.28125 -0.83586,3.60937 -1.92584,8.03906 -2.42217,9.84375 -0.65565,2.38399 -0.52289,4.72622 0.48551,8.56541 0.76335,2.9063 1.8867,8.60161 2.49633,12.65625 0.60964,4.05465 1.29311,8.34941 1.51882,9.54391 l 0.41039,2.17182 1.76076,-2.17182 c 0.96842,-1.1945 2.0594,-1.87434 2.42441,-1.51076 0.36499,0.36358 -0.6445,1.96917 -2.2433,3.56798 -2.48755,2.48756 -3.11803,4.15045 -4.37019,11.52644 -1.84617,10.87507 -3.3592,15.67453 -8.62818,27.36952 -4.0496,8.98844 -9.98704,18.49496 -15.16794,24.28562 -2.63869,2.94924 -1.46191,2.54045 3.57166,-1.24074 z m 24.68711,-95.17591 c 2.71142,-3.3205 5.07501,-5.62721 5.25243,-5.12601 0.53892,1.52241 -7.33077,11.16329 -9.1124,11.16329 -0.58844,0 1.14854,-2.71677 3.85997,-6.03728 z m -285.47068,89.4606 8.38977,-7.98292 0.64384,-5.69084 c 0.49438,-4.36965 0.0691,-8.59587 -1.83161,-18.20397 -1.47829,-7.47255 -2.29101,-14.14952 -2.01758,-16.57542 0.25184,-2.23426 0.1228,-4.26939 -0.28675,-4.5225 -0.40954,-0.25311 -1.94051,0.53965 -3.40214,1.7617 -3.59087,3.00228 -9.43048,5.84286 -13.54442,6.58846 -3.93144,0.71253 -5.78613,2.49297 -7.92203,7.6049 -2.36398,5.6578 -1.16959,11.4561 4.84895,23.53969 4.43199,8.89827 5.21001,11.2479 5.35401,16.16914 0.0926,3.16688 0.44067,5.65373 0.77335,5.52633 0.33267,-0.1274 4.38025,-3.82395 8.99461,-8.21457 z m 41.63802,-0.30927 c 4.32547,-9.34968 4.08245,-10.55109 -1.92883,-9.53549 -2.11196,0.35681 -3.83991,0.8226 -3.83991,1.0351 0,0.21248 0.84375,1.23009 1.875,2.26134 2.09776,2.09776 2.38952,4.78688 0.83458,7.69231 -1.70706,3.18966 -2.72231,7.46818 -1.69052,7.12425 0.50815,-0.16938 2.6455,-4.02925 4.74968,-8.57751 z m -166.335146,2.56954 c -0.311524,-0.31152 -1.120117,-0.34482 -1.796875,-0.074 -0.747875,0.29927 -0.525728,0.52142 0.566406,0.5664 0.988281,0.0407 1.541992,-0.18087 1.230469,-0.49239 z m 2.107599,-5.44678 C 65.26385,230.86706 61.054687,228.20559 57.1875,226.19745 49.19615,222.04771 39.02398,214.88958 35.776965,211.13091 l -2.191785,-2.53716 0.639646,4.66013 c 1.167908,8.50878 6.548437,12.8245 21.071855,16.90172 4.889737,1.37272 9.530362,2.87082 10.3125,3.32912 2.736597,1.60352 3.234192,0.87054 0.932012,-1.37291 z m 350.544847,-4.53369 c 0.57002,-3.22265 1.88914,-11.97656 2.9314,-19.45312 1.04224,-7.47656 2.29951,-15.35935 2.79392,-17.51731 0.4944,-2.15796 1.3998,-8.72879 2.01199,-14.60186 l 1.11309,-10.67831 -4.91022,-5.01465 c -5.32084,-5.43402 -8.29868,-10.59955 -10.90864,-18.9228 l -1.67094,-5.32866 -2.77613,3.45366 c -2.93072,3.64599 -8.17051,14.10467 -8.17051,16.30844 0,0.71582 -0.41869,1.72018 -0.93041,2.2319 -0.86586,0.86586 3.55034,14.20568 5.54857,16.76032 0.41537,0.53104 1.03006,2.23114 1.36597,3.77802 0.96289,4.43414 0.58458,35.20861 -0.48525,39.47316 -0.92406,3.68347 -0.82184,4.00443 2.38839,7.5 1.84458,2.00851 3.35578,4.02721 3.35825,4.48599 0.007,1.34932 3.12163,3.32254 5.29493,3.35479 1.73473,0.0258 2.15079,-0.77062 3.04559,-5.82957 z m -3.52656,-32.74511 c -1.60215,-1.63872 -2.69563,-3.19685 -2.42996,-3.46252 0.26566,-0.26567 1.99645,1.07509 3.84617,2.97948 1.84973,1.9044 2.94322,3.46253 2.42997,3.46253 -0.51325,0 -2.24403,-1.34077 -3.84618,-2.97949 z m -6.72292,-7.38699 c -1.12261,-1.57656 -1.85416,-3.05343 -1.62565,-3.28193 0.42373,-0.42374 5.41409,4.80391 5.41409,5.67154 0,1.38631 -1.99643,0.12703 -3.78844,-2.38961 z M 70.312188,224.0625 c 1.670047,0 1.687796,-0.20687 0.341851,-3.98438 -2.925739,-8.21133 -8.308152,-16.98742 -12.645228,-20.61818 -4.39571,-3.67985 -17.640028,-9.06477 -22.383811,-9.10088 -14.029732,-0.10681 2.851344,24.51364 23.10426,33.69676 3.203012,1.4523 6.59222,3.54405 7.531574,4.6483 l 1.707916,2.00772 0.290967,-3.32466 c 0.220985,-2.52504 0.714641,-3.32468 2.052471,-3.32468 z m 6.590186,-4.92896 c -1.561931,-4.42528 -2.839874,-8.26133 -2.839874,-8.52455 0,-0.26322 0.949219,-0.6134 2.109375,-0.77816 1.94124,-0.2757 2.158003,-0.93476 2.719453,-8.26833 1.293892,-16.90062 0.969214,-22.55765 -1.61307,-28.1053 -2.449841,-5.26314 -9.6949,-13.1447 -12.083141,-13.1447 -0.733953,0 -1.595193,-0.42188 -1.913867,-0.9375 -0.695723,-1.1257 -7.934861,-1.22762 -9.655894,-0.13594 -2.740698,1.73847 -6.541076,20.33142 -4.996199,24.44338 0.498265,1.32622 1.150975,3.53868 1.450468,4.91659 0.395316,1.81877 1.443261,2.80189 3.824251,3.58768 7.037921,2.32273 16.410028,14.80282 20.290115,27.01873 1.908317,6.00808 4.662791,10.63047 5.262531,8.83124 0.157149,-0.47145 -0.992218,-4.47786 -2.554148,-8.90314 z M 208.24598,214.7388 c 0.32705,-6.4745 -0.48722,-12.37309 -2.53745,-18.38126 -1.2408,-3.63617 -2.52766,-8.5932 -2.8597,-11.01563 -0.65971,-4.8132 -1.20429,-5.31475 -2.87168,-2.64483 -2.21776,3.5512 -2.28524,8.54043 -0.30715,22.70871 1.8292,13.10181 1.89146,17.59836 0.30794,22.23891 -0.29542,0.86573 1.41681,-1.14506 3.80496,-4.4684 2.38815,-3.32335 4.39654,-7.12023 4.46308,-8.4375 z M 29.834544,208.35937 c 0.03178,-5.06884 -1.576607,-11.65859 -3.314197,-13.5786 -0.824147,-0.91067 -2.487751,-1.65577 -3.696898,-1.65577 -3.878817,0 -2.651368,4.68535 3.744959,14.29507 1.629563,2.44821 3.026123,4.45212 3.103467,4.45312 0.07734,9.4e-4 0.150545,-1.58022 0.162669,-3.51382 z M 308.23203,190.07812 c 3.15053,-6.17207 6.20614,-14.8162 7.24662,-20.5002 0.53447,-2.91977 0.21873,-3.84866 -2.27273,-6.68627 -3.16479,-3.6045 -3.8431,-5.43216 -1.26077,-3.39706 0.89795,0.70766 -0.15673,-0.77665 -2.34375,-3.29846 -2.18702,-2.52181 -4.00605,-5.05306 -4.0423,-5.625 -0.0362,-0.57194 -0.42845,-0.19613 -0.8716,0.83512 -1.01773,2.36839 -1.19948,44.53125 -0.19195,44.53125 0.41005,0 2.09147,-2.63672 3.73648,-5.85938 z M 44.144733,182.79135 c 2.49448,-6.50041 4.45392,-16.04111 4.03901,-19.66635 -0.459205,-4.01228 -2.461012,-5.625 -6.982102,-5.625 -2.123334,0 -4.761897,-0.89707 -6.893699,-2.34375 -4.262484,-2.8926 -6.478009,-2.95493 -8.995202,-0.25303 -1.981781,2.1272 -2.325715,3.1502 -3.165256,9.41483 -0.888209,6.62781 2.283883,20.06566 5.262233,22.29226 0.380031,0.28411 3.938448,0.48553 7.907593,0.44761 l 7.216625,-0.069 1.610798,-4.19761 z m 292.260607,-9.40171 c -0.54842,-1.57319 -1.12203,-2.73335 -1.2747,-2.57812 -0.58071,0.59046 0.74964,5.43848 1.49238,5.43848 0.4287,0 0.33074,-1.28716 -0.21768,-2.86036 z m 90.52386,-16.12402 c 0.27589,-2.70703 0.74085,-7.66406 1.03326,-11.01562 0.2924,-3.35156 0.91289,-8.20313 1.37886,-10.78125 0.46597,-2.57813 1.08571,-7.21875 1.37721,-10.3125 0.2915,-3.09375 0.68325,-6.78516 0.87056,-8.20312 0.38749,-2.9333 -0.45641,-3.29826 -2.33368,-1.00925 -0.70766,0.86288 -4.32409,3.98817 -8.03652,6.94508 -3.71242,2.95692 -7.96188,6.78608 -9.44322,8.50925 -2.36545,2.7516 -2.55535,3.39995 -1.55984,5.32535 1.26373,2.44416 1.76694,2.00445 2.70293,-2.3619 0.35159,-1.64016 1.24496,-3.48479 1.98525,-4.09918 1.5976,-1.32588 1.72856,-0.54156 0.34214,2.04899 -0.55212,1.03165 -1.37319,4.06251 -1.82461,6.73525 -0.73805,4.36989 -0.54605,5.43056 1.90556,10.52686 2.47749,5.15011 8.62342,12.61392 10.38669,12.61392 0.39259,0 0.93952,-2.21484 1.21541,-4.92188 z m -211.68456,-0.21089 c 5.7421,-2.3992 12.57648,-10.51156 18.10251,-21.48756 2.78624,-5.53415 6.47384,-12.40019 8.19465,-15.25788 l 3.12875,-5.1958 -2.56965,0.64398 c -3.07977,0.77183 -11.15169,5.58791 -18.7905,11.21128 -3.06053,2.25303 -6.267,4.24349 -7.12549,4.42322 -2.4144,0.50548 -14.84598,11.11258 -18.19156,15.52174 -3.63963,4.79669 -3.76175,7.03328 -0.52317,9.58075 3.03208,2.38503 12.67939,2.68913 17.77446,0.56027 z m -24.3717,-3.82443 c 0.28116,-5.78365 4.53906,-11.03295 14.31038,-17.64241 3.0876,-2.0885 4.35353,-3.38837 3.28125,-3.36925 -2.90031,0.0517 -8.64915,4.67789 -16.52837,13.30055 -7.86289,8.6048 -8.85183,11.46259 -3.76217,10.87172 2.12673,-0.24689 2.58326,-0.78151 2.69891,-3.16061 z m 278.80889,-23.69893 c 1.12043,-4.81245 1.84344,-8.9436 1.60669,-9.18034 -0.23674,-0.23676 -2.72825,0.58574 -5.53666,1.82775 -5.05334,2.23483 -9.18936,6.19306 -9.18936,8.79436 0,1.30057 4.4023,8.36253 7.35684,11.80148 1.36048,1.58353 1.51018,1.50209 2.58472,-1.40625 0.62734,-1.69791 2.05733,-7.02456 3.17777,-11.837 z M 197.34375,131.25 c -0.31868,-0.51563 -1.01288,-0.9375 -1.54269,-0.9375 -1.80237,0 -8.76037,-5.6592 -11.48413,-9.34045 -1.49287,-2.01767 -4.55146,-4.6431 -6.79687,-5.83429 -2.24541,-1.19118 -4.08256,-2.69386 -4.08256,-3.33927 0,-0.64542 -0.44283,-1.17349 -0.98406,-1.17349 -1.79071,0 -6.51594,2.84172 -6.51594,3.91866 0,1.26344 10.35991,10.80947 14.45594,13.32028 1.58829,0.97359 4.36437,2.31497 6.16906,2.98081 3.97169,1.46538 11.61398,1.75263 10.78125,0.40525 z m 16.96279,-3.88542 c 2.49968,-1.10573 8.35282,-4.37526 13.00697,-7.26563 l 8.46207,-5.2552 -6.62705,-0.5927 c -7.55078,-0.67531 -10.38319,-1.91402 -16.33603,-7.14434 -2.32031,-2.03868 -5.69531,-4.46074 -7.5,-5.38235 -1.80469,-0.92161 -4.4999,-2.692973 -5.98935,-3.936351 -3.78683,-3.161203 -8.97072,-2.732821 -10.69577,0.883866 -0.95958,2.011815 -1.88773,2.581275 -4.22541,2.592475 -3.47082,0.0166 -4.39601,0.5394 -6.56568,3.70988 -2.66746,3.89784 -2.04863,6.09502 2.26442,8.03993 2.11789,0.95504 6.65641,4.60962 10.08561,8.12129 5.14949,5.27334 6.96803,6.52842 10.44616,7.20948 6.70017,1.31199 8.83839,1.1587 13.67406,-0.98035 z m 108.49072,-6.89583 c -0.86618,-4.12609 -1.1847,-8.96231 -0.85791,-13.02641 0.60297,-7.499065 0.0458,-7.739553 -1.31435,-0.56734 -0.52291,2.75728 -1.14578,5.20828 -1.38417,5.44667 -0.23839,0.23839 -3.02567,-1.96652 -6.19395,-4.8998 -3.16829,-2.93327 -5.9677,-5.12605 -6.22091,-4.87284 -0.2532,0.2532 1.15711,1.85748 3.13405,3.56505 6.01035,5.19141 7.25593,6.8475 10.6634,14.17761 1.80382,3.88037 3.34084,6.98419 3.41559,6.89739 0.0747,-0.0868 -0.48403,-3.11095 -1.24175,-6.72033 z m -55.5256,-15.9375 c 0.92181,-2.0625 2.54561,-4.681575 3.60844,-5.820178 1.06281,-1.138594 1.9324,-2.256675 1.9324,-2.484619 0,-0.227944 -2.11787,-0.922509 -4.70637,-1.543481 -9.94033,-2.384649 -28.37615,0.851109 -34.40745,6.039018 l -2.4592,2.11531 5.55214,-0.41018 c 6.14969,-0.45433 12.6458,-1.98222 19.34672,-4.550376 2.43077,-0.931603 4.70538,-1.408031 5.05468,-1.058719 1.08505,1.085044 -3.47164,4.077585 -8.93817,5.870015 -5.00828,1.64218 -8.96945,4.03486 -8.10726,4.89706 0.22501,0.225 2.65338,-0.74303 5.39639,-2.15119 10.52035,-5.40075 11.80085,-5.964082 12.33734,-5.42759 0.76607,0.76607 -1.2099,4.28066 -3.20196,5.69524 -1.79367,1.27369 -4.18158,7.21744 -4.99112,12.42344 l -0.51023,3.28125 6.20881,-6.5625 c 3.41484,-3.60937 6.96302,-8.25 7.88484,-10.3125 z m -19.21384,6.88613 1.78593,-2.02013 -2.57813,1.6592 c -2.65833,1.71081 -3.16105,2.38105 -1.78592,2.38105 0.43571,0 1.59587,-0.90906 2.57812,-2.02012 z m -8.99879,-3.13244 c 1.20909,-1.28702 2.02092,-2.49471 1.80404,-2.68374 -0.21688,-0.18904 -2.92557,0.86268 -6.01932,2.33713 l -5.625,2.68082 3.82096,0.003 c 2.8643,0.002 4.37136,-0.58295 6.01932,-2.33713 z M 304.21875,101.25 c -0.31867,-0.51562 -1.00128,-0.9375 -1.5169,-0.9375 -0.51563,0 -0.67677,0.42188 -0.3581,0.9375 0.31867,0.51563 1.00128,0.9375 1.5169,0.9375 0.51563,0 0.67677,-0.42187 0.3581,-0.9375 z m 27.53096,-17.100958 c 2.80151,-3.128251 3.64386,-3.520291 7.5,-3.490646 2.38922,0.01837 6.87529,0.644589 9.96904,1.391605 5.82423,1.406315 15.26272,1.793691 19.04204,0.781526 1.97646,-0.529327 1.81155,-0.747244 -1.875,-2.477797 -2.93775,-1.379048 -6.34718,-1.961785 -12.47954,-2.132992 -4.64063,-0.129561 -8.56385,-0.590822 -8.71826,-1.025026 -0.15442,-0.434204 2.0016,-1.467005 4.79116,-2.295112 4.86857,-1.445285 14.37469,-7.109252 13.46262,-8.021334 -0.82414,-0.824131 -8.58311,1.722151 -14.00537,4.596174 -5.83243,3.091437 -8.42486,2.752154 -4.16612,-0.545239 9.36295,-7.249401 17.45466,-14.955178 18.32456,-17.450602 0.54732,-1.570029 0.67403,-2.854599 0.28157,-2.854599 -1.24589,0 -13.56281,7.633992 -17.69832,10.969374 -4.00195,3.227657 -12.42809,14.143755 -12.42809,16.100635 0,0.577858 -1.42138,3.055533 -3.15862,5.505946 -1.73725,2.450412 -3.64787,5.509982 -4.24584,6.799045 l -1.0872,2.34375 1.6677,-2.335333 c 0.91724,-1.284433 3.08789,-3.921152 4.82367,-5.859375 z m 86.53525,-9.016676 c 4.05714,-1.739098 6.05237,-3.942157 13.61104,-15.028816 2.81837,-4.133832 2.84191,-8.104159 0.0571,-9.633502 -1.16016,-0.637131 -5.0625,-1.131747 -8.67188,-1.099146 -12.33575,0.111422 -26.64512,5.173054 -38.08233,13.470809 -3.41402,2.476895 -9.42574,5.84328 -13.35937,7.480853 -3.9336,1.637574 -7.15202,3.121795 -7.15202,3.29827 0,0.176475 5.58984,0.242576 12.42187,0.14689 9.56683,-0.133988 13.49926,0.191328 17.10938,1.415396 2.57812,0.874153 5.74219,1.790218 7.03125,2.035701 4.20365,0.80052 12.73867,-0.244858 17.03496,-2.086455 z M 361.875,74.53125 c 1.23636,-1.489721 0.31975,-1.829856 -2.26169,-0.839264 -0.81264,0.311842 -1.24413,0.944654 -0.95885,1.40625 0.75926,1.228492 1.8966,1.028257 3.22054,-0.566986 z m 16.69868,-11.397739 c 6.41799,-2.99862 18.35443,-14.895305 23.246,-23.168594 3.99436,-6.755786 7.86782,-19.728146 7.86782,-26.349612 0,-8.3841798 -5.69155,-12.68507957 -10.72083,-8.1013341 C 396.00541,8.2129048 381.82032,17.8125 380.79344,17.8125 c -0.49921,0 -2.18719,1.195264 -3.75106,2.656141 -3.25161,3.03746 -3.25608,4.370271 -0.0641,19.130809 0.97444,4.506259 1.77174,9.428315 1.77174,10.937901 0,3.116277 -3.14206,10.986422 -5.36857,13.447024 -2.0155,2.227421 -1.06172,2.071124 5.19225,-0.850864 z m -7.80526,-1.415917 c 2.56896,-2.020738 5.16908,-6.890079 5.16908,-9.680308 0,-1.322009 -0.24437,-1.322102 -2.57813,-0.001 -3.62715,2.053285 -10.77237,7.868451 -12.23639,9.95862 -1.14578,1.635884 -0.94765,1.755126 2.91618,1.755126 2.83294,0 4.96356,-0.643499 6.72927,-2.032406 z m 42.7314,-19.087066 c 4.58234,-5.685649 6.53793,-10.957703 7.4946,-20.204479 0.60483,-5.846233 1.57228,-9.748777 3.15265,-12.7175024 2.72032,-5.1101108 2.33742,-7.1266794 -1.19794,-6.3090942 -5.1473,1.1903595 -10.30436,6.3074957 -9.21575,9.1443866 0.8743,2.278368 -2.99509,17.699318 -5.9091,23.549911 -1.54089,3.09375 -5.05505,8.367187 -7.80923,11.71875 l -5.00761,6.09375 7.74541,-3.775722 c 5.28344,-2.575564 8.69949,-4.95953 10.74697,-7.5 z m 14.70915,3.636296 c 4.01315,-0.482029 4.73133,-0.828507 3.86958,-1.866851 -1.14967,-1.385271 -3.85174,-1.697033 -4.95626,-0.571848 -0.37961,0.386719 -2.45383,1.189051 -4.60937,1.782961 -4.65132,1.281563 -2.02832,1.583527 5.69605,0.655738 z"
     id="path11889"
     inkscape:connector-curvature="0" />
</svg>
