<?xml version="1.0" encoding="UTF-8" standalone="no"?>
<!-- Created with Inkscape (http://www.inkscape.org/) -->

<svg
   xmlns:dc="http://purl.org/dc/elements/1.1/"
   xmlns:cc="http://creativecommons.org/ns#"
   xmlns:rdf="http://www.w3.org/1999/02/22-rdf-syntax-ns#"
   xmlns:svg="http://www.w3.org/2000/svg"
   xmlns="http://www.w3.org/2000/svg"
   xmlns:sodipodi="http://sodipodi.sourceforge.net/DTD/sodipodi-0.dtd"
   xmlns:inkscape="http://www.inkscape.org/namespaces/inkscape"
   id="svg4220"
   version="1.1"
   inkscape:version="0.91 r13725"
   width="405.9375"
   height="583.125"
   viewBox="0 0 405.9375 583.125"
   sodipodi:docname="TinyVetch.svg">
  <metadata
     id="metadata4226">
    <rdf:RDF>
      <cc:Work
         rdf:about="">
        <dc:format>image/svg+xml</dc:format>
        <dc:type
           rdf:resource="http://purl.org/dc/dcmitype/StillImage" />
        <dc:title></dc:title>
      </cc:Work>
    </rdf:RDF>
  </metadata>
  <defs
     id="defs4224" />
  <sodipodi:namedview
     pagecolor="#ffffff"
     bordercolor="#666666"
     borderopacity="1"
     objecttolerance="10"
     gridtolerance="10"
     guidetolerance="10"
     inkscape:pageopacity="0"
     inkscape:pageshadow="2"
     inkscape:window-width="1600"
     inkscape:window-height="837"
     id="namedview4222"
     showgrid="false"
     inkscape:zoom="1.1489818"
     inkscape:cx="202.96875"
     inkscape:cy="291.5625"
     inkscape:window-x="-8"
     inkscape:window-y="-8"
     inkscape:window-maximized="1"
     inkscape:current-layer="svg4220" />
  <path
     style="fill:#000000"
     d="m 40.930488,578.34667 c -1.374347,-3.86955 -2.035841,-4.68974 -3.478176,-4.31256 -2.769881,0.72434 -8.977879,-1.19726 -11.069005,-3.42626 -2.265034,-2.41437 -3.155317,-6.53714 -2.01812,-9.34564 4.192429,-10.35387 6.572313,-18.1029 6.572313,-21.39978 0,-2.17144 0.393878,-5.24363 0.875286,-6.82712 1.201583,-3.95235 3.861979,-17.67304 3.497427,-18.0376 -0.162842,-0.16283 -1.477224,3.2585 -2.920847,7.60297 -1.638576,4.93118 -3.549215,8.75527 -5.085193,10.17788 -2.664604,2.46793 -7.523938,4.40894 -11.03782,4.40894 -5.00981,0 -7.9211406,-7.30403 -4.239408,-10.63595 2.393842,-2.1664 6.424433,-1.98627 7.670924,0.34283 1.482423,2.76993 0.186255,4.19916 -2.007624,2.21373 -1.662824,-1.50483 -1.934355,-1.51578 -3.316375,-0.13377 -1.942254,1.94226 -1.032833,4.24636 1.973873,5.00099 5.394647,1.35398 11.238257,-5.25796 14.103675,-15.95804 2.860343,-10.68112 4.165459,-13.28624 15.053786,-30.04854 1.674678,-2.57813 3.780379,-6.16406 4.679336,-7.96875 1.62974,-3.27176 1.629009,-3.27638 -0.25251,-1.60056 -3.030934,2.69961 -7.977318,3.01337 -14.057065,0.89171 -2.973418,-1.03766 -8.200748,-2.31039 -11.616288,-2.82832 C 13.744935,474.86855 3.75,466.85542 3.75,460.02063 c 0,-1.42125 -0.8443676,-3.00573 -2.0528135,-3.85216 -2.7977811,-1.95964 -1.55977853,-2.82316 4.2176394,-2.94184 3.2136653,-0.066 5.9808181,-0.78892 8.1476741,-2.12855 6.80852,-4.20925 17.455668,-2.16078 30.704752,5.90746 7.793487,4.74598 9.550277,6.62281 10.498195,11.21557 0.546729,2.64896 0.804755,2.40243 6.868352,-6.5625 3.465154,-5.12318 7.777613,-10.86873 9.583241,-12.76791 C 73.522668,446.99153 75,445.26697 75,445.05833 c 0,-0.20863 -1.947739,-0.453 -4.328309,-0.54304 -4.081568,-0.15439 -9.734191,-2.51367 -9.734191,-4.06285 0,-0.38819 -2.302298,-2.40661 -5.116219,-4.48537 -3.667145,-2.70908 -6.039624,-3.77957 -8.376469,-3.77957 -6.206045,0 -11.819812,-3.80655 -11.819812,-8.0147 0,-1.11989 -1.054688,-3.59032 -2.34375,-5.48986 -1.289063,-1.89954 -2.34375,-3.60077 -2.34375,-3.78052 0,-1.11617 3.531821,-1.32618 6.182643,-0.36762 2.984779,1.0793 3.27832,0.97682 6.395787,-2.23314 3.13573,-3.22876 3.524338,-3.36183 9.641374,-3.30143 7.433267,0.0734 8.286998,0.4583 15.748946,7.10078 9.811688,8.73416 11.482325,10.65007 12.718314,14.58554 0.664114,2.11459 1.382057,4.18288 1.595429,4.59619 0.213371,0.41332 2.162171,-1.06325 4.330666,-3.28125 2.168495,-2.218 6.120207,-5.97966 8.781582,-8.35924 l 4.838859,-4.32648 -5.621194,-0.50972 c -4.355336,-0.39492 -7.143768,-1.40368 -12.382422,-4.47953 -17.512387,-10.28228 -18.874183,-11.75467 -19.68088,-21.27928 -0.503969,-5.95032 0.274728,-7.79547 2.507749,-5.94223 0.895363,0.74308 2.032821,0.61329 4.229647,-0.48263 5.017426,-2.50302 12.271312,-0.1637 19.30725,6.22643 1.546875,1.40489 4.710937,3.71944 7.03125,5.14344 7.5824,4.65343 11.56408,11.09282 9.76232,15.78815 -0.88904,2.3168 0.41802,1.85649 4.3013,-1.51477 1.93028,-1.67579 5.71975,-4.62414 8.42104,-6.5519 3.13193,-2.23509 4.44906,-3.68037 3.63526,-3.98897 -0.7019,-0.26617 -4.12136,-1.29515 -7.59882,-2.28661 -3.47745,-0.99147 -7.64251,-2.7425 -9.25568,-3.89117 -4.00565,-2.85229 -10.348636,-9.82624 -12.180062,-13.39167 -9.033737,-17.58701 -9.089664,-17.84 -3.471546,-15.704 1.388774,0.52801 4.372175,0.35504 8.26416,-0.47915 10.516418,-2.25404 16.827928,0.27962 25.607558,10.27974 5.80385,6.61068 8.13947,11.3878 8.13947,16.64793 l 0,3.60834 6.57959,-4.42596 c 4.57947,-3.08052 6.07567,-4.52533 4.92188,-4.75283 -3.30286,-0.65126 -7.93255,-3.28655 -10.98985,-6.2556 -1.71763,-1.66804 -4.96119,-4.31098 -7.20791,-5.8732 -7.03305,-4.89031 -11.46614,-10.32526 -12.71711,-15.59111 -1.62833,-6.8543 -1.55887,-10.2631 0.19465,-9.55352 0.77344,0.31298 1.97927,0.80218 2.67962,1.08711 1.0082,0.41019 1.18218,-0.51712 0.83545,-4.45312 -0.24085,-2.73416 -0.99462,-5.8595 -1.67504,-6.9452 -1.26307,-2.01543 -1.27355,-6.61285 -0.0239,-10.51575 0.67882,-2.12016 0.62727,-2.1419 -1.96575,-0.82893 -3.20145,1.62105 -12.23688,3.8585 -14.850342,3.67739 -1.146037,-0.0794 -3.558366,1.67838 -6.20488,4.52131 -3.801085,4.08316 -4.788943,4.65124 -8.088362,4.65124 -4.746506,0 -6.278802,-1.70858 -5.457674,-6.08558 0.597394,-3.18437 2.012429,-4.57063 12.732592,-12.47355 0.906746,-0.66845 7.293865,-2.16886 14.193586,-3.33426 15.52022,-2.62142 19.43358,-4.38504 21.10842,-9.51286 2.48812,-7.61788 6.30172,-12.79004 11.11442,-15.07381 1.57506,-0.74742 6.49247,-1.94635 10.92757,-2.66431 4.4351,-0.71795 8.92578,-1.76667 9.9793,-2.33049 1.05352,-0.56382 2.78697,-1.02514 3.85212,-1.02514 2.5286,0 2.44747,-0.54086 -0.6415,-4.27692 -1.41796,-1.71501 -4.22661,-5.46211 -6.24143,-8.32689 -2.01482,-2.86478 -4.22844,-5.20869 -4.91917,-5.20869 -2.84614,0 -8.65876,-6.66738 -10.07,-11.55082 -1.86897,-6.46734 -3.37684,-15.59064 -3.88828,-23.52601 -0.2359,-3.66002 -0.98913,-7.13001 -1.72979,-7.96875 -0.72157,-0.81712 -3.04417,-5.11856 -5.16133,-9.55876 -2.71627,-5.6967 -3.84514,-9.28421 -3.83502,-12.1875 0.0174,-4.96629 0.68583,-6.16731 3.67254,-6.59802 1.58235,-0.22819 2.49772,-1.14557 2.98965,-2.99619 0.90056,-3.38797 3.33374,-5.23744 6.91721,-5.25781 4.2542,-0.0242 7.3328,1.9618 8.30707,5.35888 0.47873,1.66924 1.33673,3.0484 1.90667,3.06479 2.2007,0.0633 4.55188,2.7998 4.55188,5.29781 0,1.4332 0.64074,3.07432 1.42387,3.64695 1.21077,0.88534 1.31623,2.78209 0.7047,12.67392 -0.85853,13.88727 -0.85645,20.42296 0.0109,34.13276 l 0.65238,10.3125 5.38185,5.15625 c 2.96002,2.83594 5.87991,6.10547 6.48865,7.26562 0.60873,1.16016 1.41788,2.10938 1.79811,2.10938 1.02095,0 3.66862,-5.48738 4.97578,-10.3125 1.80745,-6.67177 8.40558,-19.85083 11.69521,-23.3599 2.0158,-2.15028 3.46987,-5.07872 4.42225,-8.90625 1.87321,-7.52832 4.41352,-21.94996 4.40569,-25.01169 -0.009,-3.61229 -2.5376,-8.12389 -8.17776,-14.59232 -2.77022,-3.17702 -5.44544,-7.18484 -5.94493,-8.90625 -1.69903,-5.85534 0.85123,-14.32973 3.76957,-12.5261 0.54188,0.3349 1.6534,1.90101 2.47006,3.48025 2.10241,4.0656 5.77283,7.02512 10.85156,8.74979 2.40954,0.81825 4.88698,2.09742 5.50542,2.84259 0.61845,0.74519 1.56004,1.35488 2.09245,1.35488 0.53241,0 0.26981,-0.7715 -0.58354,-1.71444 -0.90598,-1.00108 -1.55157,-3.29384 -1.55157,-5.51022 0,-2.2303 -0.57997,-4.27709 -1.40625,-4.96284 -0.77344,-0.6419 -1.40625,-1.55092 -1.40625,-2.02003 0,-0.46913 -1.27763,-4.16596 -2.83918,-8.2152 l -2.83918,-7.36224 -6.30145,-0.64524 c -3.46579,-0.35488 -11.36394,-0.9473 -17.55144,-1.31647 -6.1875,-0.36918 -12.30469,-1.15393 -13.59375,-1.74387 -1.28906,-0.58995 -4.80051,-3.39588 -7.80321,-6.23541 -3.13779,-2.96727 -6.4958,-5.28611 -7.89645,-5.45278 -3.6876,-0.43883 -3.5739,-2.32687 0.18256,-3.03159 2.50495,-0.46993 3.45917,-1.19825 3.90686,-2.98197 0.39856,-1.58802 2.26778,-3.30572 5.71346,-5.25034 l 5.1211,-2.89017 -7.34653,-3.09989 c -8.99292,-3.79457 -10.7934,-3.87647 -14.98227,-0.68146 -3.2327,2.4657 -6.17691,2.93905 -11.58302,1.86224 -1.28906,-0.25675 -2.87109,-0.50198 -3.51562,-0.54496 -1.27808,-0.0852 -1.66385,-4.76562 -0.3928,-4.76562 0.4285,0 1.34963,-1.06607 2.04696,-2.36904 0.69733,-1.30298 2.22787,-2.61 3.40121,-2.90449 1.17334,-0.29449 2.62417,-1.12686 3.22409,-1.8497 0.88457,-1.06584 0.66147,-1.31427 -1.1803,-1.31427 -1.24907,0 -2.67182,-0.38476 -3.16167,-0.85501 -1.05143,-1.00939 -11.67501,-1.78186 -11.67315,-0.84879 0.002,1.02844 -3.34681,1.79918 -5.02289,1.15601 -2.42482,-0.9305 -1.80698,-2.72116 1.50855,-4.37218 1.67578,-0.83448 6.57013,-4.39308 10.87632,-7.90801 4.3062,-3.51492 8.86472,-7.228867 10.13005,-8.253217 2.01736,-1.633134 3.67399,-1.855772 13.45513,-1.808259 l 11.15452,0.05419 -2.81419,-3.347987 c -1.54779,-1.841391 -4.10496,-5.367049 -5.68258,-7.834794 l -2.86841,-4.48681 -4.5462,4.252435 c -3.25517,3.044825 -5.32698,4.252425 -7.29566,4.252425 -1.5122,0 -6.85015,0.84375 -11.86211,1.875 -5.01196,1.03125 -10.31901,1.875 -11.79343,1.875 -3.11152,0 -9.188176,-3.172696 -10.982101,-5.733884 C 95.899725,84.919017 94.379944,84.375 91.82184,84.375 c -2.621616,0 -3.69684,-0.399413 -3.69684,-1.373265 0,-1.797963 3.454558,-3.610178 5.741775,-3.012059 2.705831,0.707593 6.773245,-1.71958 12.279765,-7.327793 2.72097,-2.771208 7.24689,-6.185805 10.0576,-7.587993 5.20703,-2.597647 7.33248,-2.584136 14.26857,0.0907 1.14146,0.440194 0.44199,-1.709924 -2.57813,-7.924951 -2.27952,-4.690972 -4.14458,-8.933476 -4.14458,-9.427787 0,-0.494311 -1.58203,-1.710016 -3.51562,-2.701566 -1.9336,-0.991549 -4.39873,-2.793092 -5.47806,-4.003428 -3.2167,-3.607122 -10.49673,-16.325243 -11.76185,-20.547821 -1.10239,-3.679442 -1.0417,-4.039202 0.95391,-5.655149 2.67575,-2.166695 7.08679,-1.760968 9.54534,0.877981 3.93395,4.222593 0.47995,8.513635 -4.32087,5.368011 -2.44218,-1.600174 -2.9092,-2.87794 -1.33691,-3.657696 0.52851,-0.262109 0.42304,-0.367774 -0.23438,-0.234813 -2.31242,0.467683 -1.73738,3.255344 1.56355,7.579795 1.83419,2.402922 3.33489,4.728678 3.33489,5.168345 0,1.139467 7.26031,11.923191 8.57417,12.735203 0.77787,0.480748 0.91081,0.02238 0.45781,-1.578493 -0.3511,-1.240786 -1.26186,-5.420037 -2.0239,-9.287224 -0.76202,-3.867188 -1.87716,-9.140625 -2.47807,-11.71875 -0.60091,-2.578125 -1.04299,-7.578943 -0.9824,-11.1129291 0.12706,-7.4108581 1.33042,-8.96531534 6.97766,-9.01350524 3.75365,-0.03203135 5.6386,1.81143914 6.83624,6.68581724 0.71819,2.9230793 -2.10876,6.4093671 -5.19721,6.4093671 -2.70497,0 -4.28347,-4.3934999 -2.34719,-6.5330574 C 124.11637,4.6037829 124.13428,3.75 122.37673,3.75 c -0.7553,0 -1.8541,0.8984621 -2.4418,1.9965825 -1.16549,2.177746 -0.10071,9.5841745 2.56472,17.8395805 l 1.4101,4.367413 3.39211,-3.754656 c 3.00962,-3.331287 3.21203,-3.855431 1.79512,-4.648373 -3.46697,-1.940216 -0.80813,-9.238047 3.36573,-9.238047 1.79712,0 3.47479,2.752358 3.47479,5.700706 0,2.024069 -4.70451,9.924076 -9.06993,15.230599 -2.72302,3.310059 -2.89375,9.126077 -0.43594,14.850347 3.29713,7.678997 7.49532,16.252211 8.84007,18.052495 1.23932,1.65914 1.39954,1.379995 2.00937,-3.500847 0.36446,-2.91706 1.055,-5.54623 1.53455,-5.842601 0.47953,-0.296371 0.87188,-1.176227 0.87188,-1.955238 0,-0.77901 1.25403,-3.23905 2.78673,-5.466755 3.53296,-5.134982 9.40077,-16.779864 9.40077,-18.656171 0,-2.266551 1.83902,-2.798199 3.73717,-1.080391 6.71415,6.076209 8.63671,13.53945 7.50775,29.144384 -0.56162,7.762814 -1.13244,10.249639 -3.13832,13.672425 -2.98243,5.089136 -6.01723,8.018408 -8.74481,8.440739 -2.01942,0.312681 -2.01155,0.362489 0.64301,4.066558 1.47812,2.0625 3.96116,5.586622 5.51788,7.831381 l 2.83041,4.081385 0.54158,-2.675135 c 1.28773,-6.360638 5.9116,-19.598363 9.49791,-27.191664 2.41075,-5.104304 7.98544,-10.213446 10.21189,-9.359081 0.72886,0.279694 2.65492,3.142671 4.28012,6.362172 2.62802,5.206086 2.88775,6.425091 2.34778,11.019371 -0.33392,2.841153 -0.86126,6.238046 -1.17186,7.548651 l -0.56473,2.38292 2.75654,-2.578125 c 1.51609,-1.417969 3.15531,-2.594095 3.64273,-2.613615 0.48741,-0.01952 2.3608,-1.917957 4.1631,-4.21875 4.18109,-5.337553 6.56685,-5.561771 6.56685,-0.617167 0,2.844763 0.66371,4.209392 3.28125,6.746407 3.91831,3.797778 4.21352,6.908641 1.35343,14.262169 -5.51197,14.171731 -13.66097,25.136011 -21.27139,28.620181 l -5.0029,2.2904 3.40029,6.24175 c 5.11683,9.39271 5.58307,9.57833 5.58307,2.22276 0,-7.56916 3.11791,-14.99865 8.37793,-19.96332 4.17729,-3.94273 13.62327,-10.23644 15.36347,-10.23644 0.70492,0 2.52191,-0.88314 4.03777,-1.96253 3.70141,-2.635626 5.49488,-1.780861 5.53134,2.63624 0.0173,2.08436 0.98092,5.09016 2.33895,7.29504 4.33521,7.03864 3.17393,11.99697 -6.97247,29.77038 -3.76934,6.60274 -13.77321,15.98867 -16.48672,15.46833 -1.74719,-0.33505 -1.68219,0.0456 0.93473,5.47367 1.54688,3.20857 3.49458,7.45463 4.32823,9.43569 4.41167,10.4837 4.42115,10.49867 6.3313,9.99915 2.95488,-0.77272 5.12108,4.33329 4.31741,10.17669 -0.56218,4.08757 -0.37182,4.94637 1.54981,6.99185 2.16096,2.30025 2.16771,2.37196 0.49723,5.28261 -1.59861,2.78542 -1.60309,3.01679 -0.08,4.13051 0.88742,0.6489 1.94142,0.97714 2.34223,0.72942 0.88606,-0.54761 6.13217,4.12998 8.24437,7.35093 1.47137,2.24374 1.52531,1.9973 1.36481,-6.23659 -0.1572,-8.06433 0.88359,-18.03914 1.99859,-19.15413 0.27542,-0.27542 1.24163,0.12831 2.14714,0.89718 0.9055,0.76887 4.00396,2.48635 6.88547,3.81662 4.69189,2.16607 5.46029,2.9415 7.35702,7.42444 1.16486,2.75316 3.65884,7.27195 5.54215,10.04174 3.31349,4.87313 3.41949,5.29001 3.27761,12.89062 -0.0806,4.32006 0.002,7.85464 0.18427,7.85464 0.18198,0 1.81477,-2.21484 3.62843,-4.92188 1.81366,-2.70703 4.262,-6.04658 5.44075,-7.42123 4.23771,-4.942 5.00957,-6.02082 8.39911,-11.73942 l 3.43854,-5.80128 -2.97224,-0.63118 c -3.98978,-0.84727 -5.67113,-2.4881 -9.46885,-9.24073 -2.75277,-4.8946 -3.8606,-5.97236 -7.73323,-7.5233 -8.27518,-3.31408 -13.42643,-7.89056 -13.42643,-11.92831 0,-1.20279 7.12394,-3.81375 13.782,-5.05119 4.60846,-0.8565 11.2347,0.48169 13.61359,2.74929 5.32762,5.07843 10.51711,11.70555 12.19372,15.57173 l 1.82952,4.21875 7.49636,-7.96875 c 4.123,-4.38281 8.30584,-9.09147 9.29519,-10.46369 l 1.79884,-2.49494 -3.71953,-0.62842 c -2.04572,-0.34562 -5.34455,-1.80558 -7.33072,-3.24435 -6.29664,-4.56126 -9.10159,-9.10267 -11.31815,-18.32485 -1.85374,-7.71268 -2.38984,-8.77104 -6.24064,-12.32022 -5.28687,-4.87278 -5.487,-6.43444 -0.69705,-5.43933 1.93359,0.4017 7.10848,0.63604 11.49974,0.52074 7.40423,-0.1944 8.27405,-0.0149 11.97613,2.47145 3.85083,2.58624 8.6335,8.42296 8.6335,10.53622 0,0.56352 0.89401,2.77699 1.98668,4.91881 1.11871,2.19285 2.24509,6.70288 2.57813,10.32282 l 0.59144,6.42857 10.33763,-10.33309 10.33763,-10.33309 -2.60757,-1.08009 c -3.23836,-1.34137 -7.78956,-6.43215 -9.57882,-10.71447 -0.74299,-1.77821 -1.76561,-6.94768 -2.27249,-11.48771 -0.50688,-4.54003 -1.43101,-9.37264 -2.05363,-10.73913 -0.96373,-2.11515 -0.84512,-2.97077 0.79771,-5.75519 1.08602,-1.84066 1.70912,-4.11429 1.42515,-5.20021 -0.63876,-2.442643 1.94603,-3.598936 4.0748,-1.822843 0.84165,0.702225 3.66978,1.698633 6.28473,2.214263 4.31216,0.85028 5.01902,1.36688 7.59841,5.55319 2.55038,4.13924 2.85549,5.44568 2.95575,12.65625 0.0615,4.42231 0.16696,10.68519 0.23437,13.9175 l 0.12258,5.87696 6.32812,-6.68572 c 3.48047,-3.67714 6.49923,-7.16552 6.70836,-7.75194 0.52299,-1.46655 4.74697,-7.15987 7.29376,-9.83096 2.40171,-2.51889 8.14431,-12.68862 8.95893,-15.86558 0.30043,-1.171669 -0.0309,-3.281044 -0.73635,-4.6875 -1.4018,-2.794851 -9.00644,-8.180052 -12.94853,-9.169453 -2.28517,-0.57354 -2.47929,-0.392519 -2.47929,2.31197 0,3.742299 -3.37958,5.665924 -7.03125,4.002115 -1.83252,-0.834955 -2.34375,-1.764684 -2.34375,-4.262413 0,-2.750696 0.47249,-3.418739 3.40078,-4.808306 4.97486,-2.360725 9.78801,-1.262915 16.98765,3.874642 3.29376,2.350377 6.23347,4.028594 6.5327,3.729368 0.29922,-0.299224 0.57694,-4.542277 0.61714,-9.429006 0.0621,-7.547826 -0.21427,-9.269883 -1.83649,-11.442678 -2.42125,-3.24299 -4.16154,-3.901061 -3.48611,-1.318231 1.0714,4.097055 -3.66602,6.2654 -6.60162,3.021597 -3.22083,-3.558982 -0.48457,-7.660555 5.11054,-7.660555 6.1004,0 10.21291,5.440016 10.21291,13.509607 l 0,4.319988 9.14062,-4.617848 c 5.02735,-2.539817 9.98438,-5.264973 11.01563,-6.055903 1.86779,-1.432523 1.86722,-1.443616 -0.14844,-2.883672 -2.36431,-1.689138 -2.03518,-4.273174 0.7672,-6.023283 1.59511,-0.996164 2.1908,-0.930438 3.66586,0.404474 2.54581,2.303924 2.96647,4.458566 1.44357,7.393969 -1.3166,2.537735 -9.42932,8.083551 -13.80889,9.439675 -8.47953,2.625674 -11.44075,6.154871 -12.57063,14.981743 -0.33002,2.578125 -0.80394,5.425781 -1.05315,6.328125 -0.40102,1.451985 0.31905,1.640625 6.26264,1.640625 3.69367,0 9.01287,-0.66778 11.82044,-1.483969 4.31799,-1.255275 5.01676,-1.760943 4.53423,-3.28125 -0.31374,-0.9885 -0.29501,-2.665069 0.0416,-3.725703 0.47751,-1.504503 1.26422,-1.865157 3.57879,-1.640625 2.83903,0.275406 2.9691,0.46943 3.02134,4.506547 0.03,2.320312 0.38446,5.1982 0.78763,6.39531 0.51911,1.54138 0.25558,2.70413 -0.90302,3.98437 -1.83368,2.0262 -2.21558,2.11884 -4.02037,0.97519 -0.97531,-0.61803 -1.02892,-1.25189 -0.23184,-2.74125 1.49048,-2.78498 0.21256,-3.0875 -6.0697,-1.4369 -3.05513,0.8027 -8.8025,1.53598 -12.77192,1.62951 -6.30622,0.14858 -7.4599,0.44996 -9.14062,2.38786 -1.05792,1.21979 -1.9235,2.54991 -1.9235,2.95582 0,0.85048 -9.28276,13.21387 -10.57913,14.08998 -0.47498,0.321 3.92585,0.37607 9.77964,0.12239 l 10.64324,-0.46125 7.73438,3.61481 c 4.2539,1.98814 7.73437,3.96295 7.73437,4.38845 0,1.7884 -11.17443,11.82692 -15.21333,13.66685 -5.56322,2.53434 -14.17733,4.48694 -23.43335,5.31174 -6.40686,0.57091 -7.70206,0.4051 -11.25,-1.44014 -2.20527,-1.14693 -4.25168,-2.47121 -4.54759,-2.94285 -0.41552,-0.66226 -8.78135,7.24429 -19.52155,18.44982 -0.20465,0.21351 1.30046,-0.41989 3.34469,-1.40755 2.04421,-0.98767 7.90696,-2.45217 13.02832,-3.25448 17.99513,-2.81907 20.58294,-3.25236 23.04516,-3.85861 2.21708,-0.54589 2.55408,-0.29063 3.14036,2.37868 0.86082,3.9193 -0.20948,10.79168 -2.18007,13.99827 -2.88461,4.69388 -8.08256,8.41527 -13.32452,9.53947 -8.91116,1.91111 -16.15416,0.19391 -28.07349,-6.65576 -1.79665,-1.03248 -3.95029,-1.87723 -4.78589,-1.87723 -0.83559,0 -3.58436,2.23431 -6.10837,4.96513 -3.95141,4.27518 -5.80744,6.43194 -11.62701,13.51092 -1.52696,1.85742 -1.07802,2.15933 1.64726,1.10776 6.09384,-2.35134 35.13041,-6.68943 40.75441,-6.08876 7.84169,0.83753 10.69363,3.83147 5.78164,6.06952 -2.31011,1.05256 -2.41554,1.39183 -1.86748,6.00986 0.62426,5.26012 0.22963,6.3947 -2.77353,7.97387 -2.51679,1.32341 -13.77781,3.96438 -19.16066,4.49362 -2.32031,0.22813 -6.46553,0.77439 -9.2116,1.2139 -6.91228,1.1063 -12.68308,-0.33954 -19.30859,-4.83767 l -5.55145,-3.76893 -2.20293,2.72226 c -1.2116,1.49725 -2.46757,3.77696 -2.79103,5.06602 -0.32345,1.28906 -4.0333,7.42508 -8.24409,13.63561 l -7.65599,11.29187 5.21721,-0.58668 c 2.86948,-0.32268 11.86247,-0.52522 19.98445,-0.4501 14.66388,0.13563 14.78563,0.15421 17.39505,2.65419 1.4453,1.38469 3.16301,2.51761 3.81713,2.51761 2.39583,0 0.55828,3.28226 -2.00305,3.57789 -1.41356,0.16316 -2.57011,0.65956 -2.57011,1.10313 0,1.01957 -15.52705,8.58535 -22.93626,11.17602 -3.07588,1.0755 -6.9626,1.95546 -8.63717,1.95546 -4.21527,0 -12.21124,-3.31182 -15.97539,-6.61679 -1.72778,-1.51702 -3.33337,-2.75821 -3.56797,-2.75821 -0.87704,0 -7.26949,10.36372 -6.72704,10.90617 0.31097,0.31097 3.35046,0.0118 6.75441,-0.66477 12.664,-2.51721 21.82736,0.99384 31.95992,12.24581 3.98319,4.42325 4.75735,5.86287 4.66002,8.66576 -0.0976,2.81034 -0.85602,3.97221 -4.62699,7.08836 -6.97318,5.7623 -13.37429,5.98024 -30.03057,1.02244 -7.1286,-2.12185 -12.66696,-5.84403 -15.28168,-10.27042 -0.89131,-1.50884 -1.87395,-2.74335 -2.18366,-2.74335 -0.93492,0 -6.36859,11.36471 -8.06823,16.875 -0.87473,2.83594 -2.63576,6.42149 -3.91338,7.96791 -2.31428,2.80114 -2.32079,2.86596 -1.7424,17.34375 0.3193,7.99264 0.85616,16.70496 1.193,19.36068 0.55821,4.40081 0.8563,4.87737 3.36461,5.37903 2.68136,0.53627 2.73578,0.65955 2.11595,4.79291 -0.53436,3.56339 -0.40895,4.15526 0.78349,3.69768 0.78082,-0.29963 1.69819,-0.0942 2.03859,0.45663 0.3404,0.55077 1.84489,1.00141 3.34332,1.00141 3.49717,0 11.21562,2.58219 13.3368,4.46182 0.90235,0.79958 1.64063,2.19286 1.64063,3.09618 0,2.35588 -7.96026,8.68863 -16.25149,12.92881 -3.91618,2.00276 -6.87339,3.8883 -6.57159,4.19011 0.73959,0.73959 2.26901,39.16191 2.61888,65.79183 0.1558,11.85938 0.73341,23.46094 1.28357,25.78125 1.5773,6.65238 2.5423,23.85512 1.29492,23.08419 -0.75277,-0.46524 -0.95692,6.31033 -0.74175,24.61855 0.16328,13.89324 -0.0749,25.82419 -0.5294,26.51323 -0.6613,1.00266 -1.09389,0.90256 -2.16669,-0.50138 -0.98512,-1.28916 -1.31367,-4.39555 -1.23945,-11.71875 0.0555,-5.48052 -0.0446,-15.44896 -0.22267,-22.15209 -0.31583,-11.89336 -0.3364,-11.99697 -0.85211,-4.29297 -0.36235,5.41295 -0.92544,8.02562 -1.79132,8.31157 -1.27599,0.42139 -1.16953,-8.08129 0.41125,-32.84672 0.28798,-4.51172 0.17553,-8.20307 -0.2499,-8.20302 -0.42543,7e-5 -0.7735,-4.28867 -0.7735,-9.53051 0,-6.79079 -0.33689,-9.64314 -1.17188,-9.92199 -1.63994,-0.54767 -1.4664,-2.11011 0.23438,-2.11011 0.9875,0 1.40625,-0.99702 1.40625,-3.34822 0,-3.5367 -2.2527,-7.0227 -3.13191,-4.84653 -0.25853,0.63992 -0.50337,0.21428 -0.54407,-0.94588 -0.0825,-2.35163 0.24827,-2.50459 2.64386,-1.2225 1.39827,0.74833 1.65712,0.48304 1.65712,-1.69829 0,-1.97176 -0.44091,-2.57146 -1.85824,-2.52748 -1.02204,0.0317 -2.06146,-0.5294 -2.30985,-1.24691 -0.32628,-0.9425 0.16776,-1.18576 1.78011,-0.87651 2.13428,0.40935 2.21755,0.23092 1.90688,-4.08607 -0.26621,-3.69904 -0.64708,-4.51411 -2.10938,-4.51411 -0.99534,0 -1.78452,-0.64984 -1.78452,-1.46943 0,-1.08518 0.55158,-1.30497 2.10937,-0.84053 1.8771,0.55964 1.9403,0.48917 0.57392,-0.63995 -1.6278,-1.34514 -3.04286,-10.17509 -1.63063,-10.17509 0.45229,0 0.71687,0.47461 0.58796,1.05469 -0.1289,0.58008 0.29297,1.24804 0.9375,1.48437 0.74597,0.27352 1.17188,-0.45052 1.17188,-1.99219 0,-1.95833 -0.44858,-2.42187 -2.34375,-2.42187 -1.28906,0 -2.34375,0.46701 -2.34375,1.0378 0,0.57079 -0.6666,0.782 -1.48134,0.46936 -1.31007,-0.50272 -1.41742,0.48834 -0.92847,8.57157 0.30408,5.02701 0.80245,14.83533 1.10746,21.79627 0.30503,6.96094 0.69859,14.55469 0.87458,16.875 0.17599,2.32031 0.54271,10.8834 0.81493,19.02908 0.27222,8.1457 0.74325,15.2121 1.04673,15.70313 0.30347,0.49103 0.0533,0.89279 -0.55586,0.89279 -0.7617,0 -0.81447,0.36598 -0.16898,1.17187 0.91686,1.14468 1.42804,44.76563 0.5246,44.76563 -1.41156,0 -3.02118,-3.07938 -3.4763,-6.65052 -0.28953,-2.2719 -0.74529,-14.25573 -1.0128,-26.63073 -1.09859,-50.82128 -1.62026,-63.73707 -3.35116,-82.96875 -0.99775,-11.08594 -1.92335,-25.74473 -2.05687,-32.5751 l -0.24277,-12.41884 -4.21875,-0.0965 c -2.32031,-0.0531 -5.13479,-0.37083 -6.2544,-0.70615 -2.29149,-0.6863 -7.39346,-4.99077 -7.97177,-6.72568 -0.27247,-0.81742 -1.78431,-0.53268 -5.37653,1.01265 l -4.99747,2.14986 2.46734,1.79733 c 3.55817,2.59195 6.87846,8.76486 8.99479,16.72266 2.27337,8.54835 2.32943,12.33647 0.30661,20.71729 -1.18846,4.92397 -2.06732,6.73681 -3.53683,7.29552 -1.07547,0.40889 -3.21149,1.99896 -4.74671,3.53348 -1.5352,1.53453 -3.95144,3.06603 -5.36941,3.40336 -2.3493,0.55889 -2.57812,0.37802 -2.57812,-2.03786 0,-2.64542 -1.07349,-4.49892 -3.76865,-6.50693 -1.22242,-0.91076 -1.37675,-0.55679 -1.08609,2.49108 0.31038,3.25461 -0.0268,3.85226 -4.01835,7.12306 -2.39644,1.96369 -4.94476,4.9767 -5.66294,6.69556 -0.71819,1.71886 -1.67425,3.12519 -2.1246,3.12519 -0.91465,0 -5.83937,-7.18685 -5.83937,-8.52163 0,-0.46935 -0.3645,-0.85337 -0.81,-0.85337 -0.4455,0 -1.98473,-1.69514 -3.42052,-3.76698 -1.43579,-2.07184 -2.75157,-3.62593 -2.92396,-3.45353 -0.1724,0.17239 0.11004,1.76207 0.62764,3.5326 0.51761,1.77053 1.00792,5.47654 1.08959,8.23555 0.14098,4.76255 -0.0498,5.19946 -3.76963,8.63426 -3.49259,3.22494 -3.91812,4.08014 -3.91812,7.87423 0,2.341 -0.19177,4.25637 -0.42614,4.25637 -0.23438,0 -1.44869,-0.94922 -2.69848,-2.10938 -1.2498,-1.16015 -3.38075,-2.86916 -4.73545,-3.79778 -2.82021,-1.93322 -6.19585,-7.99612 -6.21625,-11.16487 -0.007,-1.18069 -0.62913,-3.20141 -1.38117,-4.49047 -4.07832,-6.99059 -4.64143,-9.24414 -5.08491,-20.34979 -0.0759,-1.90234 -0.55821,-1.71402 -6.00216,2.34375 l -5.91957,4.41229 2.93331,1.57388 c 1.61332,0.86564 4.14963,3.39689 5.63624,5.625 1.48661,2.22811 3.19395,4.47684 3.79409,4.99716 1.92714,1.67083 8.85108,16.69313 8.83343,19.16514 -0.009,1.31385 -1.30368,4.28726 -2.87622,6.60757 -2.76005,4.07249 -2.88109,4.98093 -1.32563,9.94883 0.70463,2.25044 -1.97003,3.92473 -3.62536,2.2694 -0.53253,-0.53253 -1.85762,-0.96823 -2.94464,-0.96823 -1.2189,0 -3.03348,-1.43319 -4.73437,-3.73932 -1.51689,-2.05662 -5.21805,-5.48263 -8.22482,-7.61335 -7.34096,-5.20209 -10.45859,-9.72434 -11.87347,-17.2229 -0.63216,-3.35032 -0.90478,-6.7289 -0.60583,-7.50796 0.29896,-0.77905 0.33747,-1.41647 0.0856,-1.41647 -1.25929,0 -7.873149,4.92663 -11.061815,8.2399 l -3.609873,3.75094 4.041964,0.68289 c 2.803103,0.47358 4.848765,1.58126 6.674275,3.61395 1.447762,1.61209 4.976969,5.46232 7.842679,8.55607 8.87036,9.57622 10.48932,14.60481 6.94208,21.5625 -2.33863,4.58708 -2.33371,5.25774 0.0609,8.30202 2.19271,2.78757 1.59286,4.76022 -1.22354,4.02372 -1.03869,-0.27162 -2.88643,0.16001 -4.10612,0.95917 -1.25067,0.81948 -3.14555,1.22014 -4.34581,0.91889 -1.17052,-0.29378 -6.341551,-4.76188 -11.491204,-9.92912 -9.171189,-9.20249 -14.455835,-17.22493 -14.549563,-22.08718 -0.01987,-1.03125 -0.576935,-2.84954 -1.237901,-4.04065 l -1.201756,-2.16565 -3.686898,4.11475 c -4.365105,4.87165 -11.056582,13.46415 -11.499398,14.76633 -0.171875,0.50544 0.842991,0.91897 2.255259,0.91897 3.793024,0 8.065218,3.76513 11.117613,9.79808 1.603444,3.16916 4.536736,6.88497 7.223387,9.15039 5.638164,4.75416 8.124898,10.81548 7.803331,19.02028 -0.403888,10.3052 -2.043221,11.16232 -8.965328,4.6875 -2.480602,-2.32031 -5.147249,-4.21875 -5.925884,-4.21875 -0.778634,0 -4.502073,-3.05859 -8.274309,-6.79688 C 57.061833,497.75366 54.375,492.23971 54.375,484.39629 l 0,-3.82588 -3.046875,4.55661 c -6.917795,10.34559 -8.341878,13.20904 -9.742311,19.58915 -0.807657,3.67954 -2.07485,9.43227 -2.815983,12.78383 -0.741134,3.35156 -1.594492,8.32399 -1.896352,11.04984 -0.542797,4.90156 -0.504206,4.99729 3.507755,8.70111 4.333478,4.00065 8.474555,5.71293 9.121639,3.77168 0.210559,-0.63167 1.367363,-2.28034 2.570676,-3.66369 1.793199,-2.06151 2.494022,-2.32882 3.885271,-1.48194 2.295468,1.39727 2.664509,4.83096 0.746947,6.94984 -1.122728,1.24061 -1.390009,2.55379 -0.938346,4.6102 0.768496,3.49893 -0.593344,3.76589 -2.712461,0.53171 -1.229231,-1.87604 -2.326474,-2.35038 -5.498447,-2.37698 -4.846208,-0.0406 -7.429622,-1.39587 -10.44068,-5.47712 l -2.306111,-3.12576 -0.634342,3.61493 c -0.832817,4.746 -2.979462,11.92008 -5.201156,17.38227 -2.23622,5.49789 -1.328956,8.52393 3.009025,10.03617 3.41763,1.19139 4.277912,0.69899 4.734242,-2.70976 0.237924,-1.77727 0.950595,-2.41677 2.948576,-2.64587 1.44915,-0.16616 3.242118,0.2019 3.984375,0.81792 1.719475,1.42704 1.749148,5.95423 0.04828,7.36583 -0.975028,0.8092 -1.09816,1.95445 -0.491116,4.56792 1.939429,8.34971 0.366708,10.37224 -2.277117,2.92837 z m 0.748226,-10.15689 c 0.296654,-0.48 0.110614,-1.13771 -0.413422,-1.46158 -0.524036,-0.32387 -0.952792,0.0688 -0.952792,0.87272 0,1.64675 0.562552,1.88921 1.366214,0.58886 z M 82.5,512.44727 c 0,-2.50434 -3.803188,-6.88876 -10.65573,-12.28423 -5.018798,-3.95165 -10.62074,-11.97361 -12.042473,-17.24478 -1.652997,-6.12859 -2.786756,-5.68007 -2.102468,0.83174 1.161286,11.05101 6.484691,19.24911 15.129426,23.29947 2.483247,1.16349 5.569682,3.32536 6.858745,4.80416 2.897408,3.32388 2.8125,3.30596 2.8125,0.59364 z m 0.01459,-8.02141 c -0.90751,-3.16431 -5.417315,-9.98463 -8.344119,-12.61908 -1.091901,-0.98284 -3.471592,-4.44475 -5.288203,-7.69316 -3.608403,-6.45243 -3.560657,-6.40386 -7.133177,-7.25589 l -2.469664,-0.58901 2.041341,4.91251 c 3.197853,7.69568 4.805659,10.24471 9.157163,14.51785 3.787664,3.71946 12.282558,11.41264 12.659756,11.46498 0.09292,0.0129 -0.187481,-1.2193 -0.623097,-2.7382 z m 144.981303,-2.16024 c -0.26007,-0.64453 -0.47287,-0.11718 -0.47287,1.17188 0,1.28906 0.2128,1.81641 0.47287,1.17187 0.26007,-0.64453 0.26007,-1.69921 0,-2.34375 z M 107.70927,487.15564 c 0.80919,-0.97501 0.72445,-1.56355 -0.35396,-2.45855 -0.77979,-0.64716 -1.41781,-1.71318 -1.41781,-2.3689 0,-0.65574 -3.32816,-4.63411 -7.395919,-8.84084 -4.067756,-4.20673 -8.35275,-9.63028 -9.522215,-12.05235 -1.169466,-2.42206 -2.484614,-5.03656 -2.922551,-5.81 -0.437937,-0.77344 -1.03494,-2.03906 -1.326674,-2.8125 -1.863137,-4.93951 -3.45841,-5.66962 -5.518431,-2.52563 -1.387205,2.11714 -1.340751,2.74657 0.65677,8.89876 1.182259,3.64125 3.409159,8.18521 4.948666,10.09769 1.539507,1.91247 2.941425,3.84556 3.115372,4.29575 0.173949,0.4502 2.092269,2.04046 4.262935,3.53392 2.170666,1.49345 5.171069,4.65243 6.667553,7.01994 2.127364,3.36559 3.268584,4.30457 5.231654,4.30457 1.38092,0 2.98949,-0.57683 3.57461,-1.28186 z m 130.14129,-6.44158 c -0.22424,-1.16617 -0.41624,-0.43281 -0.42664,1.62969 -0.0104,2.0625 0.17307,3.01664 0.40772,2.12031 0.23464,-0.89634 0.24316,-2.58384 0.0189,-3.75 z M 111.5577,471.85791 c 0.0116,-2.6895 -2.1256,-6.12967 -7.25642,-11.68021 -3.0296,-3.27742 -6.42253,-7.27631 -7.539871,-8.88641 -2.074218,-2.98899 -9.2106,-5.7796 -10.776252,-4.21395 -0.409338,0.40934 0.642953,4.17917 2.338421,8.3774 2.573474,6.3723 4.387958,9.04164 10.984841,16.16018 l 7.902171,8.52702 2.17115,-3.5866 c 1.19413,-1.97263 2.17332,-4.08647 2.17596,-4.69743 z m -63.07189,3.51269 c 0.628132,-0.80539 1.155476,-1.74983 1.171875,-2.09875 0.06378,-1.35712 -10.466565,-5.3435 -15.626466,-5.91558 -13.966458,-1.54844 -20.031604,-3.29556 -23.953094,-6.89993 -2.3570904,-2.16648 -2.5770275,-2.21394 -2.5653237,-0.55361 0.035148,4.98617 4.5544507,9.78477 9.2152597,9.78477 1.144431,0 2.305885,0.5866 2.581007,1.30356 0.313428,0.81677 2.698527,1.53897 6.387146,1.93398 3.237808,0.34675 7.11275,1.2721 8.610981,2.05634 3.270693,1.71205 9.677916,2.99691 11.630305,2.33228 0.773437,-0.26329 1.920176,-1.13767 2.54831,-1.94306 z m -1.919053,-12.53525 c -7.15424,-6.65307 -14.620862,-10.02119 -22.217533,-10.02211 -3.664059,-4.4e-4 -6.861528,0.51546 -7.96875,1.28573 -1.017073,0.70755 -3.257048,1.59288 -4.977722,1.9674 l -3.1284975,0.68097 3.1284975,2.07848 c 1.720674,1.14317 4.394123,2.56707 5.940998,3.16422 3.525301,1.3609 16.091177,3.94422 19.21875,3.95103 1.289062,0.003 4.875,1.03684 7.96875,2.29783 5.151536,2.09975 5.677965,2.15857 6.254257,0.69879 0.454782,-1.15198 -0.714964,-2.844 -4.21875,-6.10234 z m 82.784833,-1.48778 c 0.60562,-2.52448 2.06444,-5.49495 3.24183,-6.60105 1.80599,-1.69664 2.03734,-2.57645 1.47955,-5.62676 -0.36364,-1.98861 -1.56945,-4.77035 -2.67957,-6.18164 -1.11012,-1.41129 -2.0184,-3.09549 -2.0184,-3.74267 0,-1.4461 -8.0003,-12.42779 -10.69537,-14.6811 -2.36164,-1.97454 -8.05463,-2.2862 -8.05463,-0.44095 0,0.6935 1.60055,3.75209 3.55678,6.79687 1.95623,3.04479 4.13508,7.01254 4.8419,8.81723 0.70682,1.80469 1.77349,3.91406 2.37039,4.6875 0.5969,0.77344 1.65708,3.30469 2.35596,5.625 0.69888,2.32031 1.85963,5.41811 2.57945,6.884 0.71983,1.46588 1.06237,2.91165 0.76121,3.21281 -0.66318,0.66318 -3.26907,-2.62072 -3.31088,-4.17231 -0.0242,-0.89976 -4.14386,-10.13865 -9.53927,-21.39325 -0.49437,-1.03125 -2.06975,-3.29899 -3.50086,-5.03941 l -2.60199,-3.16442 -1.56884,3.3061 c -3.9832,8.39396 1.00658,20.53929 10.33975,25.16744 2.47371,1.22666 4.94367,3.1499 5.4888,4.27387 1.34008,2.76304 4.46535,6.86267 5.23161,6.86267 0.34181,0 1.11697,-2.06547 1.72258,-4.58993 z M 146.25,446.48403 c 0,-1.17796 -2.61367,-12.57265 -4.13153,-18.01205 -0.78607,-2.81697 -2.9757,-8.59244 -4.86583,-12.83436 -2.90792,-6.5261 -3.63396,-7.51523 -4.71951,-6.42968 -2.07501,2.07501 0.0335,14.45008 3.44909,20.24289 1.5079,2.55742 3.00519,5.69993 3.32732,6.98337 0.32211,1.28343 0.96081,2.56536 1.41932,2.84874 0.4585,0.28337 0.83364,1.2402 0.83364,2.12629 0,1.91246 2.54441,5.77827 3.80316,5.77827 0.48639,0 0.88434,-0.31657 0.88434,-0.70347 z m 7.10736,-9.84883 c 0.31154,-0.98157 0.023,-4.5987 -0.64129,-8.03806 -1.63391,-8.46013 -6.7111,-16.93574 -11.49715,-19.19281 -1.9703,-0.92919 -3.92295,-1.562 -4.33923,-1.40625 -0.41627,0.15574 0.46746,2.81442 1.96385,5.90817 1.4964,3.09375 3.41816,7.94531 4.27056,10.78125 0.85241,2.83594 2.11764,6.96397 2.81162,9.17339 0.69398,2.20943 1.26178,5.34695 1.26178,6.97227 l 0,2.95513 2.80171,-2.68421 c 1.54095,-1.47631 3.05661,-3.48731 3.36815,-4.46888 z M 75,440.8004 c 0,-1.47455 -5.216565,-5.65533 -10.777398,-8.63748 -3.091631,-1.65797 -6.628993,-3.80726 -7.860804,-4.77621 -1.231812,-0.96894 -2.742039,-1.76171 -3.356059,-1.76171 -0.61402,0 -2.107228,-1.05469 -3.318239,-2.34375 -1.211011,-1.28906 -2.737191,-2.34375 -3.391509,-2.34375 -0.654319,0 -1.802358,-0.87473 -2.551198,-1.94385 -0.851642,-1.21589 -1.594451,-1.56698 -1.983489,-0.9375 -0.342079,0.55349 -1.469242,1.00635 -2.504809,1.00635 -1.508082,0 -1.761593,0.41985 -1.27366,2.10937 0.335052,1.16016 1.354429,3.15898 2.26528,4.44181 1.605039,2.26054 2.420792,2.53392 12.609742,4.22582 2.762663,0.45876 4.794754,1.80744 8.4375,5.59992 2.639116,2.74759 5.642143,5.20036 6.673393,5.4506 C 71.121808,441.65512 75,441.60569 75,440.8004 Z m 4.320651,-4.46638 c 0.994082,-3.96075 -2.245695,-8.40623 -12.587127,-17.27152 -4.462696,-3.82569 -11.800955,-7.48655 -15.026302,-7.49622 -1.917137,-0.006 -6.707222,3.699 -6.707222,5.1875 0,1.33974 6.854985,6.086 15.706265,10.87472 5.649534,3.05652 10.910665,6.435 14.293735,9.17889 3.05813,2.48032 3.594056,2.42161 4.320651,-0.47337 z m 11.609678,-1.09115 c 3.235096,-2.99733 11.214551,-9.65353 14.573311,-12.15658 1.52769,-1.13848 7.10183,-5.27924 12.38699,-9.20171 5.28515,-3.92245 9.60937,-7.36665 9.60937,-7.65376 0,-0.2871 -0.94922,0.1665 -2.10937,1.00804 -1.16016,0.84153 -2.981,1.90773 -4.04632,2.36934 -2.64216,1.14484 -8.26601,5.0124 -12.68384,8.72272 -7.41256,6.22547 -22.41047,19.67396 -22.41047,20.09529 0,0.65117 2.037082,-0.73437 4.680329,-3.18334 z m 74.116631,-12.73178 c -1.85547,-6.6125 -9.64421,-26.48334 -10.85537,-27.6945 -1.01516,-1.01516 -4.14928,4.01296 -4.17074,6.6912 -0.0374,4.66967 3.46794,12.67415 8.09773,18.49111 2.49572,3.13568 5.38142,6.89718 6.41267,8.35889 2.63606,3.7364 2.77207,2.19448 0.51571,-5.8467 z m 10.82676,0.93688 c 0.85516,-2.67764 -0.2537,-5.68452 -4.9857,-13.51956 -7.39318,-12.2413 -12.45658,-18.35985 -13.95427,-16.86216 -0.4503,0.4503 3.06969,10.37512 5.65274,15.93822 1.92211,4.13964 6.13684,17.64213 6.15154,19.70737 0.0102,1.43991 0.48301,1.30565 3.30104,-0.9375 1.80899,-1.43995 3.53458,-3.38682 3.83466,-4.32637 z m 21.05529,-8.24133 c 4.24842,-8.32761 -0.11919,-31.23773 -6.8546,-35.95539 -2.32839,-1.63086 -7.26191,-1.94307 -7.26191,-0.45955 0,1.70822 2.82483,13.24806 5.38281,21.98955 1.503,5.13628 2.49189,10.86113 2.52748,14.63198 l 0.0585,6.19448 2.16338,-1.41581 c 1.18986,-0.7787 2.98283,-3.02206 3.98438,-4.98526 z m -10.79454,-13.43808 c -1.31145,-4.52558 -2.39069,-8.91939 -2.39828,-9.76406 -0.007,-0.84466 -0.77493,-3.97371 -1.7052,-6.95345 -1.57421,-5.04236 -1.79223,-5.30215 -3.14697,-3.75 -2.8403,3.25419 -3.57152,5.84571 -3.57152,12.65768 0,9.69201 2.32735,15.80537 7.84158,20.59779 2.39026,2.07738 4.42721,4.4684 4.52656,5.31339 0.0993,0.84499 0.32861,-1.03077 0.50946,-4.16836 0.23696,-4.11073 -0.33741,-8.00377 -2.05563,-13.93299 z M 96.5625,413.91031 c 0,-0.3771 -15.230967,-10.51938 -24.098563,-16.04721 -1.137023,-0.70878 -2.929991,-2.21468 -3.984375,-3.34643 -2.489076,-2.67171 -2.519439,-0.5564 -0.04938,3.44024 1.620959,2.62276 10.470789,9.96442 17.81982,14.78301 2.108212,1.38229 10.3125,2.31343 10.3125,1.17039 z m 5.625,-2.74546 c 0,-3.02234 -3.022941,-6.53875 -9.265477,-10.77798 -2.93772,-1.99496 -5.950934,-4.36176 -6.696029,-5.25954 -2.325949,-2.8026 -8.259834,-6.06617 -10.972989,-6.03502 -1.428216,0.0164 -3.406493,0.64251 -4.396174,1.39135 -1.731628,1.31023 -1.736194,1.43138 -0.121216,3.21591 0.923012,1.01992 5.627544,4.24384 10.454515,7.16426 4.82697,2.92043 9.257392,5.88953 9.845382,6.59802 0.58799,0.70848 1.560696,1.28815 2.161568,1.28815 0.600873,0 2.553123,1.22267 4.338329,2.71703 3.587991,3.00345 4.652091,2.93433 4.652091,-0.30218 z m 46.11241,-1.73535 c -0.5457,-0.65753 -1.1247,-3.39963 -1.28667,-6.09356 -0.16196,-2.69395 -0.38123,-4.89816 -0.48723,-4.89826 -0.66417,-6.2e-4 -6.92596,4.68231 -6.94776,5.19595 -0.0231,0.54596 8.41521,6.79926 9.36466,6.93971 0.19205,0.0284 -0.0973,-0.48632 -0.643,-1.14384 z m 82.06651,-5.9185 c -0.24321,-3.72838 -1.61642,-7.1288 -1.61642,-4.00269 0,2.20705 -2.40099,4.91917 -3.66388,4.13866 -0.84518,-0.52234 -0.74823,-0.98539 0.37885,-1.80953 0.83307,-0.60915 1.64613,-1.93975 1.80679,-2.95688 0.16406,-1.03865 0.96304,-1.79223 1.82268,-1.7191 1.15562,0.0983 1.53056,-0.69401 1.53056,-3.23438 0,-2.6169 -0.25,-3.11458 -1.125,-2.23958 -1.36232,1.36232 -4.5,1.49305 -4.5,0.1875 0,-0.51562 0.67231,-0.9375 1.49402,-0.9375 0.82171,0 1.71466,-0.84375 1.98434,-1.875 0.26968,-1.03125 0.863,-1.875 1.31848,-1.875 0.45548,0 0.82816,-1.04145 0.82816,-2.31433 0,-1.67973 -0.38851,-2.16524 -1.41688,-1.77061 -1.01386,0.38905 -1.252,0.11401 -0.8372,-0.96693 0.38487,-1.00296 0.0734,-1.51063 -0.92687,-1.51063 -0.82861,0 -1.50655,0.70507 -1.50655,1.56681 0,0.86174 -0.73828,2.40984 -1.64063,3.44021 -1.57726,1.80108 -1.56822,1.84506 0.23438,1.13933 4.84207,-1.89571 5.42373,-1.8617 4.11097,0.24035 -0.67512,1.08104 -1.40493,1.78808 -1.62181,1.5712 -0.85167,-0.85165 -3.89541,4.19397 -3.89541,6.45742 0,1.85803 0.37093,2.2842 1.64062,1.88497 1.56251,-0.49129 1.56251,-0.45149 0,0.83591 -1.0707,0.88218 -1.64062,2.6728 -1.64062,5.15465 0,4.04587 0.33873,4.37145 4.71065,4.52784 2.72103,0.0973 2.78698,-0.005 2.53077,-3.93269 z m -58.22466,-8.20129 -0.11051,-10.62779 -3.75,1.77907 c -2.0625,0.97849 -4.48828,2.01333 -5.39063,2.29963 -2.04165,0.64781 -2.07942,1.58312 -0.12929,3.20159 1.71046,1.41956 8.80117,12.0737 8.80117,13.2242 0,0.4131 0.15519,0.75109 0.34489,0.75109 0.18968,0 0.29515,-4.78251 0.23437,-10.62779 z m -48.3777,0.33305 c -3.22157,-4.06756 -5.62917,-5.86497 -12.45723,-9.29996 -2.46094,-1.23802 -7.26961,-4.71849 -10.68596,-7.73437 -3.416333,-3.01589 -6.549007,-5.48343 -6.961496,-5.48343 -1.315194,0 5.095235,10.39323 9.353166,15.1643 2.25845,2.53062 5.42252,5.286 7.03125,6.12305 2.45293,1.27631 13.25942,4.59284 15.89436,4.87802 0.43005,0.0465 -0.54829,-1.59488 -2.17409,-3.64761 z m 4.82611,-3.32106 c -0.0707,-3.52073 -0.77434,-5.20833 -3.82664,-9.17724 -8.15792,-10.60779 -14.77623,-15.29371 -20.25147,-14.33854 -1.79413,0.31299 -4.706729,0.82245 -6.472444,1.13212 l -3.210375,0.56305 3.44475,3.12038 c 7.404709,6.70745 12.944189,10.81488 17.485069,12.96489 4.54549,2.15219 11.74094,8.48872 11.74094,10.33943 0,0.48769 0.26477,0.62194 0.58838,0.29833 0.32361,-0.32361 0.54942,-2.5297 0.50179,-4.90242 z m 33.05765,-6.21488 c 16.63001,-8.55159 31.70717,-17.21556 27.24682,-15.65717 -3.22254,1.12591 -11.70714,5.84102 -11.70714,6.50595 0,0.43892 -0.60961,0.56413 -1.35469,0.27821 -0.74508,-0.28591 -3.17086,0.69622 -5.39062,2.18252 -2.21977,1.48629 -6.77813,4.11132 -10.12969,5.83339 -3.35156,1.72208 -6.49453,3.49538 -6.98438,3.94066 -1.92765,1.75232 1.09185,0.63319 8.3197,-3.08356 z m -13.48446,-3.09723 c -1.1899,-1.2666 -3.90016,-3.46613 -6.02279,-4.88784 -4.74161,-3.17586 -17.27605,-14.14563 -19.97889,-17.48493 -0.61576,-0.76076 -1.62826,-1.55277 -2.25,-1.76001 -0.62173,-0.20724 -0.94935,-0.92004 -0.72805,-1.58397 0.2483,-0.74488 3.55269,1.60665 8.62885,6.14062 4.52454,4.04128 10.41847,8.95149 13.0976,10.91155 2.67915,1.96006 6.16454,4.81515 7.74531,6.34461 3.25464,3.149 4.15711,2.81773 4.15711,-1.52598 0,-2.04873 -1.68117,-5.70177 -5.21334,-11.32812 -8.46818,-13.48886 -12.69872,-16.89973 -19.76043,-15.93181 -2.31759,0.31766 -5.12327,1.21459 -6.23485,1.99317 -1.1116,0.7786 -2.98994,1.41562 -4.17409,1.41562 -1.86875,0 -2.07403,0.3404 -1.55486,2.57813 1.69064,7.28701 12.63818,17.29722 26.62507,24.34538 7.28967,3.67335 8.54918,3.8454 5.66336,0.77358 z m 76.36789,-1.44709 c 0.31868,-0.51563 0.13264,-0.9375 -0.41342,-0.9375 -0.54606,0 -0.99283,0.42187 -0.99283,0.9375 0,0.51562 0.18604,0.9375 0.41342,0.9375 0.22738,0 0.67415,-0.42188 0.99283,-0.9375 z m -62.25916,-2.79551 c 2.78941,-1.53754 4.3661,-2.80317 3.50374,-2.8125 -2.49442,-0.027 -9.46607,-8.79981 -12.02583,-15.13271 -1.74792,-4.32439 -4.06623,-7.54571 -9.11932,-12.6714 -3.86041,-3.9159 -7.01433,-7.98807 -7.3305,-9.46478 -0.30523,-1.42552 -0.96782,-3.60525 -1.47244,-4.84385 -1.38174,-3.39143 0.47581,-4.70085 3.14422,-2.21643 1.52089,1.41602 4.37857,2.29256 10.09054,3.09508 4.38281,0.61577 9.65625,1.87903 11.71875,2.80725 2.0625,0.92822 4.80469,2.09239 6.09375,2.58706 1.28906,0.49467 4.91452,2.8371 8.05656,5.20538 5.70194,4.29779 7.47621,6.90864 11.38332,16.7506 1.74876,4.40514 1.75793,4.41161 4.34791,3.06792 1.4275,-0.7406 4.5233,-3.0435 6.87957,-5.11757 2.35626,-2.07407 4.6466,-3.77104 5.08963,-3.77104 0.44303,0 0.80551,-1.65216 0.80551,-3.67146 0,-2.8168 -1.05572,-5.27194 -4.53519,-10.54687 -12.36048,-18.73868 -15.20222,-23.32049 -18.25272,-29.42938 -1.81717,-3.63906 -3.97234,-7.17118 -4.78927,-7.84917 -0.81693,-0.67799 -1.48532,-1.7127 -1.48532,-2.29936 0,-0.58667 -1.07176,-2.22252 -2.38169,-3.63522 -2.83407,-3.05641 -7.58889,-3.40424 -15.28668,-1.11824 -3.88509,1.15375 -5.45532,2.25599 -7.6793,5.39063 -5.64911,7.96226 -11.42656,14.72157 -12.58312,14.72157 -2.13387,0 -3.68074,10.33494 -2.52711,16.88419 0.79378,4.50636 0.74421,6.57209 -0.22525,9.38595 l -1.24302,3.60791 5.25995,2.85667 c 2.89299,1.57117 6.21672,4.23532 7.38608,5.92035 1.16936,1.68502 3.6729,5.38399 5.56342,8.21993 1.89053,2.83594 3.99237,5.71372 4.67077,6.39509 0.68518,0.68818 1.23345,3.29265 1.23345,5.85938 0,2.54129 0.14353,4.62053 0.31897,4.62053 0.17543,0 2.60121,-1.25798 5.39062,-2.79551 z m 67.27112,-5.29211 c 6.59795,-1.89841 11.71838,-4.45608 16.31284,-8.14828 4.16713,-3.34879 3.25976,-4.55917 -2.43145,-3.24341 -6.84861,1.58333 -9.9871,3.6472 -9.9871,6.5675 0,2.75154 -1.57371,3.53782 -2.4597,1.22897 -0.43777,-1.14081 -0.95493,-1.05312 -3.08747,0.52353 -2.15553,1.59365 -2.94042,1.72129 -4.95113,0.80515 -1.75716,-0.80062 -2.90081,-0.81511 -4.32148,-0.0548 -1.06258,0.56867 -4.38547,1.07537 -7.38421,1.12599 l -5.45226,0.092 4.21875,1.22217 c 5.91724,1.71423 13.32898,1.66914 19.54321,-0.11887 z m -48.23243,-3.44539 c 2.63399,-1.92601 0.4259,-11.65834 -3.59042,-15.82513 -10.57224,-10.96833 -17.87057,-15.14123 -28.11151,-16.07304 l -6.48491,-0.59005 4.11162,2.08874 c 2.53591,1.28826 6.75272,5.14263 11.00327,10.05749 10.3938,12.01822 19.46232,21.5625 20.48765,21.5625 0.50334,0 1.66627,-0.54923 2.5843,-1.22051 z m -10.40764,-2.03128 c -0.92641,-1.27286 -1.95327,-2.32754 -2.28192,-2.34375 -0.32864,-0.0162 -2.97936,-2.97742 -5.8905,-6.58048 -2.91114,-3.60305 -6.22818,-7.54017 -7.37122,-8.74915 -1.14304,-1.20897 -3.48362,-3.7454 -5.20129,-5.63648 -1.71768,-1.89109 -3.84814,-3.43835 -4.73437,-3.43835 -0.88624,0 -2.11759,-0.50625 -2.73634,-1.125 -0.76268,-0.76267 -1.125,-0.79254 -1.125,-0.0927 0,0.56773 2.60234,3.28668 5.78298,6.04211 4.51429,3.9108 6.44116,6.45417 8.78311,11.59324 1.65007,3.62085 4.14773,7.94721 5.55036,9.61414 2.1721,2.58138 3.16989,3.03077 6.72941,3.03077 l 4.17917,0 -1.68439,-2.3143 z m 38.87342,0.73265 c -0.89634,-0.23464 -2.58384,-0.24316 -3.75,-0.0189 -1.16617,0.22425 -0.43281,0.41624 1.62969,0.42664 2.0625,0.0104 3.01664,-0.17307 2.12031,-0.40772 z m 17.65563,-4.53567 c -0.15827,-1.48452 -0.77027,-2.85997 -1.35998,-3.05654 C 225.48249,360.94208 225,360.13193 225,359.33833 c 0,-1.14983 -0.27431,-1.21525 -1.35053,-0.32208 -1.4144,1.17386 -0.94591,4.16737 0.51126,3.26679 0.4616,-0.28528 0.90353,0.45542 0.98206,1.646 0.0786,1.19059 0.24082,2.58659 0.36061,3.10221 0.1198,0.51562 0.27931,1.35937 0.35447,1.875 0.32601,2.23669 1.83396,-2.27575 1.57432,-4.71106 z m -9.39489,-0.13586 c -0.33044,-0.86112 -0.15528,-1.84103 0.38925,-2.17756 0.65327,-0.40375 0.31106,-2.14685 -1.00601,-5.12431 -1.46617,-3.31451 -2.21367,-4.16748 -2.81581,-3.21307 -0.53943,0.85504 -0.30465,1.68468 0.68659,2.4262 0.82849,0.61975 1.2603,1.76802 0.95957,2.5517 -0.54118,1.4103 0.98947,7.10271 1.90987,7.10271 0.26254,0 0.20698,-0.70455 -0.12346,-1.56567 z m 17.94929,-4.56338 c 0.91831,-0.0194 4.37634,-0.38536 7.68452,-0.81321 7.67049,-0.99207 5.77879,-2.31352 -3.8011,-2.65528 l -6.90126,-0.24621 -0.26447,3.28125 c -0.19702,2.44437 -0.0251,2.92259 0.67408,1.875 0.51621,-0.77344 1.68991,-1.42213 2.60823,-1.44155 z M 210,360 c 1.10833,-0.71626 0.90972,-0.89787 -0.9375,-0.85725 -1.28906,0.0283 -3.1875,0.4141 -4.21875,0.85725 -1.60982,0.69176 -1.47724,0.813 0.9375,0.85725 1.54687,0.0283 3.44531,-0.35741 4.21875,-0.85725 z m -1.875,-5.10092 c 0,-0.22738 -0.42188,-0.67416 -0.9375,-0.99283 -0.51563,-0.31867 -0.9375,-0.13264 -0.9375,0.41342 0,0.54606 0.42187,0.99283 0.9375,0.99283 0.51562,0 0.9375,-0.18604 0.9375,-0.41342 z m 17.17054,-3.41992 c -2.32239,-0.84547 -3.02462,-0.26894 -2.43213,1.99675 0.47855,1.82998 0.57741,1.84138 2.3169,0.26717 1.73416,-1.56941 1.73942,-1.67263 0.11523,-2.26392 z m -12.71742,-0.92925 c -0.90234,-0.52557 -1.64062,-2.0142 -1.64062,-3.30808 0,-1.29387 -0.37407,-2.1213 -0.83127,-1.83873 -0.4572,0.28257 -1.31857,-0.0734 -1.91413,-0.791 -0.82741,-0.99698 -0.79719,-1.41049 0.12814,-1.75294 0.71787,-0.26566 0.16114,-0.86599 -1.36712,-1.47421 -1.41796,-0.56433 -2.57812,-1.52868 -2.57812,-2.143 0,-0.61433 -0.24152,-0.87544 -0.5367,-0.58025 -0.93536,0.93537 7.33025,12.90217 8.89103,12.87229 1.26697,-0.0243 1.24439,-0.17122 -0.15121,-0.98408 z m 11.5723,-4.89949 c -1.22432,-1.22432 -1.39462,0.13252 -0.34999,2.78853 0.65145,1.65633 0.68784,1.65553 1.02542,-0.0229 0.19249,-0.95711 -0.11145,-2.20164 -0.67543,-2.76562 z m -95.23139,-1.61263 c 1.14117,-2.20679 1.32812,-4.37181 0.84134,-9.74359 -0.55684,-6.14494 -0.34288,-7.64687 1.94064,-13.62278 1.41157,-3.69404 2.335,-6.94791 2.05206,-7.23085 -0.28294,-0.28294 -1.5989,0.69047 -2.92434,2.16312 -1.32546,1.47266 -3.25197,3.56799 -4.28113,4.65629 -2.89501,3.06137 -5.75732,12.32422 -5.80338,18.78056 -0.0493,6.91079 0.41928,7.83446 3.97454,7.83446 2.09386,0 3.07624,-0.66358 4.20027,-2.83721 z m 89.16307,-7.24092 c -1.31935,-23.44137 -1.58836,-25.35335 -3.49686,-24.85426 -2.45851,0.64291 -3.24353,-2.08282 -1.40707,-4.88562 2.36542,-3.61007 1.74711,-4.10382 -0.91277,-0.72887 -2.51415,3.19007 -4.02236,3.72742 -5.714,2.03578 -1.9828,-1.9828 2.90842,-13.98542 8.11644,-19.91702 2.40764,-2.74216 2.66939,-3.55805 1.94818,-6.07275 -0.45822,-1.59774 -0.94886,-9.14882 -1.09031,-16.78018 -0.24839,-13.40081 -0.34271,-13.98739 -2.75886,-17.15645 -1.37592,-1.80469 -3.15538,-4.54619 -3.95434,-6.09224 l -1.45268,-2.81099 -0.53964,3.27974 c -0.29681,1.80386 -0.95264,5.69782 -1.45742,8.65325 -1.45146,8.49812 -7.42023,20.11983 -13.01079,25.33312 -4.81847,4.4933 -6.9816,5.74989 -11.58637,6.73067 -6.12666,1.30493 -3.91572,6.99066 8.95593,23.03145 1.86189,2.32031 3.38936,4.57166 3.39436,5.00299 0.005,0.43133 1.22521,2.54071 2.71157,4.6875 1.48636,2.1468 4.29021,6.36015 6.23079,9.36301 1.94057,3.00285 6.20884,8.68383 9.48502,12.62439 3.2762,3.94057 5.95672,7.4954 5.95672,7.89964 0,0.40423 0.2586,0.73497 0.57467,0.73497 0.31606,0 0.31941,-4.53516 0.007,-10.07812 z m 14.77561,8.62319 c 0.32015,-0.8343 0.16299,-1.21062 -0.36844,-0.88217 -0.50972,0.31502 -0.92677,0.96975 -0.92677,1.45494 0,1.34853 0.67197,1.05137 1.29521,-0.57277 z M 225,342.1875 c 0,-0.51563 -0.42188,-0.9375 -0.9375,-0.9375 -0.51563,0 -0.9375,-0.70313 -0.9375,-1.5625 0,-0.85937 -0.24946,-1.31305 -0.55435,-1.00815 -0.78208,0.78208 0.49938,4.44565 1.55503,4.44565 0.48087,0 0.87432,-0.42188 0.87432,-0.9375 z M 92.059537,331.34043 c 2.144982,-3.26252 4.275338,-5.69986 4.734132,-5.41631 0.458784,0.28354 0.585993,1.16225 0.282675,1.95268 -0.900919,2.34775 4.771256,0.91436 14.151866,-3.57627 9.35367,-4.47773 9.26968,-4.42764 8.58044,-5.11688 -0.27712,-0.27712 -1.50759,-0.0531 -2.73437,0.49797 -1.2268,0.551 -6.77838,1.77103 -12.33686,2.71119 -8.639264,1.46124 -10.841976,2.21604 -15.174198,5.19976 -2.787335,1.9197 -5.783574,4.58266 -6.65831,5.91768 -1.488194,2.27127 -1.489261,2.50127 -0.01659,3.57811 2.671898,1.95374 5.113906,0.42325 9.171224,-5.74793 z m 110.909213,5.22207 c 0.31868,-0.51563 0.13264,-0.9375 -0.41342,-0.9375 -0.54606,0 -0.99283,0.42187 -0.99283,0.9375 0,0.51562 0.18604,0.9375 0.41342,0.9375 0.22738,0 0.67415,-0.42188 0.99283,-0.9375 z m 23.45593,-2.59826 c -0.11823,-0.13999 -1.22543,0.14968 -2.46045,0.64369 -1.62947,0.65181 -1.79541,0.91453 -0.60486,0.95764 0.90235,0.0327 1.67028,0.58677 1.70653,1.2313 0.0362,0.64454 0.40516,0.32813 0.81981,-0.70312 0.41466,-1.03125 0.6572,-1.98953 0.53897,-2.12951 z M 119.37316,330 c 0.55088,-3.04449 0.49345,-3.14994 -0.79597,-1.46144 -0.76433,1.00089 -1.36295,3.32121 -1.33026,5.15625 0.0466,2.61612 0.21844,2.93164 0.79595,1.46144 0.40511,-1.03125 1.00373,-3.35156 1.33028,-5.15625 z m 81.25184,2.9578 c 0,-0.43571 -0.84375,-1.55578 -1.875,-2.48905 -1.03125,-0.93327 -1.875,-2.46198 -1.875,-3.39713 0,-1.1214 -0.47575,-1.51771 -1.39739,-1.16404 -1.14048,0.43764 -0.92502,1.2042 1.17187,4.1693 2.45935,3.47765 3.97552,4.57636 3.97552,2.88092 z m 22.96875,-5.7703 c 0.69782,0 1.4617,0.73828 1.6975,1.64062 0.26379,1.00937 0.47059,0.64866 0.5375,-0.9375 0.0724,-1.71499 -0.36204,-2.57812 -1.2975,-2.57812 -2.03596,0 -1.84535,-5.27608 0.23437,-6.48741 0.90235,-0.52557 1.14779,-0.96841 0.54543,-0.98408 -0.60236,-0.0157 -1.86798,-0.27924 -2.8125,-0.58569 -1.30697,-0.42405 -1.40859,-0.3371 -0.42531,0.36392 0.80635,0.5749 0.9946,1.401 0.50082,2.19782 -0.43513,0.70218 -0.88203,3.38607 -0.99308,5.96419 -0.11107,2.57813 0.0109,3.94922 0.27104,3.04688 0.26012,-0.90235 1.04391,-1.64063 1.74173,-1.64063 z m -29.34305,-4.46852 c -0.61913,-0.20637 -1.1257,-0.9016 -1.1257,-1.54493 0,-0.64334 -1.02101,-1.71614 -2.26891,-2.38399 -1.2479,-0.66786 -2.05989,-1.75896 -1.80444,-2.42466 0.25546,-0.6657 -0.22695,-2.40541 -1.07202,-3.86601 -0.84507,-1.4606 -1.2844,-1.84562 -0.9763,-0.85559 0.30809,0.99003 0.14978,2.05368 -0.35183,2.3637 -0.5016,0.31 0.80135,2.76251 2.89545,5.45001 2.12444,2.72644 4.25434,4.61017 4.81845,4.26154 0.69743,-0.43103 0.66185,-0.74122 -0.1147,-1.00007 z m 31.37868,-10.29711 c -0.19836,-1.93359 -0.73753,-3.41015 -1.19814,-3.28125 -0.98573,0.27586 -0.98337,0.78253 0.0196,4.21875 1.06039,3.63311 1.60318,3.20134 1.17859,-0.9375 z m -87.81688,-6.80591 c 0,-1.60888 -2.65089,-1.64768 -3.07002,-0.0449 -0.33537,1.28246 -0.0178,1.58026 1.31387,1.23203 0.96588,-0.25262 1.75615,-0.78681 1.75615,-1.18713 z m 5.15625,0.94654 c 0.32309,-0.52278 -0.3782,-0.93115 -1.58529,-0.92315 -1.74154,0.0115 -1.88981,0.19201 -0.75846,0.92315 1.74444,1.12734 1.64701,1.12734 2.34375,0 z m -1.88445,-3.76529 c -0.32387,-0.52403 -0.93738,-0.7374 -1.36334,-0.47414 -0.42597,0.26327 -1.01639,-0.15173 -1.31205,-0.9222 -0.6269,-1.63368 0.64798,-1.80433 3.21522,-0.43039 1.4268,0.7636 1.81337,0.66368 1.81337,-0.46875 0,-0.79158 -0.59831,-1.43923 -1.32957,-1.43923 -0.73127,0 -1.91606,-0.22506 -2.63289,-0.50013 -0.71681,-0.27506 -2.29243,0.35775 -3.50136,1.40625 -1.20895,1.04851 -1.71165,1.95911 -1.11713,2.02357 2.44025,0.26455 2.83006,0.38192 3.50282,1.05468 1.05916,1.05915 3.40121,0.84457 2.72493,-0.24966 z m 7.3199,-7.42891 c -0.75601,-0.96403 -2.8952,2.54286 -3.3972,5.5692 -0.54296,3.27324 -0.53907,3.27096 1.58838,-0.9375 1.17296,-2.32031 1.98693,-4.40457 1.80882,-4.6317 z m 75.9402,7.02837 c 0.74432,-0.74433 1.16241,-2.35202 0.92908,-3.57264 -0.25204,-1.31845 0.17717,-2.71845 1.05739,-3.44896 0.81489,-0.67631 1.48163,-1.93915 1.48163,-2.80631 0,-0.86717 1.19901,-3.46731 2.66446,-5.77809 2.11324,-3.33223 2.4216,-4.42828 1.49052,-5.29803 -0.90407,-0.84452 -1.30175,-0.7635 -1.73,0.35248 -0.30584,0.79699 -0.31708,1.83577 -0.025,2.30838 0.29209,0.47262 -0.29009,2.01657 -1.29374,3.43102 -1.00365,1.41445 -2.0046,3.41548 -2.22434,4.44673 -0.21973,1.03125 -0.9018,1.76953 -1.51571,1.64062 -0.61391,-0.1289 -1.1162,0.38561 -1.1162,1.14336 0,0.75775 -0.81384,2.82672 -1.80855,4.59771 -2.30171,4.09801 -0.9513,6.02548 2.09045,2.98373 z m -4.98375,-9.31412 c -0.007,-0.57821 -0.37145,-1.61463 -0.80788,-2.30314 -0.57614,-0.90892 -1.59951,0.058 -3.73565,3.5297 -4.24814,6.90411 -3.78547,9.05243 0.84633,3.92969 2.04136,-2.25771 3.70509,-4.57803 3.6972,-5.15625 z m -44.98565,0.8237 c -0.6419,-0.77344 -1.82887,-1.40625 -2.63772,-1.40625 -1.17731,0 -1.10767,0.27455 0.34916,1.37644 2.38087,1.80079 3.7734,1.81894 2.28856,0.0298 z M 172.25931,288.75 c 0.33505,-1.22879 0.26255,-1.23221 -0.57447,-0.0272 -0.52683,0.75851 -1.12072,1.18038 -1.31973,0.9375 -0.19902,-0.24288 -1.10946,-1.49629 -2.02321,-2.78535 -0.91375,-1.28906 -1.40694,-1.71094 -1.09599,-0.9375 0.31096,0.77344 0.83114,2.16496 1.15595,3.09227 0.68757,1.96296 3.29755,1.77366 3.85745,-0.27977 z m 51.80319,-0.9375 c 0,-0.51563 -0.42188,-0.9375 -0.9375,-0.9375 -0.51563,0 -0.9375,0.42187 -0.9375,0.9375 0,0.51562 0.42187,0.9375 0.9375,0.9375 0.51562,0 0.9375,-0.42188 0.9375,-0.9375 z m 63.51562,-1.84048 c 1.67579,-1.24417 3.04688,-2.55032 3.04688,-2.90255 0,-0.35223 -2.01557,-0.90779 -4.47905,-1.23458 -4.73825,-0.62855 -13.64807,-3.58837 -15.54767,-5.16489 -1.58155,-1.31256 -23.29175,-4.97653 -24.18641,-4.08187 -0.40297,0.40297 0.83716,2.79776 2.75585,5.32174 2.75224,3.62048 4.57681,4.97456 8.64478,6.4156 14.4014,5.10156 24.36937,5.65296 29.76562,1.64655 z m -123.40118,-5.35483 c -0.81708,-1.4051 -1.00002,-1.4456 -1.02343,-0.22657 -0.0303,1.57883 0.95549,3.00038 1.61992,2.33594 0.21915,-0.21914 -0.0493,-1.16836 -0.59649,-2.10937 z m 126.7459,-2.0795 c -0.69618,-2.66222 -9.12361,-10.88291 -13.8843,-13.54372 -6.24203,-3.48873 -14.53214,-4.1206 -21.2079,-1.61643 -2.89471,1.08584 -5.9603,2.74465 -6.81243,3.68625 -1.4762,1.63117 -1.27198,1.78391 4.3256,3.23529 3.23122,0.83782 8.35859,1.95339 11.39418,2.47906 3.03558,0.52567 5.99382,1.34963 6.57388,1.83103 2.31655,1.92256 13.26548,5.40596 17.58474,5.59458 2.00521,0.0876 2.39994,-0.237 2.02623,-1.66606 z m -56.06462,-10.68194 c 1.31825,-1.95277 2.17187,-3.91449 1.89691,-4.35937 -0.27495,-0.44489 -1.98905,-0.80888 -3.80912,-0.80888 -1.82007,0 -3.92563,-0.51157 -4.67902,-1.13683 -1.09365,-0.90766 -1.48102,-0.847 -1.9215,0.30087 -0.82545,2.15107 -0.83032,7.07589 -0.0126,12.64199 l 0.72908,4.96227 2.69967,-4.02477 c 1.48481,-2.21363 3.77822,-5.62251 5.09649,-7.57528 z m -1.14807,9.64038 c 0.32092,-1.22719 0.99456,-1.68577 1.94218,-1.32213 1.67563,0.643 5.32864,-4.66703 12.31114,-17.89551 2.4487,-4.6391 5.03366,-9.10077 5.74436,-9.91481 0.71069,-0.81404 1.29217,-1.84281 1.29217,-2.28615 0,-1.87992 -5.05416,5.06096 -6.66775,9.15684 -0.55862,1.41797 -1.39628,2.57813 -1.86147,2.57813 -0.46517,0 -0.84578,0.82279 -0.84578,1.82842 0,1.00562 -0.67061,2.2037 -1.49025,2.66239 -0.81964,0.4587 -1.48012,1.21795 -1.46773,1.68721 0.0124,0.46928 -0.68809,0.76003 -1.55663,0.64614 -0.87611,-0.1149 -1.05742,0.0242 -0.40727,0.31249 1.58775,0.70399 1.48725,2.23835 -0.1466,2.23835 -0.85692,0 -1.14684,0.65638 -0.82816,1.875 0.38251,1.46273 0.0288,1.875 -1.60881,1.875 -1.73154,0 -1.90072,0.23907 -0.96613,1.36519 1.43499,1.72905 0.35514,3.81834 -1.27449,2.46588 -0.82574,-0.68531 -1.59557,-0.17907 -2.78204,1.82947 -0.90222,1.52733 -1.24388,2.77696 -0.75924,2.77696 0.48464,0 1.10227,-0.84549 1.3725,-1.87887 z m -73.22578,-1.13676 c -0.67271,-0.67271 -1.10937,-0.72806 -1.10937,-0.14062 0,1.25135 1.1087,2.36005 1.73437,1.73437 0.26641,-0.2664 -0.0148,-0.98359 -0.625,-1.59375 z m 27.94098,-0.72572 c 1.73301,-1.234 2.65563,-2.40874 2.05028,-2.61052 -2.00072,-0.66691 -1.14296,-2.08563 1.26098,-2.08563 2.08978,0 2.28945,-0.28752 1.73468,-2.49789 -0.5022,-2.00092 -0.34195,-2.38855 0.8054,-1.94827 2.01859,0.7746 3.53581,-1.07477 3.53581,-4.30987 0,-1.54182 0.72215,-3.28406 1.63915,-3.9546 2.70561,-1.97838 0.40408,-2.793 -2.70395,-0.95705 -2.842,1.67881 -2.87369,1.67596 -2.27677,-0.20476 0.33294,-1.049 0.1663,-2.1786 -0.37029,-2.51024 -0.53661,-0.33164 -0.97564,0.0831 -0.97564,0.92178 0,1.13203 -0.5433,1.37192 -2.10937,0.93141 -1.16016,-0.32633 -1.66726,-0.2493 -1.1269,0.1712 1.2447,0.9686 1.53917,4.98329 0.3655,4.98329 -0.48358,0 -0.87923,-0.61797 -0.87923,-1.37327 0,-2.33217 -3.2362,-3.44723 -5.26112,-1.81276 -1.26393,1.02022 -1.43501,1.56836 -0.59826,1.9168 1.60661,0.66901 1.49206,2.53021 -0.11769,1.91248 -0.76233,-0.29253 -1.72058,0.45109 -2.34375,1.81881 -1.3542,2.97212 -1.33296,3.16294 0.35207,3.16294 0.77344,0 1.40625,0.42188 1.40625,0.9375 0,0.51563 -0.5651,0.9375 -1.25576,0.9375 -1.00765,0 -3.43174,3.62079 -3.43174,5.12588 0,0.19258 1.26562,0.62812 2.8125,0.96787 1.54687,0.33975 2.8125,0.99554 2.8125,1.45731 0,0.46175 -1.26563,0.58644 -2.8125,0.27707 -1.65572,-0.33115 -2.8125,-0.16885 -2.8125,0.3946 0,1.76914 7.09376,0.63171 10.30035,-1.65158 z m -3.2691,-0.94615 c 0.31868,-0.51563 1.00128,-0.9375 1.5169,-0.9375 0.51563,0 0.67678,0.42187 0.3581,0.9375 -0.31868,0.51562 -1.00128,0.9375 -1.5169,0.9375 -0.51563,0 -0.67678,-0.42188 -0.3581,-0.9375 z m -5.625,-1.875 c 0.31868,-0.51563 1.00128,-0.9375 1.5169,-0.9375 0.51563,0 0.67678,0.42187 0.3581,0.9375 -0.31868,0.51562 -1.00128,0.9375 -1.5169,0.9375 -0.51563,0 -0.67678,-0.42188 -0.3581,-0.9375 z m 5.15625,-1.875 c 0,-0.51563 0.42187,-0.9375 0.9375,-0.9375 0.51562,0 0.9375,0.42187 0.9375,0.9375 0,0.51562 -0.42188,0.9375 -0.9375,0.9375 -0.51563,0 -0.9375,-0.42188 -0.9375,-0.9375 z m 3.02735,-2.05078 c 0.20409,-0.61231 0.87235,-1.28037 1.48501,-1.48459 0.68507,-0.22835 0.8946,0.20024 0.54422,1.11328 -0.65392,1.70411 -2.5917,2.05868 -2.02923,0.37131 z m -5.83985,-3.98764 c 0,-0.80387 0.42187,-1.46158 0.9375,-1.46158 0.51562,0 0.9375,0.39697 0.9375,0.88217 0,0.48519 -0.42188,1.14291 -0.9375,1.46158 -0.51563,0.31867 -0.9375,-0.0783 -0.9375,-0.88217 z m 3.75,0.52407 c 0,-0.51562 0.42187,-1.19823 0.9375,-1.5169 0.51562,-0.31867 0.9375,-0.15753 0.9375,0.3581 0,0.51562 -0.42188,1.19823 -0.9375,1.5169 -0.51563,0.31867 -0.9375,0.15753 -0.9375,-0.3581 z M 195,263.51562 c 0,-0.98827 -0.52734,-1.98521 -1.17188,-2.2154 -0.64453,-0.23019 -0.87555,-0.73744 -0.51339,-1.12723 0.88107,-0.94827 3.56027,1.81072 3.56027,3.66629 0,0.81028 -0.42188,1.47322 -0.9375,1.47322 -0.51563,0 -0.9375,-0.80859 -0.9375,-1.79688 z m -5.625,-0.0781 c 0,-0.51563 0.63281,-0.9375 1.40625,-0.9375 0.77344,0 1.40625,0.42187 1.40625,0.9375 0,0.51562 -0.63281,0.9375 -1.40625,0.9375 -0.77344,0 -1.40625,-0.42188 -1.40625,-0.9375 z m -3.75,-2.8125 c 0,-0.51563 0.42187,-0.9375 0.9375,-0.9375 0.51562,0 0.9375,0.42187 0.9375,0.9375 0,0.51562 -0.42188,0.9375 -0.9375,0.9375 -0.51563,0 -0.9375,-0.42188 -0.9375,-0.9375 z m -27.80149,11.67832 c -0.30533,-0.79568 -0.75621,-1.24562 -1.00195,-0.99988 -0.24575,0.24575 -0.16873,0.89676 0.17114,1.44669 0.92442,1.49574 1.46473,1.20516 0.83081,-0.44681 z M 221.25,270.49817 c 0,-0.83868 -0.54965,-1.1659 -1.40625,-0.8372 -0.77344,0.29681 -1.40625,0.91637 -1.40625,1.37683 0,0.46046 0.63281,0.8372 1.40625,0.8372 0.77344,0 1.40625,-0.61958 1.40625,-1.37683 z m -69.0281,-7.29505 c -0.13449,-2.1914 -0.26757,-5.14453 -0.29571,-6.5625 -0.034,-1.71256 -0.55278,-2.57812 -1.54521,-2.57812 -0.82171,0 -1.70703,-0.81457 -1.96738,-1.81015 -0.6422,-2.45576 -2.81313,-3.14229 -3.35723,-1.06168 -0.28699,1.0975 0.0523,1.64746 0.97225,1.57575 0.77721,-0.0606 2.17409,1.23049 3.10417,2.86907 1.5031,2.64811 1.53313,3.11032 0.27018,4.15847 -1.81142,1.50334 -3.1544,-0.28808 -2.44177,-3.25712 0.34659,-1.44401 0.18809,-1.73488 -0.56608,-1.03879 -0.57611,0.53174 -1.32056,2.33228 -1.65435,4.00121 -0.51995,2.59978 -0.37812,2.94663 0.99025,2.42154 1.13966,-0.43733 1.50986,-0.18857 1.29244,0.86843 -0.3055,1.48515 2.57087,4.31254 4.44413,4.36846 0.59179,0.0176 0.89918,-1.59393 0.75431,-3.95457 z m -4.0969,0.23438 c 0,-0.51563 0.63281,-0.9375 1.40625,-0.9375 0.77344,0 1.40625,0.42187 1.40625,0.9375 0,0.51562 -0.63281,0.9375 -1.40625,0.9375 -0.77344,0 -1.40625,-0.42188 -1.40625,-0.9375 z m 73.95375,0.70312 c -0.0598,-1.67578 -0.30169,-2.30859 -0.5375,-1.40625 -0.2358,0.90235 -1.03061,1.64063 -1.76624,1.64063 -1.89486,0 -1.66367,1.65229 0.30311,2.16625 0.90235,0.23581 1.7461,0.47769 1.875,0.5375 0.12891,0.0598 0.18544,-1.26234 0.12563,-2.93813 z m -2.23343,-5.6038 c -0.082,-1.11292 -0.55936,-2.16025 -1.06082,-2.32741 -0.52505,-0.17501 -0.74332,1.13867 -0.51464,3.09743 0.41069,3.51789 1.83989,2.81936 1.57546,-0.77002 z m 9.20355,-2.36495 c -2.97889,-4.74264 -19.13443,-22.96131 -19.78458,-22.31116 -0.70772,0.70771 7.83783,11.55318 10.7992,13.70566 1.72327,1.25256 3.71409,3.33207 4.42406,4.62113 1.34538,2.44279 4.9405,6.5625 5.72683,6.5625 0.24961,0 -0.27486,-1.16016 -1.16551,-2.57813 z m 6.79935,1.10491 c -0.81028,-0.81026 -1.47322,-1.94932 -1.47322,-2.53125 0,-0.78339 -0.27567,-0.78236 -1.06198,0.004 -1.53035,1.53035 -0.27255,4.00052 2.03702,4.00052 1.79217,0 1.83746,-0.13393 0.49818,-1.47321 z m 3.23429,-17.39682 c -0.89103,-4.35029 -3.2162,-9.28641 -7.67167,-16.28621 -1.3128,-2.0625 -2.67603,-4.66177 -3.02939,-5.77614 -0.35335,-1.11438 -2.10248,-3.13976 -3.88696,-4.50084 l -3.24449,-2.47469 0,3.38429 c 0,1.91379 0.38946,3.14359 0.89632,2.83033 1.4187,-0.8768 3.73879,3.44514 6.6343,12.3586 3.15171,9.70208 5.87116,17.24105 6.6926,18.55345 0.32273,0.51563 1.13045,2.83594 1.79494,5.15625 l 1.20816,4.21875 0.74743,-6.5625 c 0.42813,-3.75908 0.3678,-8.41597 -0.14124,-10.90129 z m -50.64501,15.48787 c 0,-0.7759 -1.82037,-1.21467 -2.23773,-0.53937 -0.27076,0.4381 0.12196,0.79654 0.87272,0.79654 0.75075,0 1.36501,-0.11573 1.36501,-0.25717 z m 58.80849,-6.37609 2.25852,-2.72701 -2.64288,-2.27355 -2.64288,-2.27355 -0.6491,3.59431 c -0.357,1.97687 -0.66058,5.07087 -0.67461,6.87556 -0.0227,2.915 0.0927,3.07196 1.03345,1.40625 0.58244,-1.03125 2.07532,-3.10216 3.3175,-4.60201 z M 292.5,251.21812 c 11.67352,-4.98792 12.41081,-6.52635 2.57812,-5.37943 -3.73828,0.43605 -11.22656,0.70995 -16.64062,0.60868 -17.37364,-0.32501 -17.51124,-0.25099 -9.84375,5.29485 4.48701,3.24543 4.94814,3.37098 10.78125,2.93535 3.94417,-0.29456 8.57405,-1.51489 13.125,-3.45945 z m -97.88286,-3.88422 c 1.60152,-3.09698 4.09258,-3.47168 4.8112,-0.72368 0.45501,1.73997 0.68468,1.6286 2.41647,-1.17188 1.05252,-1.70203 2.2371,-4.78209 2.6324,-6.84459 0.39529,-2.0625 1.40144,-6.45266 2.23586,-9.75591 0.83443,-3.30325 1.1672,-6.25637 0.73951,-6.5625 -0.4277,-0.30613 -0.77909,-5.20795 -0.78086,-10.89295 -0.005,-13.74053 -1.08498,-15.717 -10.75687,-19.6729 -5.00679,-2.04784 -7.5302,-3.68807 -8.97717,-5.83524 -2.70492,-4.01382 -3.38934,-2.92729 -1.47205,2.3369 0.93171,2.55817 3.76018,6.60583 6.98572,9.99688 7.32305,7.69882 11.82773,17.41697 8.07335,17.41697 -0.46046,0 -0.8372,0.98152 -0.8372,2.18116 0,1.19964 -1.2557,6.65309 -2.79043,12.11877 -1.53474,5.46569 -3.06395,11.64807 -3.39824,13.73864 -0.3343,2.09057 -1.18797,4.28253 -1.89707,4.87103 -0.7091,0.58848 -1.28926,1.7028 -1.28926,2.47623 0,1.97094 2.47904,-0.1466 4.30464,-3.67693 z m 25.22661,3.9161 c -0.31868,-0.51563 -1.00128,-0.9375 -1.5169,-0.9375 -0.51563,0 -0.67678,0.42187 -0.3581,0.9375 0.31868,0.51562 1.00128,0.9375 1.5169,0.9375 0.51563,0 0.67678,-0.42188 0.3581,-0.9375 z m 5.74889,-7.48094 C 224.22081,241.69608 222.64735,240 222.09607,240 c -1.3473,0 -0.88235,0.98721 2.36392,5.01911 3.57158,4.43595 4.33668,3.59156 1.13265,-1.25005 z m -79.65925,-0.25344 c -0.26007,-0.64453 -0.47287,-0.11718 -0.47287,1.17188 0,1.28906 0.2128,1.81641 0.47287,1.17187 0.26007,-0.64453 0.26007,-1.69921 0,-2.34375 z m 133.78431,0.75793 c 8.31933,-0.12037 17.9656,-0.78072 21.43616,-1.46743 5.85572,-1.15867 6.1732,-1.34446 4.40891,-2.58023 -1.52797,-1.07022 -5.57007,-1.26911 -20.59023,-1.01314 l -18.68904,0.3185 -3.06362,3.142 c -2.7959,2.86743 -2.86983,3.08421 -0.84593,2.48057 1.21974,-0.36379 9.02442,-0.75992 17.34375,-0.88027 z m -128.75479,-2.16418 c 0.014,-0.38671 0.46261,-4.71093 0.997,-9.60937 1.57633,-14.44945 0.74714,-19.75955 -3.71626,-23.79888 -1.10237,-0.99762 -2.18315,-3.5434 -2.55389,-6.01569 -0.66654,-4.44476 -4.13236,-9.08495 -6.26327,-8.38553 -2.13011,0.69915 -5.13517,6.16191 -4.68503,8.51667 0.54937,2.8739 -1.35284,4.15232 -2.94286,1.97783 -2.1145,-2.89174 -3.10424,-0.83928 -2.33365,4.83931 0.39823,2.93455 1.0861,5.58857 1.52859,5.8978 0.44249,0.30923 1.51536,2.0388 2.38414,3.84349 0.86879,1.80469 1.61279,2.64844 1.65331,1.875 0.0405,-0.77344 0.15561,-4.57031 0.25573,-8.4375 0.10011,-3.86719 0.60391,-7.14879 1.11953,-7.29247 1.18401,-0.3299 2.12597,7.17293 2.26912,18.07372 0.0609,4.64062 0.66323,10.54687 1.33844,13.125 l 1.22762,4.6875 0.67177,-3.51563 c 0.95111,-4.97758 3.3905,-4.66984 5.60154,0.70665 1.51666,3.68798 3.37349,5.57924 3.44817,3.5121 z M 251.25,240.92478 c 0,-0.52262 -0.3663,-1.68278 -0.814,-2.57813 -0.44772,-0.89535 -1.4882,-4.4657 -2.31221,-7.93413 -0.824,-3.46844 -3.41082,-10.23789 -5.74848,-15.04324 -4.20719,-8.64836 -5.5726,-15.6914 -3.31281,-17.08803 0.5757,-0.3558 0.9375,1.17268 0.9375,3.96067 0,3.6027 0.68309,5.59812 3.30852,9.66469 1.81969,2.81855 3.76024,6.81214 4.31234,8.87464 0.55211,2.0625 1.59452,5.4516 2.31649,7.53134 0.72196,2.07974 1.31265,4.87574 1.31265,6.21334 0,2.57994 2.26164,5.24883 3.18368,3.75694 0.29596,-0.47887 0.79475,-4.4017 1.10843,-8.7174 l 0.57032,-7.84672 -5.4781,-10.71937 c -4.31811,-8.44957 -6.1986,-11.16689 -8.88078,-12.83281 l -3.40271,-2.11344 -2.00289,6.10123 c -1.10159,3.35568 -1.80947,6.41421 -1.57305,6.79674 0.23642,0.38252 1.04377,4.50943 1.79411,9.17089 1.57315,9.77295 2.62747,12.08223 8.59752,18.83113 4.19563,4.74299 6.08347,5.97549 6.08347,3.97166 z m -24.36009,-7.24473 c -1.62518,-5.3352 -3.96644,-10.55505 -4.73428,-10.55505 -0.81339,0 -1.07502,6.96383 -0.38879,10.34849 0.49143,2.42383 5.32259,6.20535 5.88669,4.60771 0.17037,-0.48255 -0.17325,-2.46307 -0.76362,-4.40115 z m 42.17259,-6.46521 c 0,-1.26128 -1.73313,0.18801 -3.51563,2.93986 -2.98851,4.61374 -2.61431,5.1135 0.70313,0.93905 1.54687,-1.94649 2.8125,-3.692 2.8125,-3.87891 z m -50.19629,4.41244 c 0.29666,-0.48 0.11061,-1.13771 -0.41342,-1.46158 -0.52403,-0.32387 -0.95279,0.0688 -0.95279,0.87272 0,1.64675 0.56256,1.88921 1.36621,0.58886 z M 213.75,225.9375 c 0,-4.14791 -1.40135,-5.08433 -2.10445,-1.40625 -0.24643,1.28906 -0.0847,2.34375 0.35945,2.34375 0.44412,0 0.8075,0.63281 0.8075,1.40625 0,0.77344 0.21094,1.40625 0.46875,1.40625 0.25781,0 0.46875,-1.6875 0.46875,-3.75 z m 59.55966,-4.50285 C 272.67971,220.80472 270,223.14298 270,224.32259 c 0,0.53241 0.84634,0.20209 1.88075,-0.73404 1.03441,-0.93613 1.67742,-1.90539 1.42891,-2.1539 z m -60.53039,-9.90881 c 0.0183,-0.44986 -0.59958,-0.29274 -1.37302,0.34916 -0.77344,0.6419 -1.3913,2.06465 -1.37303,3.16166 0.0313,1.87882 0.11099,1.85855 1.37303,-0.34916 0.73689,-1.28906 1.35476,-2.71181 1.37302,-3.16166 z m 67.89094,-1.10578 c 0.32015,-0.8343 0.16299,-1.21062 -0.36844,-0.88217 -0.50972,0.31502 -0.92677,0.96975 -0.92677,1.45494 0,1.34853 0.67197,1.05137 1.29521,-0.57277 z m 41.36104,-2.31898 c 5.15625,-0.59964 11.58984,-1.71326 14.29687,-2.4747 5.21515,-1.46692 5.48685,-1.94213 4.3527,-7.61292 -0.54537,-2.72681 -0.69249,-2.80448 -3.51563,-1.85615 -1.62054,0.54436 -3.41362,1.35212 -3.9846,1.79503 -0.57098,0.44291 -4.5788,2.08703 -8.90625,3.65359 -6.78003,2.45443 -9.32007,2.87524 -18.36781,3.04306 -6.0446,0.11213 -10.1498,0.54479 -9.67504,1.01971 1.56926,1.5698 10.57805,4.12163 13.49553,3.82274 1.61108,-0.16504 7.14798,-0.7907 12.30423,-1.39036 z m -106.4206,-2.60954 c -0.0124,-1.36619 -0.13996,-1.39094 -0.92315,-0.17904 -1.1865,1.83597 -1.1865,3.07704 0,2.34375 0.51562,-0.31868 0.93104,-1.29279 0.92315,-2.16471 z m -2.60925,-5.95391 c 2.1519,-7.71087 2.62989,-13.10576 1.20454,-13.59499 C 212.52783,185.36665 210,194.50135 210,201.14145 c 0,3.4972 0.24323,6.11532 0.5405,5.81805 0.29727,-0.29727 1.40467,-3.63712 2.4609,-7.42187 z m 97.89817,2.50591 c 4.19007,-0.34651 8.77345,-1.22932 10.18529,-1.96178 1.41183,-0.73247 3.06236,-1.33176 3.66783,-1.33176 0.60547,0 2.77209,-0.87598 4.81471,-1.94663 2.04262,-1.07063 6.03416,-2.76826 8.8701,-3.7725 l 5.15625,-1.82589 -10.78125,0.51904 c -5.92969,0.28548 -12.04688,0.68867 -13.59375,0.89599 -9.59434,1.28586 -11.71177,1.68657 -15.9375,3.01599 -4.49756,1.41494 -10.78125,5.30717 -10.78125,6.6781 0,0.75181 7.3425,0.64384 18.39957,-0.27056 z m -32.93082,-5.01802 c -2.75002,-2.5491 -8.90625,-10.69739 -8.90625,-11.78816 0,-0.83361 -3.38502,-4.04259 -5.31967,-5.043 -0.94137,-0.48678 -3.39908,-1.17402 -5.46158,-1.52719 -2.0625,-0.35318 -4.59375,-0.88665 -5.625,-1.1855 -1.80426,-0.52285 -1.81253,-0.47334 -0.21927,1.31237 0.91064,1.02064 3.44189,2.38863 5.625,3.03998 6.75813,2.01634 8.81141,3.55154 11.77619,8.80485 3.02303,5.35652 6.90125,9.06702 9.42889,9.02115 1.09419,-0.0199 0.73407,-0.75061 -1.29831,-2.6345 z m 7.17979,-0.85365 c 0.34795,-3.84309 -0.49137,-5.61882 -6.35026,-13.43503 -8.37977,-11.17926 -13.46422,-13.32121 -22.33007,-9.40707 l -3.68805,1.6282 6.44842,1.59132 c 7.15471,1.7656 9.39974,3.4612 13.80689,10.42788 3.3276,5.26017 8.85447,10.83533 10.74149,10.83533 0.67267,0 1.28988,-0.73828 1.37158,-1.64063 z m 63.42703,-18.63646 c 6.06156,-1.95767 10.2941,-6.25206 10.91101,-11.07044 l 0.46681,-3.64611 -2.55482,2.30933 c -5.74933,5.19689 -4.95345,5.00577 -24.58607,5.9042 -5.92969,0.27136 -10.99219,0.50786 -11.25,0.52556 -1.41881,0.0974 9.12952,5.26807 14.0625,6.89323 2.88758,0.95132 8.36977,0.56366 12.95057,-0.91577 z m -0.22495,-10.23346 c 4.98127,-1.3832 8.82716,-4.43039 7.00946,-5.55379 -0.55663,-0.34403 -3.22083,-0.18849 -5.92045,0.34563 -2.69961,0.53411 -8.3872,1.4264 -12.63909,1.98286 -7.46128,0.97648 -15.81774,3.78115 -14.67391,4.92498 0.98313,0.98312 21.3061,-0.3341 26.22399,-1.69968 z m -38.97562,0.22717 c 0,-0.15586 -2.28939,-4.90195 -5.08754,-10.54687 -6.2234,-12.55497 -10.0737,-16.89778 -18.23007,-20.56201 -4.07891,-1.83244 -4.24437,-1.79472 -1.99489,0.45476 1.03125,1.03125 1.875,2.83903 1.875,4.01729 0,4.3476 4.44358,15.64285 7.59507,19.3061 3.65733,4.25121 9.51313,7.61229 13.2643,7.61337 1.41797,4.1e-4 2.57813,-0.12678 2.57813,-0.28264 z m 0.42808,-11.24052 c -2.12144,-8.79727 -4.32093,-13.04329 -9.37425,-18.09661 -3.62785,-3.62785 -4.61649,-4.1228 -8.13853,-4.07436 -3.53615,0.0487 -3.78787,0.18677 -2.13405,1.1711 1.03125,0.61378 4.45227,3.71301 7.60227,6.88718 4.62288,4.65834 6.4275,7.42486 9.35858,14.34691 1.99722,4.71664 3.78525,8.11388 3.9734,7.54942 0.18816,-0.56446 -0.39118,-4.0671 -1.28742,-7.78364 z m -116.29074,2.28063 c 0.58338,-0.94392 -2.84802,-4.13966 -8.94844,-8.33388 -3.76192,-2.58644 -5.391,-3.0588 -12.1875,-3.5339 -10.72346,-0.74959 -13.9389,-1.30827 -13.9389,-2.42185 0,-1.55948 18.25058,0.13687 23.90625,2.22202 1.54687,0.57031 4.27972,2.22358 6.07297,3.67391 4.3578,3.52444 5.04948,3.32244 2.63514,-0.76958 -2.37757,-4.02966 -11.28293,-8.64955 -22.16874,-11.5006 -6.27696,-1.64396 -7.30884,-1.68468 -11.45918,-0.45217 -3.59864,1.06869 -5.14417,2.20203 -7.32458,5.37116 l -2.76354,4.01666 3.25725,1.75414 c 1.79149,0.96478 3.94789,2.9233 4.792,4.35227 2.2511,3.8108 5.03041,4.55386 18.29799,4.89204 6.5787,0.16769 12.23817,0.58178 12.57661,0.92022 0.90242,0.90242 6.67086,0.75095 7.25267,-0.19044 z m 2.41081,-4.58486 c -0.007,-0.38671 -0.42331,-1.33593 -0.92315,-2.10937 -0.73488,-1.13715 -0.91153,-1.0026 -0.92315,0.70312 -0.008,1.16016 0.40752,2.10938 0.92315,2.10938 0.51562,0 0.93104,-0.31641 0.92315,-0.70313 z m 12.03257,-6.5625 c 6.96331,-7.9203 8.6491,-10.3471 12.82315,-18.45989 4.4967,-8.73989 4.62153,-10.54497 1.15572,-16.71155 l -2.01664,-3.58811 -1.63548,2.15322 c -0.89951,1.18427 -2.18182,3.20055 -2.84959,4.48062 -0.66777,1.28008 -2.59738,4.44414 -4.28801,7.03125 -5.29479,8.10239 -12.39487,24.5884 -12.39487,28.78025 0,0.42204 1.1904,0.76734 2.64532,0.76734 1.98135,0 3.62802,-1.11774 6.5604,-4.45313 z m -3.86895,-16.58051 c 3.26593,-6.67007 6.56527,-12.82047 7.33188,-13.66757 0.76662,-0.8471 1.39385,-2.03431 1.39385,-2.63823 0,-0.60393 0.3707,-1.09806 0.82376,-1.09806 1.00707,0 3.37812,-5.48561 2.67497,-6.18877 -0.277,-0.27701 -1.28301,-0.11461 -2.23556,0.36087 -0.95256,0.47549 -3.37335,1.65783 -5.37955,2.62742 -3.63811,1.75831 -9.65604,8.88075 -12.97116,15.35183 -1.92447,3.75654 -2.29124,15.19249 -0.6231,19.42824 l 1.03937,2.63916 1.00375,-2.34375 c 0.55208,-1.28906 3.67588,-7.80108 6.94179,-14.47114 z m 163.58731,14.99579 c 7.09855,-1.26587 12.69293,-3.60571 14.17742,-5.92965 0.41677,-0.65243 1.66003,-2.02685 2.76282,-3.05426 l 2.00507,-1.86801 -4.63782,0.51824 c -2.5508,0.28503 -6.95813,0.92542 -9.79407,1.42308 -13.13972,2.3058 -17.70966,3.03308 -22.49076,3.57924 -3.79585,0.43361 -5.22637,1.00501 -5.44936,2.17664 -0.22449,1.17957 0.73878,1.85646 3.74076,2.62862 2.22371,0.57197 4.46498,1.19486 4.98061,1.38419 1.95843,0.71911 7.75922,0.38062 14.70533,-0.85809 z M 337.5,141.476 c 0,-0.56321 -0.81916,-2.0654 -1.82036,-3.33822 -1.0012,-1.27282 -2.30224,-4.6354 -2.8912,-7.47241 -0.58896,-2.83701 -2.72292,-8.88018 -4.74213,-13.42927 -3.62133,-8.15848 -4.57938,-11.97048 -2.71961,-10.82108 2.13503,1.31953 11.7318,26.08648 10.73379,27.7013 -0.22816,0.36918 0.21333,1.19256 0.98108,1.82975 1.16707,0.96858 1.41429,0.79385 1.50788,-1.06566 0.28992,-5.76045 -0.40278,-13.91116 -1.54351,-18.16166 -2.73462,-10.1896 -3.91541,-11.82848 -9.38832,-13.03053 -2.48577,-0.54596 -2.98049,-0.25821 -4.54235,2.64198 -1.04609,1.94247 -1.48555,3.93682 -1.08999,4.94661 0.36453,0.93057 1.408,6.18198 2.31884,11.66981 1.48605,8.95359 2.01466,10.41552 5.14951,14.24119 1.9214,2.34481 3.99052,4.466 4.59804,4.71374 1.97159,0.80398 3.44833,0.62174 3.44833,-0.42555 z m -156.06301,-4.54155 c -1.85171,-3.58082 -2.27664,-3.78679 -6.14766,-2.9799 l -3.25808,0.67913 5.15625,2.44877 c 2.83594,1.34682 5.27256,2.48393 5.4147,2.52691 0.14214,0.0429 -0.3822,-1.16073 -1.16521,-2.67491 z m 172.46926,0.85047 c 3.18291,-0.78116 12.37011,-2.08031 29.97022,-4.23803 5.50428,-0.67481 6.14255,-1.99288 1.83639,-3.79227 -2.88178,-1.2042 -5.82126,-1.45028 -13.53038,-1.13275 -10.61384,0.43718 -16.97202,2.55929 -22.96373,7.66438 -2.45052,2.08791 -2.57118,2.39778 -0.9375,2.40767 1.03125,0.007 3.5625,-0.40281 5.625,-0.909 z m -180.47367,-6.4351 c 3.61501,-1.00588 3.51104,-3.55186 -0.17726,-4.34087 -1.70449,-0.36463 -3.52095,-0.99776 -4.03657,-1.40694 -0.51562,-0.40919 -3.67969,-1.67428 -7.03125,-2.81131 -8.717,-2.95727 -18.16682,-2.81547 -26.62842,0.39957 -3.55969,1.35253 -6.6886,2.24271 -6.95312,1.97819 -0.67116,-0.67116 -0.4918,-0.77166 6.85044,-3.83862 5.78131,-2.41493 7.542,-2.71427 15,-2.55025 7.0884,0.1559 9.43168,0.62869 14.5436,2.93441 3.35156,1.51171 7.57031,3.03965 9.375,3.39542 l 3.28125,0.64686 -2.8125,-2.31286 c -1.54687,-1.27208 -4.07812,-3.41966 -5.625,-4.77241 -4.69804,-4.10844 -10.52166,-5.34745 -18.52029,-3.94032 -3.73572,0.65719 -8.26877,1.97273 -10.07346,2.92343 -1.80469,0.95069 -5.78539,2.63562 -8.846,3.74428 -5.87744,2.12903 -7.76912,3.92101 -6.80137,6.44292 0.83704,2.18129 4.25757,1.84998 8.61612,-0.83453 5.12713,-3.15788 11.81027,-2.88215 18.75,0.7736 6.579,3.46572 15.83266,5.03196 21.08883,3.56943 z m 17.04031,-17.02099 c 4.99178,-5.25629 11.43488,-16.369277 13.47649,-23.244081 1.53803,-5.179141 0.96171,-7.919919 -2.27929,-10.839425 -1.09043,-0.982259 -1.98259,-2.353353 -1.98259,-3.046875 0,-2.138218 -1.20974,-1.439604 -6.7589,3.903198 -6.32963,6.094262 -9.06105,10.580549 -12.36292,20.305823 -2.42497,7.14245 -2.96806,12.68762 -1.5883,16.21709 0.5714,1.46164 1.06433,0.68517 2.38065,-3.75 4.70164,-15.841516 4.19865,-14.670419 10.524,-24.502186 C 193.59692,86.706867 195,83.673172 195,82.630827 c 0,-2.406442 1.82447,-3.630875 2.02354,-1.35803 0.30014,3.426829 -0.18144,5.090915 -2.0554,7.102377 -1.05435,1.131713 -3.06054,4.292705 -4.45819,7.024423 -1.39767,2.731725 -3.10071,6.028413 -3.78455,7.325983 -1.25842,2.38781 -4.8504,14.52416 -4.8504,16.38823 0,2.10652 4.3548,-0.31706 8.59789,-4.78498 z m -54.75704,-0.78106 c 1.85845,-0.94439 7.7131,-2.48137 15.22165,-3.99602 11.53656,-2.32719 11.70487,-4.87493 0.3921,-5.93502 -6.07004,-0.56881 -7.93518,-0.3544 -13.33402,1.53285 -3.45226,1.2068 -8.3298,3.3059 -10.83898,4.6647 -4.07822,2.20847 -4.37655,2.57837 -2.8125,3.48711 2.12493,1.23464 9.12836,1.38637 11.37175,0.24638 z m 38.94949,-4.08326 0.37869,-3.43633 -2.77303,1.434 -2.77302,1.43398 2.1297,2.26697 c 1.17135,1.24684 2.2488,2.14789 2.39435,2.00234 0.14555,-0.14555 0.43504,-1.81098 0.64331,-3.70096 z m -9.25178,1.65905 c -2.08024,-1.5734 -4.7375,-1.84526 -5.52838,-0.56558 -0.51518,0.83356 1.64268,1.54175 5.52838,1.81435 1.80142,0.12638 1.80142,0.11376 0,-1.24877 z m -38.98815,-2.73229 c 12.61507,-6.42053 16.2648,-7.43159 24.15707,-6.69202 5.09014,0.47698 6.95754,0.37397 6.50465,-0.35884 -0.34941,-0.56535 -1.38383,-1.02791 -2.29871,-1.02791 -0.91488,0 -1.95326,-0.28985 -2.30751,-0.6441 -0.88459,-0.884578 -3.63902,-1.169887 -11.75276,-1.217391 -6.19393,-0.03628 -7.41093,0.269278 -11.48437,2.883201 -2.50596,1.60806 -4.55628,3.25703 -4.55628,3.66437 0,0.40735 -1.22394,2.05087 -2.71988,3.65227 -1.49595,1.60141 -2.50685,2.91165 -2.24647,2.91165 0.26037,0 3.27729,-1.42705 6.70426,-3.17123 z m 46.32211,-5.38611 c 5.72605,-3.765198 10.16078,-16.187016 10.21737,-28.619163 0.0334,-7.325719 -0.59057,-10.282103 -2.67078,-12.655262 -1.24152,-1.416359 -1.66565,-1.213571 -4.90194,2.34375 -2.27007,2.495255 -3.94882,5.54492 -4.67291,8.489007 -0.62154,2.527108 -1.70622,5.708873 -2.41039,7.070591 -2.03786,3.940794 -5.18665,13.403979 -5.15406,15.489673 0.0164,1.049119 0.62024,2.686781 1.34187,3.639244 0.72162,0.952462 1.08495,2.32356 0.80738,3.04687 -0.8307,2.16476 1.16727,1.48479 2.33375,-0.79425 0.5938,-1.160151 1.49615,-4.04872 2.00523,-6.419029 0.50908,-2.370312 1.83509,-6.378124 2.94668,-8.906249 3.26475,-7.425103 5.53528,-13.8237 5.53528,-15.598982 0,-0.909623 0.42686,-1.65386 0.94858,-1.65386 1.57928,0 0.0116,7.501145 -2.90649,13.907197 C 173.57649,88.031822 168.43137,105 169.29751,105 c 0.22896,0 1.78147,-0.89768 3.45001,-1.99484 z M 114.18718,87.766171 c 1.39237,-0.712981 4.85188,-1.590385 7.68782,-1.949786 8.5195,-1.079685 12.34431,-2.391464 15.14814,-5.195294 1.4654,-1.465398 2.66436,-3.088331 2.66436,-3.606517 0,-1.296906 -9.47484,-2.368517 -15.33578,-1.734486 -2.73213,0.29556 -7.81868,1.993315 -11.74117,3.918896 -3.80639,1.868583 -8.14709,3.642699 -9.646,3.942481 -3.412203,0.682442 -3.013494,2.161135 1.15378,4.278953 3.8914,1.977621 6.69408,2.073861 10.06885,0.345753 z m 237.83949,0.366254 c 0.31614,-0.511541 0.20388,-1.592887 -0.24947,-2.402989 -0.73592,-1.315004 -0.95103,-1.320202 -2.00645,-0.0485 -1.1861,1.429157 -0.69288,3.381561 0.85425,3.381561 0.45476,0 1.08551,-0.418534 1.40167,-0.930075 z M 112.5,76.960459 c 6.55901,-3.309715 8.25218,-3.698029 17.10937,-3.923901 3.9961,-0.101906 7.26563,-0.470792 7.26563,-0.819744 0,-1.216626 -8.00201,-4.573664 -12.44685,-5.221757 -3.90004,-0.568656 -4.9287,-0.338795 -7.96875,1.780673 -1.91986,1.338489 -4.32004,3.681909 -5.33374,5.2076 -1.0137,1.525691 -3.43948,3.671207 -5.39062,4.767813 -7.400102,4.15909 -2.40649,2.837283 6.76496,-1.790684 z m 39.28234,-2.381292 c 3.38278,-1.749302 5.655,-5.272102 7.24026,-11.225112 1.80805,-6.789641 1.64192,-18.895022 -0.33644,-24.515175 l -1.62633,-4.62013 -0.55375,6.09375 c -0.51355,5.651522 -3.19191,13.001664 -4.32489,11.868686 -0.27118,-0.271181 -0.0667,-1.892418 0.45438,-3.602747 1.31485,-4.315558 2.2034,-15.17485 0.98549,-12.043954 -0.49544,1.273653 -1.98434,3.736321 -3.30867,5.472595 -4.29455,5.630452 -9.67902,17.305196 -9.68333,20.995683 -0.004,3.4484 1.61444,8.247237 2.7815,8.247237 0.33527,0 1.34454,-2.425781 2.24281,-5.390625 1.72009,-5.67731 3.91561,-9.415388 4.93269,-8.398319 0.33298,0.332986 -0.007,1.567813 -0.75624,2.744061 -0.74891,1.176248 -2.11868,4.589007 -3.04393,7.583909 -1.63064,5.278104 -1.62871,5.485854 0.0628,6.767059 2.166,1.640608 1.80894,1.638938 4.93366,0.02308 z M 150,54.84375 c 0.6419,-0.773438 1.58896,-1.40625 2.10458,-1.40625 0.52297,0 0.42145,0.621806 -0.22958,1.40625 -0.6419,0.773437 -1.58896,1.40625 -2.10458,1.40625 -0.52297,0 -0.42145,-0.621806 0.22958,-1.40625 z M 126.05371,9.4397794 c 0.29666,-0.4799959 0.11061,-1.1377062 -0.41342,-1.4615782 -0.52403,-0.3238719 -0.95279,0.068852 -0.95279,0.8727204 0,1.6467434 0.56256,1.8892114 1.36621,0.5888578 z M 227.96501,429.76003 c -0.68955,-0.78026 -0.98779,-2.11167 -0.66276,-2.95869 0.48015,-1.25126 0.84709,-1.04636 1.95686,1.09273 0.75124,1.44801 1.36589,2.79547 1.36589,2.99435 0,0.82609 -1.49208,0.19314 -2.65999,-1.12839 z M 225.9375,417.1875 c 0,-1.54688 0.42187,-2.8125 0.9375,-2.8125 0.51562,0 0.9375,1.26562 0.9375,2.8125 0,1.54687 -0.42188,2.8125 -0.9375,2.8125 -0.51563,0 -0.9375,-1.26563 -0.9375,-2.8125 z"
     id="path4230"
     inkscape:connector-curvature="0" />
</svg>
